<svg width="41" height="26" viewBox="0 0 41 26" fill="none" xmlns="http://www.w3.org/2000/svg">
<path d="M26.1944 2.89675H15.2569V22.5495H26.1944V2.89675Z" fill="#FF5F00"/>
<path d="M15.9514 12.7231C15.9514 8.73009 17.8264 5.18843 20.7083 2.89676C18.5902 1.23009 15.9166 0.223145 13 0.223145C6.09027 0.223145 0.5 5.81342 0.5 12.7231C0.5 19.6329 6.09027 25.2231 13 25.2231C15.9166 25.2231 18.5902 24.2162 20.7083 22.5495C17.8264 20.2926 15.9514 16.7162 15.9514 12.7231Z" fill="#EB001B"/>
<path d="M40.9513 12.7231C40.9513 19.6329 35.3611 25.2231 28.4514 25.2231C25.5347 25.2231 22.8611 24.2162 20.743 22.5495C23.6597 20.2579 25.5 16.7162 25.5 12.7231C25.5 8.73009 23.625 5.18843 20.743 2.89676C22.8611 1.23009 25.5347 0.223145 28.4514 0.223145C35.3611 0.223145 40.9513 5.84815 40.9513 12.7231Z" fill="#F79E1B"/>
</svg>
