<svg width="38" height="38" viewBox="0 0 38 38" fill="none" xmlns="http://www.w3.org/2000/svg">
<path d="M19.792 31.6668H5.54199C4.9121 31.6668 4.30801 31.4166 3.86261 30.9712C3.41721 30.5258 3.16699 29.9217 3.16699 29.2918V8.7085C3.16699 8.07861 3.41721 7.47452 3.86261 7.02912C4.30801 6.58372 4.9121 6.3335 5.54199 6.3335H32.4587C33.0885 6.3335 33.6926 6.58372 34.138 7.02912C34.5834 7.47452 34.8337 8.07861 34.8337 8.7085V19.7451" stroke="url(#paint0_linear_2106_11254)" stroke-width="3" stroke-linecap="round" stroke-linejoin="round"/>
<path d="M3.16699 8.7085C3.16699 8.07861 3.41721 7.47452 3.86261 7.02912C4.30801 6.58372 4.9121 6.3335 5.54199 6.3335H32.4587C33.0885 6.3335 33.6926 6.58372 34.138 7.02912C34.5834 7.47452 34.8337 8.07861 34.8337 8.7085V15.8335H3.16699V8.7085Z" stroke="url(#paint1_linear_2106_11254)" stroke-width="3"/>
<path d="M25.334 27.7085H34.834M30.084 22.9585V32.4585" stroke="url(#paint2_linear_2106_11254)" stroke-width="3" stroke-linecap="round" stroke-linejoin="round"/>
<path d="M6.33333 11.0837C6.33333 10.2092 7.04222 9.50033 7.91667 9.50033C8.79112 9.50033 9.5 10.2092 9.5 11.0837C9.5 11.9581 8.79112 12.667 7.91667 12.667C7.04222 12.667 6.33333 11.9581 6.33333 11.0837Z" fill="url(#paint3_linear_2106_11254)"/>
<path d="M11.0833 11.0837C11.0833 10.2092 11.7922 9.50033 12.6667 9.50033C13.5411 9.50033 14.25 10.2092 14.25 11.0837C14.25 11.9581 13.5411 12.667 12.6667 12.667C11.7922 12.667 11.0833 11.9581 11.0833 11.0837Z" fill="url(#paint4_linear_2106_11254)"/>
<defs>
<linearGradient id="paint0_linear_2106_11254" x1="32.4465" y1="27.5954" x2="4.92551" y2="10.5264" gradientUnits="userSpaceOnUse">
<stop stop-color="#B4ADFF"/>
<stop offset="1" stop-color="#5F44F8"/>
</linearGradient>
<linearGradient id="paint1_linear_2106_11254" x1="32.4465" y1="14.3067" x2="22.2449" y2="-2.5659" gradientUnits="userSpaceOnUse">
<stop stop-color="#B4ADFF"/>
<stop offset="1" stop-color="#5F44F8"/>
</linearGradient>
<linearGradient id="paint2_linear_2106_11254" x1="34.1178" y1="30.9317" x2="24.9441" y2="26.3799" gradientUnits="userSpaceOnUse">
<stop stop-color="#B4ADFF"/>
<stop offset="1" stop-color="#5F44F8"/>
</linearGradient>
<linearGradient id="paint3_linear_2106_11254" x1="6.84226" y1="9.73904" x2="8.35952" y2="12.797" gradientUnits="userSpaceOnUse">
<stop stop-color="#B4ADFF"/>
<stop offset="1" stop-color="#5F44F8"/>
</linearGradient>
<linearGradient id="paint4_linear_2106_11254" x1="11.5923" y1="9.73904" x2="13.1095" y2="12.797" gradientUnits="userSpaceOnUse">
<stop stop-color="#B4ADFF"/>
<stop offset="1" stop-color="#5F44F8"/>
</linearGradient>
</defs>
</svg>
