<svg width="80" height="80" viewBox="0 0 80 80" fill="none" xmlns="http://www.w3.org/2000/svg">
<path d="M50.88 4C58.08 4 61.68 4 65.6 5.2C69.84 6.72 73.2 10.08 74.72 14.32C76 18.24 76 21.92 76 29.12V50.88C76 58.08 76 61.68 74.8 65.6C73.28 69.84 69.92 73.2 65.68 74.72C61.68 76 58.08 76 50.88 76H29.12C21.92 76 18.32 76 14.4 74.8C10.08 73.2 6.8 69.92 5.2 65.6C4 61.76 4 58.16 4 50.88V29.12C4 21.92 4 18.32 5.2 14.4C6.8 10.16 10.08 6.8 14.4 5.28C18.24 4 21.84 4 29.12 4H50.88Z" fill="url(#paint0_linear_2867_34704)"/>
<path d="M39.9998 71.1998C57.2311 71.1998 71.1998 57.2311 71.1998 39.9998C71.1998 22.7685 57.2311 8.7998 39.9998 8.7998C22.7685 8.7998 8.7998 22.7685 8.7998 39.9998C8.7998 57.2311 22.7685 71.1998 39.9998 71.1998Z" fill="#2E2E30"/>
<path d="M42.1005 23.3928C42.1798 23.404 42.259 23.4151 42.3382 23.4262C42.4966 23.4485 42.7343 23.4819 42.8928 23.5042L43.7591 21.3639C44.0177 20.6732 44.165 20.7747 44.1552 21.4196L44.0811 23.6712C44.3187 23.7046 44.6245 23.8283 44.8622 23.8617L45.955 21.8341C46.2817 21.2337 46.4402 21.256 46.34 21.969L45.949 24.176C46.1755 24.2887 46.4813 24.4124 46.7189 24.4458L48.0272 22.61C48.4331 22.0208 48.5804 22.1223 48.401 22.8241L47.7724 24.9978C47.9989 25.1104 48.3046 25.2342 48.52 25.426L49.9756 23.6917C50.4496 23.1928 50.5969 23.2943 50.3494 23.9058L49.4831 26.0461C49.6985 26.2379 49.925 26.3506 50.1404 26.5424L51.8114 24.9999C52.3646 24.5122 52.5119 24.6137 52.1741 25.2933L51.0924 27.2417C51.3078 27.4335 51.5232 27.6254 51.6594 27.8061L53.5345 26.5347C54.0767 26.1262 54.224 26.2277 53.818 26.8169L52.4083 28.8C52.6237 28.9919 52.7599 29.1726 52.9642 29.4436L54.9644 28.4322C55.5746 28.114 55.7219 28.2155 55.2367 28.7936L53.7131 30.4375C53.8493 30.6182 54.0536 30.8893 54.1786 31.1492L56.315 30.3185C56.9933 30.0907 57.0503 30.2603 56.5081 30.6688L54.7691 32.1209C54.8942 32.3808 55.0192 32.6407 55.1442 32.9007L57.3265 32.3187C57.9936 32.1701 58.0506 32.3397 57.5196 32.669L55.6444 33.9404C55.7694 34.2003 55.8153 34.4491 55.9403 34.7091L58.1684 34.3759C58.8244 34.3065 58.9606 34.4873 58.2711 34.7943L56.2709 35.8058C56.3167 36.0546 56.4418 36.3145 56.4764 36.6425L58.66 36.6262C59.3841 36.6472 59.3618 36.8057 58.7627 37.0446L56.7167 37.8073C56.7625 38.0561 56.7972 38.3841 56.843 38.6329L59.0723 38.8654C59.7853 38.9656 59.7631 39.1241 59.0959 39.2727L56.9248 39.7754C56.9706 40.0242 56.9261 40.3411 56.8927 40.5787L58.9983 41.117C59.7001 41.2964 59.6778 41.4549 58.9426 41.5131L56.7257 41.7671C56.6923 42.0047 56.6477 42.3216 56.6143 42.5593C56.6143 42.5593 56.6143 42.5593 56.6032 42.6385L58.6865 43.3352C59.3772 43.5939 59.355 43.7523 58.6308 43.7313L56.4473 43.7476C56.4028 44.0645 56.2902 44.291 56.2456 44.6079L58.2052 45.6104C58.8056 45.9371 58.7833 46.0956 58.0703 45.9953L55.9313 45.6947C55.8187 45.9213 55.7742 46.2381 55.6615 46.4647L57.5085 47.6937C58.0977 48.0996 57.9962 48.2469 57.3736 48.0787L55.268 47.5404C55.1554 47.7669 55.0316 48.0727 54.919 48.2992L56.5741 49.7436C57.073 50.2176 57.0507 50.3761 56.36 50.1174L54.367 49.3526C54.1752 49.568 54.0514 49.8738 53.8596 50.0892L55.3339 51.6697C55.8328 52.1438 55.7202 52.3703 55.0406 52.0324L53.0464 50.702C52.8545 50.9174 52.6627 51.1328 52.4708 51.3481L53.7645 53.0649C54.173 53.607 54.0715 53.7543 53.4823 53.3484L51.7146 52.1305C51.5227 52.3459 51.3309 52.5613 51.071 52.6863L52.1839 54.5393C52.5021 55.1495 52.4006 55.2968 51.8225 54.8116L50.1674 53.3672C49.8963 53.5715 49.7156 53.7077 49.4557 53.8327L50.3087 55.8107C50.6158 56.5001 50.4462 56.5571 49.9584 56.0038L48.4841 54.4232C48.2241 54.5483 47.9642 54.6733 47.7043 54.7983L48.2974 56.9014C48.5252 57.5797 48.3556 57.6366 47.9471 57.0945L46.7438 55.3096C46.4838 55.4347 46.2239 55.5597 45.8847 55.6736L46.229 57.8225C46.3776 58.4896 46.2081 58.5466 45.8107 57.9252L44.7881 56.0042C44.5393 56.05 44.2001 56.164 43.9513 56.2098L44.0579 58.3252C44.1162 59.0605 43.8785 59.0271 43.6396 58.428L42.8435 56.6196C42.5947 56.6654 42.2667 56.7001 42.0179 56.7459L41.8757 58.9072C41.8547 59.6313 41.6171 59.5979 41.4685 58.9307L40.8754 56.8277C40.6266 56.8735 40.3097 56.829 39.9817 56.8637L39.5226 58.9804C39.4224 59.6934 39.1848 59.66 39.1154 59.0039L38.9407 56.7982C38.6238 56.7536 38.3861 56.7202 38.0581 56.7549L37.3614 58.8382C37.1027 59.5289 36.9443 59.5067 36.9653 58.7825L36.949 56.599C36.6321 56.5545 36.3944 56.5211 36.0887 56.3973L35.1654 58.368C34.9179 58.9795 34.6803 58.9461 34.7805 58.2331L35.0019 56.083C34.6961 55.9593 34.4584 55.9259 34.2319 55.8132L33.0029 57.6602C32.6762 58.2605 32.4385 58.2271 32.6179 57.5253L33.077 55.4086C32.8505 55.2959 32.5447 55.1722 32.3182 55.0596L30.9419 56.805C30.5359 57.3942 30.3094 57.2816 30.568 56.5909L31.2647 54.5076C31.0382 54.395 30.8228 54.2031 30.5171 54.0793L28.9254 55.633C28.4513 56.1318 28.304 56.0303 28.5515 55.4188L29.554 53.4593C29.3386 53.2674 29.1232 53.0756 28.8967 52.963L27.1688 54.3359C26.6267 54.7444 26.4793 54.6429 26.8853 54.0537L28.1143 52.2067C27.8989 52.0149 27.6835 51.823 27.5585 51.5631L25.7278 52.5176C25.1065 52.915 24.9703 52.7343 25.4443 52.2354L26.8206 50.49C26.6052 50.2981 26.4802 50.0382 26.344 49.8575L24.3549 50.7897C23.7447 51.1079 23.6085 50.9272 24.0826 50.4283L25.6743 48.8747C25.5492 48.6148 25.4131 48.4341 25.288 48.1741L23.1739 48.8465C22.4956 49.0743 22.4386 48.9047 22.9808 48.4962L24.7879 47.1344C24.6628 46.8745 24.5378 46.6145 24.492 46.3657L22.332 46.7893C21.6648 46.9379 21.6079 46.7683 22.2292 46.3709L24.1614 45.2691C24.0363 45.0091 23.9905 44.7603 23.9447 44.5115L21.5805 44.664C20.8452 44.7222 20.7883 44.5526 21.4777 44.2456L23.5349 43.4037C23.4891 43.1549 23.4544 42.8269 23.4086 42.5781L21.157 42.504C20.4328 42.483 20.4551 42.3246 21.1334 42.0968L23.2475 41.4245C23.2017 41.1757 23.2463 40.8588 23.2004 40.61L20.9934 40.219C20.2804 40.1188 20.3138 39.8812 20.9698 39.8118L23.209 39.3994C23.2424 39.1617 23.2077 38.8337 23.2411 38.5961L21.0675 37.9674C20.3656 37.788 20.399 37.5503 21.1231 37.5713L23.397 37.487C23.4304 37.2493 23.4749 36.9324 23.5083 36.6947L21.4473 35.8396C20.8358 35.5921 20.8692 35.3544 21.5822 35.4546L23.8226 35.6079C23.8561 35.3702 23.9798 35.0645 24.0924 34.838L22.144 33.7563C21.5436 33.4295 21.5659 33.2711 22.2789 33.3713L24.486 33.7623C24.5986 33.5357 24.7223 33.23 24.835 33.0034L22.9992 31.6952C22.4099 31.2893 22.5114 31.142 23.2133 31.3214L25.3758 32.0292C25.4884 31.8027 25.6803 31.5873 25.7929 31.3608L24.149 29.8372C23.6501 29.3631 23.7516 29.2158 24.3631 29.4633L26.413 30.3977C26.6048 30.1823 26.7174 29.9558 26.9093 29.7404L25.4572 28.0014C24.9694 27.4481 25.1501 27.3119 25.7394 27.7179L27.6767 28.8788C27.8685 28.6634 28.0492 28.5272 28.2411 28.3118L26.9808 26.3574C26.5834 25.7361 26.753 25.6791 27.263 26.0739L29.0877 27.4614C29.2795 27.246 29.5394 27.1209 29.7313 26.9055L28.7532 24.6676C28.4351 24.0574 28.6158 23.9212 29.1146 24.3953L30.7475 25.9981C30.9282 25.862 31.1881 25.7369 31.448 25.6119L30.6965 23.4866C30.4687 22.8083 30.6383 22.7513 31.0468 23.2935L32.4878 25.1117C32.7477 24.9867 33.0076 24.8616 33.1883 24.7255L32.6967 22.4751C32.5481 21.808 32.7177 21.751 33.1262 22.2931L34.3073 24.2364C34.5672 24.1114 34.816 24.0656 35.0648 24.0197L34.822 21.7236C34.7638 20.9883 34.9334 20.9314 35.2404 21.6208L36.1615 23.6892C36.4103 23.6433 36.6591 23.5975 36.9079 23.5517L36.982 21.3001C37.003 20.576 37.1614 20.5982 37.3892 21.2765L38.0504 23.4699C38.2992 23.4241 38.6272 23.3894 38.8649 23.4228L39.1878 21.1254C39.288 20.4124 39.4464 20.4346 39.595 21.1018L40.0866 23.3521C40.3243 23.3855 40.6523 23.3509 40.8899 23.3843L41.4394 21.1995C41.6188 20.4976 41.7772 20.5199 41.8355 21.2551L42.1005 23.3928ZM38.0851 53.6888C45.6111 54.7465 52.5685 49.5038 53.6262 41.9777C54.6839 34.4517 49.4412 27.4944 41.9151 26.4366C34.3891 25.3789 27.3636 30.5313 26.3059 38.0573C25.2482 45.5834 30.559 52.6311 38.0851 53.6888Z" fill="black"/>
<path d="M42.1005 23.3928C42.1798 23.404 42.259 23.4151 42.3382 23.4262C42.4966 23.4485 42.7343 23.4819 42.8928 23.5042L43.7591 21.3639C44.0177 20.6732 44.165 20.7747 44.1552 21.4196L44.0811 23.6712C44.3187 23.7046 44.6245 23.8283 44.8622 23.8617L45.955 21.8341C46.2817 21.2337 46.4402 21.256 46.34 21.969L45.949 24.176C46.1755 24.2887 46.4813 24.4124 46.7189 24.4458L48.0272 22.61C48.4331 22.0208 48.5804 22.1223 48.401 22.8241L47.7724 24.9978C47.9989 25.1104 48.3046 25.2342 48.52 25.426L49.9756 23.6917C50.4496 23.1928 50.5969 23.2943 50.3494 23.9058L49.4831 26.0461C49.6985 26.2379 49.925 26.3506 50.1404 26.5424L51.8114 24.9999C52.3646 24.5122 52.5119 24.6137 52.1741 25.2933L51.0924 27.2417C51.3078 27.4335 51.5232 27.6254 51.6594 27.8061L53.5345 26.5347C54.0767 26.1262 54.224 26.2277 53.818 26.8169L52.4083 28.8C52.6237 28.9919 52.7599 29.1726 52.9642 29.4436L54.9644 28.4322C55.5746 28.114 55.7219 28.2155 55.2367 28.7936L53.7131 30.4375C53.8493 30.6182 54.0536 30.8893 54.1786 31.1492L56.315 30.3185C56.9933 30.0907 57.0503 30.2603 56.5081 30.6688L54.7691 32.1209C54.8942 32.3808 55.0192 32.6407 55.1442 32.9007L57.3265 32.3187C57.9936 32.1701 58.0506 32.3397 57.5196 32.669L55.6444 33.9404C55.7694 34.2003 55.8153 34.4491 55.9403 34.7091L58.1684 34.3759C58.8244 34.3065 58.9606 34.4873 58.2711 34.7943L56.2709 35.8058C56.3167 36.0546 56.4418 36.3145 56.4764 36.6425L58.66 36.6262C59.3841 36.6472 59.3618 36.8057 58.7627 37.0446L56.7167 37.8073C56.7625 38.0561 56.7972 38.3841 56.843 38.6329L59.0723 38.8654C59.7853 38.9656 59.7631 39.1241 59.0959 39.2727L56.9248 39.7754C56.9706 40.0242 56.9261 40.3411 56.8927 40.5787L58.9983 41.117C59.7001 41.2964 59.6778 41.4549 58.9426 41.5131L56.7257 41.7671C56.6923 42.0047 56.6477 42.3216 56.6143 42.5593C56.6143 42.5593 56.6143 42.5593 56.6032 42.6385L58.6865 43.3352C59.3772 43.5939 59.355 43.7523 58.6308 43.7313L56.4473 43.7476C56.4028 44.0645 56.2902 44.291 56.2456 44.6079L58.2052 45.6104C58.8056 45.9371 58.7833 46.0956 58.0703 45.9953L55.9313 45.6947C55.8187 45.9213 55.7742 46.2381 55.6615 46.4647L57.5085 47.6937C58.0977 48.0996 57.9962 48.2469 57.3736 48.0787L55.268 47.5404C55.1554 47.7669 55.0316 48.0727 54.919 48.2992L56.5741 49.7436C57.073 50.2176 57.0507 50.3761 56.36 50.1174L54.367 49.3526C54.1752 49.568 54.0514 49.8738 53.8596 50.0892L55.3339 51.6697C55.8328 52.1438 55.7202 52.3703 55.0406 52.0324L53.0464 50.702C52.8545 50.9174 52.6627 51.1328 52.4708 51.3481L53.7645 53.0649C54.173 53.607 54.0715 53.7543 53.4823 53.3484L51.7146 52.1305C51.5227 52.3459 51.3309 52.5613 51.071 52.6863L52.1839 54.5393C52.5021 55.1495 52.4006 55.2968 51.8225 54.8116L50.1674 53.3672C49.8963 53.5715 49.7156 53.7077 49.4557 53.8327L50.3087 55.8107C50.6158 56.5001 50.4462 56.5571 49.9584 56.0038L48.4841 54.4232C48.2241 54.5483 47.9642 54.6733 47.7043 54.7983L48.2974 56.9014C48.5252 57.5797 48.3556 57.6366 47.9471 57.0945L46.7438 55.3096C46.4838 55.4347 46.2239 55.5597 45.8847 55.6736L46.229 57.8225C46.3776 58.4896 46.2081 58.5466 45.8107 57.9252L44.7881 56.0042C44.5393 56.05 44.2001 56.164 43.9513 56.2098L44.0579 58.3252C44.1162 59.0605 43.8785 59.0271 43.6396 58.428L42.8435 56.6196C42.5947 56.6654 42.2667 56.7001 42.0179 56.7459L41.8757 58.9072C41.8547 59.6313 41.6171 59.5979 41.4685 58.9307L40.8754 56.8277C40.6266 56.8735 40.3097 56.829 39.9817 56.8637L39.5226 58.9804C39.4224 59.6934 39.1848 59.66 39.1154 59.0039L38.9407 56.7982C38.6238 56.7536 38.3861 56.7202 38.0581 56.7549L37.3614 58.8382C37.1027 59.5289 36.9443 59.5067 36.9653 58.7825L36.949 56.599C36.6321 56.5545 36.3944 56.5211 36.0887 56.3973L35.1654 58.368C34.9179 58.9795 34.6803 58.9461 34.7805 58.2331L35.0019 56.083C34.6961 55.9593 34.4584 55.9259 34.2319 55.8132L33.0029 57.6602C32.6762 58.2605 32.4385 58.2271 32.6179 57.5253L33.077 55.4086C32.8505 55.2959 32.5447 55.1722 32.3182 55.0596L30.9419 56.805C30.5359 57.3942 30.3094 57.2816 30.568 56.5909L31.2647 54.5076C31.0382 54.395 30.8228 54.2031 30.5171 54.0793L28.9254 55.633C28.4513 56.1318 28.304 56.0303 28.5515 55.4188L29.554 53.4593C29.3386 53.2674 29.1232 53.0756 28.8967 52.963L27.1688 54.3359C26.6267 54.7444 26.4793 54.6429 26.8853 54.0537L28.1143 52.2067C27.8989 52.0149 27.6835 51.823 27.5585 51.5631L25.7278 52.5176C25.1065 52.915 24.9703 52.7343 25.4443 52.2354L26.8206 50.49C26.6052 50.2981 26.4802 50.0382 26.344 49.8575L24.3549 50.7897C23.7447 51.1079 23.6085 50.9272 24.0826 50.4283L25.6743 48.8747C25.5492 48.6148 25.4131 48.4341 25.288 48.1741L23.1739 48.8465C22.4956 49.0743 22.4386 48.9047 22.9808 48.4962L24.7879 47.1344C24.6628 46.8745 24.5378 46.6145 24.492 46.3657L22.332 46.7893C21.6648 46.9379 21.6079 46.7683 22.2292 46.3709L24.1614 45.2691C24.0363 45.0091 23.9905 44.7603 23.9447 44.5115L21.5805 44.664C20.8452 44.7222 20.7883 44.5526 21.4777 44.2456L23.5349 43.4037C23.4891 43.1549 23.4544 42.8269 23.4086 42.5781L21.157 42.504C20.4328 42.483 20.4551 42.3246 21.1334 42.0968L23.2475 41.4245C23.2017 41.1757 23.2463 40.8588 23.2004 40.61L20.9934 40.219C20.2804 40.1188 20.3138 39.8812 20.9698 39.8118L23.209 39.3994C23.2424 39.1617 23.2077 38.8337 23.2411 38.5961L21.0675 37.9674C20.3656 37.788 20.399 37.5503 21.1231 37.5713L23.397 37.487C23.4304 37.2493 23.4749 36.9324 23.5083 36.6947L21.4473 35.8396C20.8358 35.5921 20.8692 35.3544 21.5822 35.4546L23.8226 35.6079C23.8561 35.3702 23.9798 35.0645 24.0924 34.838L22.144 33.7563C21.5436 33.4295 21.5659 33.2711 22.2789 33.3713L24.486 33.7623C24.5986 33.5357 24.7223 33.23 24.835 33.0034L22.9992 31.6952C22.4099 31.2893 22.5114 31.142 23.2133 31.3214L25.3758 32.0292C25.4884 31.8027 25.6803 31.5873 25.7929 31.3608L24.149 29.8372C23.6501 29.3631 23.7516 29.2158 24.3631 29.4633L26.413 30.3977C26.6048 30.1823 26.7174 29.9558 26.9093 29.7404L25.4572 28.0014C24.9694 27.4481 25.1501 27.3119 25.7394 27.7179L27.6767 28.8788C27.8685 28.6634 28.0492 28.5272 28.2411 28.3118L26.9808 26.3574C26.5834 25.7361 26.753 25.6791 27.263 26.0739L29.0877 27.4614C29.2795 27.246 29.5394 27.1209 29.7313 26.9055L28.7532 24.6676C28.4351 24.0574 28.6158 23.9212 29.1146 24.3953L30.7475 25.9981C30.9282 25.862 31.1881 25.7369 31.448 25.6119L30.6965 23.4866C30.4687 22.8083 30.6383 22.7513 31.0468 23.2935L32.4878 25.1117C32.7477 24.9867 33.0076 24.8616 33.1883 24.7255L32.6967 22.4751C32.5481 21.808 32.7177 21.751 33.1262 22.2931L34.3073 24.2364C34.5672 24.1114 34.816 24.0656 35.0648 24.0197L34.822 21.7236C34.7638 20.9883 34.9334 20.9314 35.2404 21.6208L36.1615 23.6892C36.4103 23.6433 36.6591 23.5975 36.9079 23.5517L36.982 21.3001C37.003 20.576 37.1614 20.5982 37.3892 21.2765L38.0504 23.4699C38.2992 23.4241 38.6272 23.3894 38.8649 23.4228L39.1878 21.1254C39.288 20.4124 39.4464 20.4346 39.595 21.1018L40.0866 23.3521C40.3243 23.3855 40.6523 23.3509 40.8899 23.3843L41.4394 21.1995C41.6188 20.4976 41.7772 20.5199 41.8355 21.2551L42.1005 23.3928ZM38.0851 53.6888C45.6111 54.7465 52.5685 49.5038 53.6262 41.9777C54.6839 34.4517 49.4412 27.4944 41.9151 26.4366C34.3891 25.3789 27.3636 30.5313 26.3059 38.0573C25.2482 45.5834 30.559 52.6311 38.0851 53.6888Z" fill="#7F7F7F"/>
<path d="M42.1005 23.3928C42.1798 23.404 42.259 23.4151 42.3382 23.4262C42.4966 23.4485 42.7343 23.4819 42.8928 23.5042L43.7591 21.3639C44.0177 20.6732 44.165 20.7747 44.1552 21.4196L44.0811 23.6712C44.3187 23.7046 44.6245 23.8283 44.8622 23.8617L45.955 21.8341C46.2817 21.2337 46.4402 21.256 46.34 21.969L45.949 24.176C46.1755 24.2887 46.4813 24.4124 46.7189 24.4458L48.0272 22.61C48.4331 22.0208 48.5804 22.1223 48.401 22.8241L47.7724 24.9978C47.9989 25.1104 48.3046 25.2342 48.52 25.426L49.9756 23.6917C50.4496 23.1928 50.5969 23.2943 50.3494 23.9058L49.4831 26.0461C49.6985 26.2379 49.925 26.3506 50.1404 26.5424L51.8114 24.9999C52.3646 24.5122 52.5119 24.6137 52.1741 25.2933L51.0924 27.2417C51.3078 27.4335 51.5232 27.6254 51.6594 27.8061L53.5345 26.5347C54.0767 26.1262 54.224 26.2277 53.818 26.8169L52.4083 28.8C52.6237 28.9919 52.7599 29.1726 52.9642 29.4436L54.9644 28.4322C55.5746 28.114 55.7219 28.2155 55.2367 28.7936L53.7131 30.4375C53.8493 30.6182 54.0536 30.8893 54.1786 31.1492L56.315 30.3185C56.9933 30.0907 57.0503 30.2603 56.5081 30.6688L54.7691 32.1209C54.8942 32.3808 55.0192 32.6407 55.1442 32.9007L57.3265 32.3187C57.9936 32.1701 58.0506 32.3397 57.5196 32.669L55.6444 33.9404C55.7694 34.2003 55.8153 34.4491 55.9403 34.7091L58.1684 34.3759C58.8244 34.3065 58.9606 34.4873 58.2711 34.7943L56.2709 35.8058C56.3167 36.0546 56.4418 36.3145 56.4764 36.6425L58.66 36.6262C59.3841 36.6472 59.3618 36.8057 58.7627 37.0446L56.7167 37.8073C56.7625 38.0561 56.7972 38.3841 56.843 38.6329L59.0723 38.8654C59.7853 38.9656 59.7631 39.1241 59.0959 39.2727L56.9248 39.7754C56.9706 40.0242 56.9261 40.3411 56.8927 40.5787L58.9983 41.117C59.7001 41.2964 59.6778 41.4549 58.9426 41.5131L56.7257 41.7671C56.6923 42.0047 56.6477 42.3216 56.6143 42.5593C56.6143 42.5593 56.6143 42.5593 56.6032 42.6385L58.6865 43.3352C59.3772 43.5939 59.355 43.7523 58.6308 43.7313L56.4473 43.7476C56.4028 44.0645 56.2902 44.291 56.2456 44.6079L58.2052 45.6104C58.8056 45.9371 58.7833 46.0956 58.0703 45.9953L55.9313 45.6947C55.8187 45.9213 55.7742 46.2381 55.6615 46.4647L57.5085 47.6937C58.0977 48.0996 57.9962 48.2469 57.3736 48.0787L55.268 47.5404C55.1554 47.7669 55.0316 48.0727 54.919 48.2992L56.5741 49.7436C57.073 50.2176 57.0507 50.3761 56.36 50.1174L54.367 49.3526C54.1752 49.568 54.0514 49.8738 53.8596 50.0892L55.3339 51.6697C55.8328 52.1438 55.7202 52.3703 55.0406 52.0324L53.0464 50.702C52.8545 50.9174 52.6627 51.1328 52.4708 51.3481L53.7645 53.0649C54.173 53.607 54.0715 53.7543 53.4823 53.3484L51.7146 52.1305C51.5227 52.3459 51.3309 52.5613 51.071 52.6863L52.1839 54.5393C52.5021 55.1495 52.4006 55.2968 51.8225 54.8116L50.1674 53.3672C49.8963 53.5715 49.7156 53.7077 49.4557 53.8327L50.3087 55.8107C50.6158 56.5001 50.4462 56.5571 49.9584 56.0038L48.4841 54.4232C48.2241 54.5483 47.9642 54.6733 47.7043 54.7983L48.2974 56.9014C48.5252 57.5797 48.3556 57.6366 47.9471 57.0945L46.7438 55.3096C46.4838 55.4347 46.2239 55.5597 45.8847 55.6736L46.229 57.8225C46.3776 58.4896 46.2081 58.5466 45.8107 57.9252L44.7881 56.0042C44.5393 56.05 44.2001 56.164 43.9513 56.2098L44.0579 58.3252C44.1162 59.0605 43.8785 59.0271 43.6396 58.428L42.8435 56.6196C42.5947 56.6654 42.2667 56.7001 42.0179 56.7459L41.8757 58.9072C41.8547 59.6313 41.6171 59.5979 41.4685 58.9307L40.8754 56.8277C40.6266 56.8735 40.3097 56.829 39.9817 56.8637L39.5226 58.9804C39.4224 59.6934 39.1848 59.66 39.1154 59.0039L38.9407 56.7982C38.6238 56.7536 38.3861 56.7202 38.0581 56.7549L37.3614 58.8382C37.1027 59.5289 36.9443 59.5067 36.9653 58.7825L36.949 56.599C36.6321 56.5545 36.3944 56.5211 36.0887 56.3973L35.1654 58.368C34.9179 58.9795 34.6803 58.9461 34.7805 58.2331L35.0019 56.083C34.6961 55.9593 34.4584 55.9259 34.2319 55.8132L33.0029 57.6602C32.6762 58.2605 32.4385 58.2271 32.6179 57.5253L33.077 55.4086C32.8505 55.2959 32.5447 55.1722 32.3182 55.0596L30.9419 56.805C30.5359 57.3942 30.3094 57.2816 30.568 56.5909L31.2647 54.5076C31.0382 54.395 30.8228 54.2031 30.5171 54.0793L28.9254 55.633C28.4513 56.1318 28.304 56.0303 28.5515 55.4188L29.554 53.4593C29.3386 53.2674 29.1232 53.0756 28.8967 52.963L27.1688 54.3359C26.6267 54.7444 26.4793 54.6429 26.8853 54.0537L28.1143 52.2067C27.8989 52.0149 27.6835 51.823 27.5585 51.5631L25.7278 52.5176C25.1065 52.915 24.9703 52.7343 25.4443 52.2354L26.8206 50.49C26.6052 50.2981 26.4802 50.0382 26.344 49.8575L24.3549 50.7897C23.7447 51.1079 23.6085 50.9272 24.0826 50.4283L25.6743 48.8747C25.5492 48.6148 25.4131 48.4341 25.288 48.1741L23.1739 48.8465C22.4956 49.0743 22.4386 48.9047 22.9808 48.4962L24.7879 47.1344C24.6628 46.8745 24.5378 46.6145 24.492 46.3657L22.332 46.7893C21.6648 46.9379 21.6079 46.7683 22.2292 46.3709L24.1614 45.2691C24.0363 45.0091 23.9905 44.7603 23.9447 44.5115L21.5805 44.664C20.8452 44.7222 20.7883 44.5526 21.4777 44.2456L23.5349 43.4037C23.4891 43.1549 23.4544 42.8269 23.4086 42.5781L21.157 42.504C20.4328 42.483 20.4551 42.3246 21.1334 42.0968L23.2475 41.4245C23.2017 41.1757 23.2463 40.8588 23.2004 40.61L20.9934 40.219C20.2804 40.1188 20.3138 39.8812 20.9698 39.8118L23.209 39.3994C23.2424 39.1617 23.2077 38.8337 23.2411 38.5961L21.0675 37.9674C20.3656 37.788 20.399 37.5503 21.1231 37.5713L23.397 37.487C23.4304 37.2493 23.4749 36.9324 23.5083 36.6947L21.4473 35.8396C20.8358 35.5921 20.8692 35.3544 21.5822 35.4546L23.8226 35.6079C23.8561 35.3702 23.9798 35.0645 24.0924 34.838L22.144 33.7563C21.5436 33.4295 21.5659 33.2711 22.2789 33.3713L24.486 33.7623C24.5986 33.5357 24.7223 33.23 24.835 33.0034L22.9992 31.6952C22.4099 31.2893 22.5114 31.142 23.2133 31.3214L25.3758 32.0292C25.4884 31.8027 25.6803 31.5873 25.7929 31.3608L24.149 29.8372C23.6501 29.3631 23.7516 29.2158 24.3631 29.4633L26.413 30.3977C26.6048 30.1823 26.7174 29.9558 26.9093 29.7404L25.4572 28.0014C24.9694 27.4481 25.1501 27.3119 25.7394 27.7179L27.6767 28.8788C27.8685 28.6634 28.0492 28.5272 28.2411 28.3118L26.9808 26.3574C26.5834 25.7361 26.753 25.6791 27.263 26.0739L29.0877 27.4614C29.2795 27.246 29.5394 27.1209 29.7313 26.9055L28.7532 24.6676C28.4351 24.0574 28.6158 23.9212 29.1146 24.3953L30.7475 25.9981C30.9282 25.862 31.1881 25.7369 31.448 25.6119L30.6965 23.4866C30.4687 22.8083 30.6383 22.7513 31.0468 23.2935L32.4878 25.1117C32.7477 24.9867 33.0076 24.8616 33.1883 24.7255L32.6967 22.4751C32.5481 21.808 32.7177 21.751 33.1262 22.2931L34.3073 24.2364C34.5672 24.1114 34.816 24.0656 35.0648 24.0197L34.822 21.7236C34.7638 20.9883 34.9334 20.9314 35.2404 21.6208L36.1615 23.6892C36.4103 23.6433 36.6591 23.5975 36.9079 23.5517L36.982 21.3001C37.003 20.576 37.1614 20.5982 37.3892 21.2765L38.0504 23.4699C38.2992 23.4241 38.6272 23.3894 38.8649 23.4228L39.1878 21.1254C39.288 20.4124 39.4464 20.4346 39.595 21.1018L40.0866 23.3521C40.3243 23.3855 40.6523 23.3509 40.8899 23.3843L41.4394 21.1995C41.6188 20.4976 41.7772 20.5199 41.8355 21.2551L42.1005 23.3928ZM38.0851 53.6888C45.6111 54.7465 52.5685 49.5038 53.6262 41.9777C54.6839 34.4517 49.4412 27.4944 41.9151 26.4366C34.3891 25.3789 27.3636 30.5313 26.3059 38.0573C25.2482 45.5834 30.559 52.6311 38.0851 53.6888Z" fill="#777777"/>
<path d="M68.08 41.4396C69.12 41.2796 69.12 41.0396 68.08 40.7996L65.12 40.2396C65.12 40.1596 65.12 40.0796 65.12 39.9996C65.12 39.5996 65.12 39.1996 65.12 38.7996L68 38.0796C69.04 37.8396 68.96 37.5196 67.92 37.4396L64.96 37.1996C64.88 36.7196 64.88 36.3196 64.8 35.8396L67.6 34.7996C68.56 34.3996 68.56 34.1596 67.52 34.1596L64.56 34.2396C64.48 33.7596 64.32 33.3596 64.24 32.8796L66.88 31.5196C67.84 31.0396 67.68 30.7996 66.72 30.9596L63.76 31.4396C63.6 31.0396 63.44 30.5596 63.28 30.1596L65.76 28.4796C66.64 27.8396 66.48 27.5996 65.52 27.9196L62.64 28.7196C62.4 28.3196 62.24 27.9196 62 27.5196L64.24 25.5196C65.04 24.7996 64.88 24.5596 63.92 24.9596L61.2 26.0796C60.96 25.6796 60.64 25.2796 60.4 24.9596L62.4 22.7196C63.12 21.9196 62.96 21.7596 62 22.2396L59.2 23.6796C58.88 23.3596 58.64 22.9596 58.32 22.6396L60.08 20.1596C60.72 19.2796 60.48 19.1196 59.6 19.6796L57.2 21.4396C56.88 21.1196 56.56 20.7996 56.16 20.5596L57.6 17.9196C58.08 16.9596 57.84 16.7996 57.12 17.5196L54.96 19.5196C54.56 19.2796 54.24 18.9596 53.84 18.7196L54.96 15.9196C55.36 14.9596 55.12 14.7996 54.4 15.5996L52.48 17.8396C52.08 17.5996 51.68 17.4396 51.28 17.1996L52 14.3196C52.24 13.2796 52 13.1996 51.44 14.0796L49.84 16.5596C49.44 16.3996 48.96 16.2396 48.56 16.0796L48.96 13.1196C49.12 12.0796 48.88 11.9996 48.4 12.9596L47.04 15.5996C46.64 15.4396 46.16 15.3596 45.68 15.2796L45.76 12.3196C45.76 11.2796 45.52 11.1996 45.12 12.2396L44.08 15.0396C43.6 14.9596 43.2 14.8796 42.72 14.8796L42.24 11.9996C42.16 10.9596 41.84 10.9596 41.6 11.9196L40.88 14.7996C40.56 14.7996 40.24 14.7996 39.92 14.7996C39.76 14.7996 39.6 14.7996 39.52 14.7996L38.88 11.8396C38.64 10.7996 38.4 10.7996 38.24 11.8396L37.92 14.7996C37.44 14.7996 37.04 14.8796 36.56 14.9596L35.52 12.1596C35.2 11.1996 34.88 11.1996 34.88 12.2396L34.96 15.1996C34.48 15.2796 34.08 15.3596 33.6 15.5196L32.32 12.7996C31.84 11.8396 31.6 11.9196 31.68 12.9596L32 15.9196C31.6 16.0796 31.12 16.2396 30.72 16.3996L29.12 13.9196C28.56 13.0396 28.32 13.1196 28.56 14.1596L29.28 17.0396C28.88 17.1996 28.48 17.4396 28.08 17.6796L26.16 15.3596C25.52 14.5596 25.28 14.7196 25.6 15.6796L26.64 18.4796C26.24 18.7196 25.84 18.9596 25.52 19.1996L23.36 17.1196C22.56 16.3996 22.4 16.5596 22.88 17.5196L24.24 20.1596C23.92 20.4796 23.52 20.7196 23.2 21.0396L20.8 19.2796C19.92 18.6396 19.76 18.8796 20.32 19.6796L22 22.1596C21.68 22.4796 21.36 22.7996 21.04 23.1996L18.48 21.6796C17.6 21.1196 17.36 21.3596 18.08 22.1596L20 24.3996C19.76 24.7196 19.44 25.1196 19.2 25.5196L16.48 24.3196C15.52 23.9196 15.36 24.1596 16.16 24.8796L18.4 26.8796C18.16 27.2796 17.92 27.6796 17.76 28.0796L14.88 27.2796C13.84 26.9596 13.76 27.2796 14.64 27.8396L17.04 29.5196C16.88 29.9196 16.64 30.3196 16.48 30.7996L13.52 30.3196C12.48 30.1596 12.4 30.3996 13.28 30.8796L15.92 32.3196C15.76 32.7196 15.68 33.1996 15.52 33.5996L12.56 33.5196C11.52 33.5196 11.44 33.7596 12.4 34.1596L15.2 35.1996C15.12 35.6796 15.04 36.0796 14.96 36.5596L12 36.9596C10.96 37.0396 10.96 37.2796 11.92 37.5996L14.8 38.3996C14.8 38.8796 14.72 39.2796 14.72 39.7596L11.76 40.3196C10.72 40.4796 10.72 40.7996 11.76 40.9596L14.72 41.3596C14.72 41.8396 14.8 42.2396 14.8 42.7196L11.92 43.5996C10.88 43.9196 10.96 44.1596 12 44.2396L14.96 44.3196C15.04 44.7996 15.12 45.1996 15.2 45.6796L12.48 46.9596C11.52 47.4396 11.6 47.6796 12.64 47.5996L15.6 47.2796C15.76 47.7596 15.84 48.1596 16 48.6396L13.44 50.1596C12.56 50.7196 12.64 50.9596 13.68 50.7196L16.64 50.0796C16.8 50.4796 17.04 50.8796 17.2 51.3596L14.88 53.1996C14.08 53.8396 14.16 54.0796 15.2 53.7596L18 52.7996C18.24 53.1996 18.48 53.5996 18.72 53.9996L16.8 55.9196C16.08 56.6396 16.24 56.8796 17.12 56.3996L19.84 55.1196C20.08 55.5196 20.4 55.8396 20.72 56.1596L18.88 58.4796C18.24 59.2796 18.4 59.5196 19.28 58.9596L21.76 57.3596C22.08 57.6796 22.4 57.9996 22.72 58.3196L21.2 60.8796C20.64 61.7596 20.88 61.9196 21.68 61.2796L24 59.3596C24.32 59.6796 24.72 59.9196 25.12 60.2396L23.84 62.9596C23.36 63.9196 23.6 64.0796 24.32 63.2796L26.4 61.1196C26.8 61.3596 27.2 61.5996 27.6 61.8396L26.64 64.6396C26.32 65.5996 26.56 65.7596 27.2 64.9596L29.04 62.5596C29.44 62.7196 29.84 62.9596 30.32 63.1196L29.76 66.0796C29.52 67.1196 29.84 67.1996 30.32 66.3196L31.84 63.7596C32.24 63.9196 32.72 64.0796 33.12 64.1596L32.8 67.1996C32.72 68.2396 32.96 68.3196 33.44 67.3596L34.64 64.6396C35.12 64.7196 35.52 64.7996 36 64.8796L36.16 67.8396C36.24 68.8796 36.48 68.8796 36.8 67.9196L37.6 65.0396C38.08 65.1196 38.56 65.1196 38.96 65.1196L39.44 68.0796C39.6 69.1196 39.84 69.1196 40.08 68.0796L40.64 65.1196C41.12 65.1196 41.52 65.1196 42 65.0396L42.8 67.9196C43.12 68.9596 43.36 68.8796 43.44 67.8396L43.6 64.8796C44.08 64.7996 44.48 64.7196 44.96 64.6396L46.08 67.3596C46.48 68.3196 46.72 68.2396 46.72 67.1996L46.4 64.3996C46.88 64.3196 47.28 64.1596 47.68 63.9996L49.2 66.5596C49.76 67.4396 50 67.3596 49.76 66.3196L49.2 63.3596C49.6 63.1996 50.08 63.0396 50.48 62.7996L52.24 65.1996C52.88 66.0796 53.12 65.9196 52.8 64.8796L52 62.1596C52.4 61.9196 52.8 61.6796 53.2 61.4396L55.2 63.5996C55.92 64.3996 56.16 64.2396 55.76 63.2796L54.56 60.5596C54.96 60.3196 55.28 59.9996 55.68 59.7596L58 61.6796C58.8 62.3196 59.04 62.1596 58.48 61.2796L56.96 58.7196C57.28 58.3996 57.6 58.0796 57.92 57.7596L60.4 59.3596C61.28 59.9196 61.44 59.7596 60.8 58.8796L58.96 56.5596C59.28 56.2396 59.52 55.8396 59.84 55.5196L62.56 56.8796C63.52 57.3596 63.68 57.1196 62.96 56.3996L60.8 54.2396C61.04 53.8396 61.28 53.5196 61.52 53.1196L64.32 54.0796C65.28 54.3996 65.44 54.1596 64.64 53.5196L62.32 51.6796C62.56 51.2796 62.72 50.8796 62.96 50.3996L65.84 51.0396C66.88 51.2796 66.96 51.0396 66.08 50.4796L63.52 48.8796C63.68 48.4796 63.84 47.9996 64 47.5996L66.96 47.9196C68 47.9996 68.08 47.7596 67.12 47.2796L64.4 45.9996C64.48 45.5196 64.64 45.1196 64.72 44.6396L67.68 44.5596C68.72 44.5596 68.8 44.2396 67.76 43.9196L64.96 43.1996C65.04 42.7196 65.04 42.3196 65.12 41.8396L68.08 41.4396ZM29.52 55.5196C28.72 56.9596 26.64 57.1196 25.36 56.3996C24.48 55.9196 22.4 53.9196 20.48 50.7996C18.72 47.5996 17.76 43.9996 17.76 40.0796C17.76 33.5196 20.56 27.6796 25.12 23.5996C26.56 22.7996 28.56 22.9596 29.36 24.3196L37.28 37.9196C37.92 39.0396 37.92 41.1996 37.2 42.3196L29.52 55.5196ZM57.12 54.0796C54.56 57.1196 51.28 59.5196 47.44 60.8796C42.48 62.3196 36 62.3996 33.52 61.0396C31.84 60.2396 31.2 58.4796 32 57.0396L39.84 43.4396C40.48 42.3196 42.16 41.3596 43.44 41.3596H58.72C60.4 41.3596 61.52 42.7996 61.52 44.2396C61.52 45.5196 60.48 49.9196 57.12 54.0796ZM38.8 39.9996C38.8 39.3596 39.36 38.7996 40 38.7996C40.64 38.7996 41.2 39.3596 41.2 39.9996C41.2 40.6396 40.64 41.1996 40 41.1996C39.36 41.1996 38.8 40.6396 38.8 39.9996ZM59.04 38.5596H43.04C41.68 38.4796 40.08 37.3596 39.44 36.1596L31.84 22.9596C31.04 21.5196 31.92 19.9196 33.2 19.1996C34.08 18.7196 36.88 17.8396 40.56 17.8396C51.04 18.0796 59.68 25.6796 61.68 35.5996C61.92 37.2796 60.48 38.5596 59.04 38.5596Z" fill="url(#paint1_linear_2867_34704)"/>
<rect x="60" width="20" height="20" rx="10" fill="#FF3B30"/>
<path d="M63.3325 14V13.1782L65.9106 10.4819C66.2544 10.1239 66.5212 9.83024 66.7109 9.60107C66.9007 9.36833 67.0332 9.16064 67.1084 8.97803C67.1872 8.79541 67.2266 8.59847 67.2266 8.38721V8.37646C67.2266 8.12223 67.1711 7.89665 67.0601 7.69971C66.9526 7.49919 66.7969 7.34342 66.5928 7.23242C66.3887 7.11784 66.1452 7.06055 65.8623 7.06055C65.5758 7.06055 65.3234 7.11963 65.105 7.23779C64.8866 7.35596 64.7165 7.52067 64.5947 7.73193C64.473 7.9432 64.4121 8.19027 64.4121 8.47314V8.49463L63.2734 8.48926L63.2681 8.47852C63.2716 8.00586 63.3862 7.5887 63.6118 7.22705C63.8374 6.86182 64.1507 6.57715 64.5518 6.37305C64.9528 6.16536 65.4129 6.06152 65.9321 6.06152C66.4119 6.06152 66.8398 6.15641 67.2158 6.34619C67.5954 6.53239 67.8944 6.79199 68.1128 7.125C68.3312 7.45443 68.4404 7.83219 68.4404 8.2583V8.27441C68.4404 8.56803 68.3867 8.8527 68.2793 9.12842C68.1719 9.40413 67.9857 9.70671 67.7207 10.0361C67.4593 10.3656 67.0941 10.763 66.625 11.2285L64.6699 13.1782L64.9814 12.6357V13.1782L64.6753 12.9688H68.564V14H63.3325ZM72.7976 6.06152C73.1879 6.06152 73.5621 6.13493 73.9202 6.28174C74.2818 6.42497 74.6059 6.65413 74.8923 6.96924C75.1788 7.28076 75.4044 7.68717 75.5691 8.18848C75.7338 8.68978 75.8162 9.29671 75.8162 10.0093V10.02C75.8162 10.8937 75.6944 11.6421 75.4509 12.2651C75.2074 12.8846 74.8565 13.3608 74.3982 13.6938C73.9434 14.0233 73.3956 14.188 72.7546 14.188C72.2963 14.188 71.8827 14.1038 71.5139 13.9355C71.1487 13.7673 70.8443 13.5345 70.6008 13.2373C70.3573 12.9401 70.1926 12.5981 70.1067 12.2114L70.0906 12.147H71.2883L71.3098 12.2007C71.3814 12.3976 71.4853 12.5677 71.6213 12.7109C71.7574 12.8542 71.9203 12.967 72.1101 13.0493C72.2999 13.1281 72.5165 13.1675 72.76 13.1675C73.1933 13.1675 73.546 13.0404 73.8181 12.7861C74.0938 12.5283 74.2997 12.1864 74.4358 11.7603C74.5719 11.3341 74.6489 10.8651 74.6668 10.353C74.6703 10.2993 74.6721 10.2474 74.6721 10.1973C74.6721 10.1471 74.6721 10.0988 74.6721 10.0522L74.4358 8.75781C74.4358 8.44271 74.3624 8.15804 74.2156 7.90381C74.0724 7.64958 73.8772 7.44727 73.6301 7.29688C73.3866 7.14648 73.1127 7.07129 72.8084 7.07129C72.5076 7.07129 72.2337 7.14469 71.9866 7.2915C71.7431 7.43831 71.5479 7.63704 71.4011 7.8877C71.2543 8.13477 71.1809 8.41406 71.1809 8.72559V8.73633C71.1809 9.05143 71.2507 9.33252 71.3904 9.57959C71.53 9.82666 71.7216 10.0218 71.9651 10.165C72.2086 10.3047 72.4843 10.3745 72.7922 10.3745C73.1038 10.3745 73.3831 10.3047 73.6301 10.165C73.8772 10.0254 74.0724 9.83561 74.2156 9.5957C74.3624 9.35221 74.4358 9.07471 74.4358 8.76318V8.75781H74.7527V10.1704H74.5647C74.4716 10.3781 74.332 10.5715 74.1458 10.7505C73.9596 10.9295 73.7304 11.0745 73.4583 11.1855C73.1897 11.293 72.88 11.3467 72.5291 11.3467C72.0385 11.3467 71.6017 11.2357 71.2185 11.0137C70.8354 10.7881 70.5346 10.4819 70.3162 10.0952C70.0977 9.70492 69.9885 9.2627 69.9885 8.76855V8.75781C69.9885 8.23861 70.1085 7.77669 70.3484 7.37207C70.5919 6.96387 70.9249 6.64339 71.3474 6.41064C71.7735 6.1779 72.2569 6.06152 72.7976 6.06152Z" fill="white"/>
<defs>
<linearGradient id="paint0_linear_2867_34704" x1="39.9888" y1="4.0224" x2="39.9888" y2="75.9984" gradientUnits="userSpaceOnUse">
<stop stop-color="#D3D7DD"/>
<stop offset="1" stop-color="#888C90"/>
</linearGradient>
<linearGradient id="paint1_linear_2867_34704" x1="39.9842" y1="11.1566" x2="39.9842" y2="68.9225" gradientUnits="userSpaceOnUse">
<stop stop-color="#D9DADB"/>
<stop offset="1" stop-color="#7D8082"/>
</linearGradient>
</defs>
</svg>
