<svg width="139" height="69" viewBox="0 0 139 69" fill="none" xmlns="http://www.w3.org/2000/svg">
<path d="M23.2834 10.9147C22.2919 11.9762 21.9293 12.8125 21.9125 12.8081C21.9125 12.8178 22.8317 12.6774 24.1797 12.4204C25.5365 12.159 27.3212 11.7819 29.2814 11.1999C31.2292 10.6038 33.1268 9.89026 34.6309 9.33478C36.1209 8.77666 37.2166 8.37749 37.2007 8.36954C37.1998 8.38367 36.1562 7.90768 34.4518 7.61713C32.7633 7.32394 30.4123 7.2162 28.1513 7.90856C26.2912 8.46097 24.6112 9.49843 23.2834 10.9147ZM17.9145 15.9369C18.9537 14.8357 20.2999 13.4518 21.4697 12.0044C23.8021 9.13785 24.3367 6.53356 24.2926 6.5C24.3085 6.51325 22.9341 6.86208 21.3215 7.77344C19.7053 8.66362 17.8492 10.1172 16.8047 11.8578C14.7625 15.3178 16.129 17.7685 16.1272 17.8197C16.1563 17.8073 16.8867 17.0099 17.9145 15.9369ZM11.5399 28.1274C11.5557 28.1115 11.8963 27.0791 12.3603 25.6767C12.8234 24.2496 13.4118 22.4454 13.7638 20.6713C14.4705 17.1521 13.6377 14.6264 13.5962 14.6105C13.6112 14.6184 12.6655 15.4715 11.7225 16.9375C10.7715 18.3858 9.82226 20.4469 9.64759 22.4498C9.32206 26.4221 11.516 28.085 11.5399 28.1274ZM11.3537 39.47C11.3625 39.4515 11.2867 38.3591 11.1808 36.8772C11.0626 35.3759 10.9135 33.4772 10.5377 31.711C9.79844 28.2051 7.9935 26.2666 7.95468 26.2684C7.96968 26.2684 7.47831 27.4359 7.2066 29.165C6.9243 30.8818 6.86255 33.162 7.46684 35.0677C8.68425 38.8421 11.3158 39.4435 11.3528 39.4709L11.3537 39.47ZM15.5688 49.9384C15.5688 49.9172 15.0527 48.9528 14.3717 47.6423C13.6712 46.3176 12.8031 44.6406 11.7895 43.1808C9.78344 40.2772 7.40156 39.2616 7.36539 39.2793C7.3795 39.274 7.36715 40.5509 7.77296 42.2518C8.162 43.9447 8.96831 46.0624 10.2607 47.5531C12.8411 50.493 15.522 49.9304 15.5688 49.9384ZM21.9337 56.0716C20.6466 55.1788 19.0798 54.0316 17.5184 53.1335C14.4263 51.3434 11.861 51.4167 11.8283 51.4494C11.8424 51.4379 12.3347 52.6107 13.4189 53.9883C14.4828 55.366 16.1387 56.9485 18.0309 57.7442C21.7881 59.2958 24.1356 57.6391 24.1832 57.6206C24.1779 57.6029 23.1934 56.9626 21.9337 56.0716ZM33.8696 60.2681C31.9932 60.0624 29.7463 59.7427 27.7261 59.6261C23.7289 59.3815 21.3744 60.5375 21.3444 60.5843C21.3585 60.5666 22.3818 61.4109 24.148 62.1703C25.8894 62.9386 28.3745 63.6213 30.7749 63.4818C33.1735 63.359 34.8311 62.5801 35.8298 61.8975C36.839 61.2042 37.1883 60.6072 37.2007 60.6081C37.2095 60.594 35.7239 60.488 33.8696 60.2681ZM27.9943 14.4639C27.9563 14.4374 25.9326 12.5528 22.523 13.4951C20.8089 13.9799 19.2854 15.203 18.2991 16.3007C17.2961 17.3993 16.8312 18.3725 16.8188 18.361C16.8453 18.3911 19.3092 18.8282 22.1084 17.6863C23.5225 17.1123 24.9013 16.2857 26.0296 15.6278C27.1359 14.9681 27.9934 14.4762 27.9943 14.4639ZM12.3823 28.3296C12.4106 28.3472 14.8339 27.7096 16.8118 25.5231C17.8113 24.4218 18.629 23.1184 19.2757 22.0745C19.9047 21.0413 20.3652 20.2641 20.3643 20.2482C20.3219 20.2465 17.8227 19.3475 15.3323 21.5817C14.0858 22.7121 13.2716 24.4439 12.8561 25.8463C12.4264 27.2557 12.3947 28.3358 12.3823 28.3296ZM15.1983 34.8602C16.1254 32.0545 16.2975 28.6254 16.3398 28.5636C16.2922 28.5813 13.7056 28.8038 12.3215 31.8823C11.6307 33.4366 11.5469 35.3644 11.6978 36.8242C11.8389 38.2964 12.2138 39.2996 12.2015 39.2996C12.2324 39.304 14.2226 37.6941 15.1983 34.8602ZM16.2789 49.4244C16.3107 49.4156 17.4699 47.108 17.2652 44.0993C17.1637 42.5821 16.8012 41.0755 16.4942 39.8851C16.1819 38.7044 15.9269 37.8407 15.919 37.8433C15.9622 37.8371 13.5936 39.1185 13.4886 42.5839C13.4445 44.3015 14.1096 46.1031 14.8242 47.3747C15.5326 48.6623 16.2913 49.4191 16.2789 49.4244ZM18.8355 51.8706C19.528 53.4514 20.9615 54.7981 22.2372 55.6362C23.5093 56.4946 24.6235 56.8434 24.6102 56.8549C24.6455 56.8311 24.5802 54.2718 23.0144 51.641C22.2275 50.3137 21.2456 49.0977 20.4666 48.1439C19.6956 47.2105 19.1231 46.5331 19.1028 46.5243C19.094 46.5685 17.4796 48.7259 18.8355 51.8706ZM32.4457 55.887C30.8834 55.0666 29.2628 54.4158 28.0154 53.9009C26.7918 53.4064 25.93 53.0443 25.892 53.0399C25.9185 53.084 25.3715 55.7245 28.3612 57.9296C29.8795 59.0326 32.1017 59.5864 33.9348 59.7497C35.7689 59.9325 37.213 59.7259 37.1998 59.7427C37.2377 59.7029 35.5528 57.5102 32.4457 55.887ZM105.369 9.33478C106.874 9.89026 108.771 10.6038 110.719 11.1999C112.679 11.7819 114.464 12.159 115.821 12.4204C117.168 12.6774 118.089 12.8178 118.088 12.8081C118.071 12.8125 117.708 11.9762 116.716 10.9147C115.388 9.49852 113.708 8.46133 111.848 7.90944C109.587 7.2162 107.237 7.32394 105.547 7.61713C103.843 7.90768 102.8 8.38367 102.799 8.36954C102.783 8.37837 103.88 8.77666 105.369 9.33478ZM122.085 15.9369C123.113 17.0099 123.843 17.8073 123.872 17.8197C123.87 17.7676 125.237 15.317 123.195 11.8587C122.15 10.1172 120.295 8.66362 118.678 7.77344C117.065 6.86208 115.691 6.51325 115.706 6.5C115.663 6.53356 116.196 9.13785 118.53 12.0044C119.698 13.4518 121.046 14.8357 122.085 15.9369ZM127.638 25.6767C128.103 27.0791 128.444 28.1123 128.459 28.1274C128.483 28.085 130.677 26.4212 130.352 22.449C130.176 20.4469 129.228 18.3849 128.277 16.9366C127.333 15.4706 126.387 14.6175 126.402 14.6096C126.362 14.6255 125.529 17.1512 126.235 20.6704C126.587 22.4445 127.176 24.2496 127.638 25.6767ZM128.819 36.8772C128.713 38.3599 128.638 39.4515 128.646 39.4709C128.684 39.4444 131.317 38.8421 132.533 35.0677C133.138 33.1628 133.076 30.8818 132.793 29.1659C132.523 27.435 132.03 26.2693 132.045 26.2684C132.007 26.2666 130.202 28.2059 129.462 31.711C129.086 33.4772 128.937 35.3759 128.819 36.8772ZM128.212 43.1808C127.198 44.6406 126.33 46.3185 125.629 47.6423C124.948 48.9528 124.432 49.9172 124.432 49.9384C124.478 49.9296 127.159 50.4921 129.739 47.554C131.033 46.0624 131.839 43.9447 132.228 42.2518C132.633 40.5509 132.621 39.274 132.636 39.2793C132.599 39.2616 130.218 40.2772 128.212 43.1808ZM122.48 53.1335C120.919 54.0307 119.351 55.1788 118.064 56.0716C116.804 56.9635 115.821 57.6029 115.816 57.6214C115.864 57.6391 118.211 59.2958 121.968 57.7451C123.861 56.9485 125.516 55.3669 126.58 53.9892C127.664 52.6107 128.156 51.437 128.171 51.4494C128.137 51.4167 125.571 51.3434 122.48 53.1335ZM112.272 59.6261C110.253 59.7427 108.006 60.0615 106.129 60.2681C104.274 60.488 102.79 60.5949 102.799 60.6081C102.81 60.6072 103.16 61.2042 104.17 61.8975C105.168 62.5801 106.827 63.3599 109.224 63.4818C111.625 63.6213 114.11 62.9386 115.852 62.1703C117.617 61.4109 118.641 60.5657 118.656 60.5843C118.624 60.5375 116.269 59.3824 112.272 59.6261ZM123.181 18.361C123.169 18.3725 122.704 17.3993 121.7 16.3007C120.715 15.203 119.19 13.9799 117.477 13.4951C114.068 12.5528 112.044 14.4374 112.006 14.463C112.006 14.4754 112.864 14.9681 113.971 15.6278C115.099 16.2857 116.478 17.1123 117.892 17.6863C120.691 18.8282 123.156 18.3911 123.181 18.361ZM119.636 20.2482C119.635 20.2633 120.095 21.0395 120.724 22.0736C121.371 23.1175 122.189 24.4218 123.188 25.5222C125.166 27.7088 127.59 28.3464 127.618 28.3287C127.605 28.334 127.574 27.2548 127.144 25.8454C126.729 24.443 125.914 22.7112 124.668 21.58C122.177 19.3475 119.677 20.2474 119.636 20.2482ZM127.679 31.8823C126.295 28.8038 123.708 28.5813 123.66 28.5636C123.703 28.6254 123.875 32.0545 124.803 34.8602C125.779 37.695 127.767 39.304 127.798 39.2996C127.785 39.2996 128.161 38.2955 128.301 36.8242C128.453 35.3644 128.369 33.4366 127.679 31.8823ZM123.505 39.8851C123.199 41.0755 122.836 42.5821 122.734 44.0993C122.53 47.108 123.689 49.4156 123.721 49.4244C123.709 49.4191 124.467 48.6623 125.174 47.3747C125.89 46.1031 126.555 44.3015 126.511 42.5839C126.406 39.1185 124.038 37.8363 124.081 37.8433C124.073 37.8407 123.817 38.7044 123.505 39.8851ZM117.762 55.6371C119.038 54.7981 120.471 53.4514 121.164 51.8715C122.52 48.7268 120.904 46.5685 120.896 46.5243C120.876 46.5331 120.304 47.2105 119.532 48.1439C118.754 49.0977 117.771 50.3137 116.985 51.641C115.419 54.2727 115.353 56.8311 115.388 56.8549C115.376 56.8434 116.49 56.4955 117.762 55.6371ZM106.065 59.7497C107.898 59.5864 110.12 59.0326 111.639 57.9296C114.629 55.7236 114.082 53.084 114.107 53.0399C114.07 53.0434 113.207 53.4064 111.985 53.9009C110.737 54.4158 109.117 55.0666 107.554 55.8879C104.447 57.5102 102.762 59.7029 102.799 59.7427C102.787 59.7268 104.231 59.9325 106.065 59.7497Z" fill="url(#paint0_linear_2104_7204)"/>
<path d="M45.3253 30.6753V23.0831H42.6407V21.9109H49.3644V23.0831H46.6858V30.6753H45.3253ZM48.7709 30.6753V24.2857H50.0828V25.379H50.1132C50.3197 24.6319 50.8542 24.1642 51.583 24.1642C51.7713 24.1642 51.9353 24.1946 52.0386 24.2128V25.4337C51.9353 25.3911 51.7045 25.3608 51.4494 25.3608C50.6052 25.3608 50.0828 25.9135 50.0828 26.8671V30.6753H48.7709ZM54.6703 30.8028C53.2672 30.8028 52.4655 29.8979 52.4655 28.428V24.2857H53.7774V28.1729C53.7774 29.1386 54.2269 29.6731 55.1379 29.6731C56.0611 29.6731 56.6564 29.0111 56.6564 28.015V24.2857H57.9744V30.6753H56.6564V29.7156H56.626C56.2919 30.3595 55.6421 30.8028 54.6703 30.8028ZM61.3106 30.8028C59.7132 30.8028 58.7779 30.0133 58.6443 28.8471L58.6382 28.7924H59.938L59.9501 28.8532C60.0716 29.4423 60.5089 29.7885 61.3167 29.7885C62.1063 29.7885 62.58 29.4605 62.58 28.9443V28.9382C62.58 28.5252 62.3492 28.2883 61.6629 28.1243L60.6182 27.8874C59.4035 27.6081 58.8022 27.025 58.8022 26.0957V26.0896C58.8022 24.9478 59.7983 24.1642 61.2681 24.1642C62.7805 24.1642 63.6915 25.0085 63.7583 26.0957L63.7644 26.1686H62.5314L62.5254 26.1261C62.4464 25.5673 62.0091 25.1786 61.2681 25.1786C60.5636 25.1786 60.1202 25.5126 60.1202 26.0228V26.0289C60.1202 26.4237 60.3813 26.6909 61.0677 26.8549L62.1063 27.0918C63.4121 27.3955 63.9102 27.9117 63.9102 28.8289V28.8349C63.9102 30.0011 62.8169 30.8028 61.3106 30.8028ZM66.8152 30.8028C65.5519 30.8028 64.9445 30.2684 64.9445 28.9929V25.3304H64.0274V24.2857H64.9445V22.6215H66.2868V24.2857H67.4833V25.3304H66.2868V28.9139C66.2868 29.5638 66.5783 29.7582 67.131 29.7582C67.2707 29.7582 67.3861 29.746 67.4833 29.7339V30.7482C67.3315 30.7725 67.0824 30.8028 66.8152 30.8028ZM70.7831 30.8028C68.9063 30.8028 67.7705 29.5213 67.7705 27.5048V27.4987C67.7705 25.5005 68.9246 24.1642 70.7163 24.1642C72.5081 24.1642 73.6074 25.4519 73.6074 27.3712V27.8146H69.0825C69.1068 29.0232 69.7688 29.7278 70.8135 29.7278C71.5909 29.7278 72.1072 29.3269 72.2712 28.8471L72.2894 28.7985H73.5345L73.5224 28.8653C73.3159 29.8796 72.3319 30.8028 70.7831 30.8028ZM70.7224 25.2393C69.8721 25.2393 69.2161 25.8163 69.1007 26.8853H72.3076C72.1983 25.7799 71.5788 25.2393 70.7224 25.2393ZM76.6582 30.8028C75.0304 30.8028 73.9857 29.5152 73.9857 27.4805V27.4744C73.9857 25.4397 75.0426 24.1642 76.646 24.1642C77.551 24.1642 78.2799 24.6198 78.6625 25.3729H78.6868V21.9109H80.0048V30.6753H78.6868V29.5942H78.6625C78.2799 30.3412 77.5753 30.8028 76.6582 30.8028ZM77.0044 29.6731C77.9944 29.6731 78.6929 28.8107 78.6929 27.4805V27.4744C78.6929 26.1504 77.9883 25.2879 77.0044 25.2879C75.9719 25.2879 75.328 26.1261 75.328 27.4744V27.4805C75.328 28.841 75.9658 29.6731 77.0044 29.6731ZM86.5619 30.8028C85.6448 30.8028 84.9342 30.3412 84.5576 29.5942H84.5272V30.6753H83.2153V21.9109H84.5272V25.3729H84.5576C84.9402 24.6198 85.6691 24.1642 86.5741 24.1642C88.1775 24.1642 89.2344 25.4397 89.2344 27.4744V27.4805C89.2344 29.5152 88.1836 30.8028 86.5619 30.8028ZM86.2157 29.6731C87.2483 29.6731 87.8921 28.841 87.8921 27.4805V27.4744C87.8921 26.1261 87.2483 25.2879 86.2157 25.2879C85.2257 25.2879 84.5212 26.1504 84.5212 27.4744V27.4805C84.5212 28.8107 85.2196 29.6731 86.2157 29.6731ZM90.4023 32.8072C90.1472 32.8072 89.8739 32.7768 89.716 32.7464V31.72C89.8192 31.7443 89.9711 31.7686 90.1472 31.7686C90.7667 31.7686 91.1068 31.6046 91.3255 30.9851L91.4348 30.6814L89.1086 24.2857H90.5298L92.1394 29.4848H92.1819L93.7914 24.2857H95.1763L92.7953 30.9729C92.3216 32.297 91.6535 32.8072 90.4023 32.8072ZM31.8059 46.8271C29.8988 46.8271 28.6354 45.7156 28.5261 44.2519L28.52 44.1608H30.2146L30.2268 44.2033C30.3543 44.8653 30.9678 45.3755 31.812 45.3755C32.7717 45.3755 33.4459 44.7195 33.4459 43.7842V43.772C33.4398 42.8488 32.7656 42.1989 31.8181 42.1989C31.3686 42.1989 30.986 42.3326 30.6884 42.5694C30.5122 42.7031 30.3725 42.8731 30.2693 43.0553H28.6719L29.0728 37.9109H34.6667V39.3686H30.5305L30.3179 41.8345H30.3543C30.7187 41.2454 31.4415 40.887 32.3283 40.887C33.9925 40.887 35.1951 42.0835 35.1951 43.7356V43.7477C35.1951 45.582 33.8103 46.8271 31.8059 46.8271ZM38.4888 45.3998V43.0675H35.9682V41.5187H38.4888V39.1803H40.0376V41.5187H42.5643V43.0675H40.0376V45.3998H38.4888ZM45.6229 46.6753V40.1642H47.3965V41.2575H47.4329C47.7001 40.5165 48.3804 40.0306 49.255 40.0306C50.1661 40.0306 50.8281 40.5165 51.0468 41.3729H51.0832C51.3748 40.553 52.1522 40.0306 53.1058 40.0306C54.3813 40.0306 55.2377 40.9113 55.2377 42.2232V46.6753H53.4641V42.6666C53.4641 41.9135 53.0876 41.5005 52.4012 41.5005C51.727 41.5005 51.2837 41.9924 51.2837 42.7152V46.6753H49.5769V42.612C49.5769 41.9135 49.1821 41.5005 48.5262 41.5005C47.852 41.5005 47.3965 42.0107 47.3965 42.7456V46.6753H45.6229ZM56.9279 39.3261C56.3934 39.3261 55.9804 38.907 55.9804 38.4029C55.9804 37.8987 56.3934 37.4796 56.9279 37.4796C57.4624 37.4796 57.8754 37.8987 57.8754 38.4029C57.8754 38.907 57.4624 39.3261 56.9279 39.3261ZM56.0412 46.6753V40.1642H57.8147V46.6753H56.0412ZM58.6911 46.6753V37.9109H60.4646V46.6753H58.6911ZM61.3471 46.6753V37.9109H63.1206V46.6753H61.3471ZM64.8838 39.3261C64.3493 39.3261 63.9363 38.907 63.9363 38.4029C63.9363 37.8987 64.3493 37.4796 64.8838 37.4796C65.4182 37.4796 65.8313 37.8987 65.8313 38.4029C65.8313 38.907 65.4182 39.3261 64.8838 39.3261ZM63.997 46.6753V40.1642H65.7705V46.6753H63.997ZM69.5927 46.8089C67.6126 46.8089 66.3675 45.5395 66.3675 43.4198V43.4076C66.3675 41.3122 67.643 40.0306 69.5866 40.0306C71.5363 40.0306 72.8178 41.3 72.8178 43.4076V43.4198C72.8178 45.5456 71.5606 46.8089 69.5927 46.8089ZM69.5987 45.418C70.4612 45.418 71.0139 44.6892 71.0139 43.4198V43.4076C71.0139 42.1504 70.4491 41.4215 69.5866 41.4215C68.7302 41.4215 68.1714 42.1504 68.1714 43.4076V43.4198C68.1714 44.6953 68.7241 45.418 69.5987 45.418ZM73.3784 46.6753V40.1642H75.1519V41.2332H75.1884C75.5224 40.4861 76.1905 40.0306 77.1745 40.0306C78.6079 40.0306 79.4218 40.9478 79.4218 42.4723V46.6753H77.6482V42.8367C77.6482 41.9864 77.2474 41.5005 76.4517 41.5005C75.656 41.5005 75.1519 42.0835 75.1519 42.9339V46.6753H73.3784ZM84.6062 46.8028C83.2031 46.8028 82.4014 45.8979 82.4014 44.428V40.2857H83.7133V44.1729C83.7133 45.1386 84.1628 45.6731 85.0739 45.6731C85.9971 45.6731 86.5923 45.0111 86.5923 44.015V40.2857H87.9103V46.6753H86.5923V45.7156H86.5619C86.2279 46.3595 85.578 46.8028 84.6062 46.8028ZM91.2465 46.8028C89.6492 46.8028 88.7138 46.0133 88.5802 44.8471L88.5741 44.7924H89.8739L89.886 44.8532C90.0075 45.4423 90.4448 45.7885 91.2526 45.7885C92.0422 45.7885 92.516 45.4605 92.516 44.9443V44.9382C92.516 44.5252 92.2852 44.2883 91.5988 44.1243L90.5541 43.8874C89.3394 43.6081 88.7381 43.025 88.7381 42.0957V42.0896C88.7381 40.9478 89.7342 40.1642 91.204 40.1642C92.7164 40.1642 93.6275 41.0085 93.6943 42.0957L93.7003 42.1686H92.4674L92.4613 42.1261C92.3823 41.5673 91.945 41.1786 91.204 41.1786C90.4995 41.1786 90.0561 41.5126 90.0561 42.0228V42.0289C90.0561 42.4237 90.3173 42.6909 91.0036 42.8549L92.0422 43.0918C93.3481 43.3955 93.8461 43.9117 93.8461 44.8289V44.8349C93.8461 46.0011 92.7528 46.8028 91.2465 46.8028ZM97.237 46.8028C95.3602 46.8028 94.2244 45.5213 94.2244 43.5048V43.4987C94.2244 41.5005 95.3785 40.1642 97.1702 40.1642C98.962 40.1642 100.061 41.4519 100.061 43.3712V43.8146H95.5364C95.5607 45.0232 96.2227 45.7278 97.2674 45.7278C98.0448 45.7278 98.5611 45.3269 98.7251 44.8471L98.7433 44.7985H99.9884L99.9763 44.8653C99.7698 45.8796 98.7858 46.8028 97.237 46.8028ZM97.1763 41.2393C96.326 41.2393 95.67 41.8163 95.5546 42.8853H98.7615C98.6522 41.7799 98.0327 41.2393 97.1763 41.2393ZM100.725 46.6753V40.2857H102.037V41.379H102.067C102.274 40.6319 102.808 40.1642 103.537 40.1642C103.726 40.1642 103.89 40.1946 103.993 40.2128V41.4337C103.89 41.3911 103.659 41.3608 103.404 41.3608C102.559 41.3608 102.037 41.9135 102.037 42.8671V46.6753H100.725ZM106.843 46.8028C105.246 46.8028 104.31 46.0133 104.177 44.8471L104.171 44.7924H105.47L105.483 44.8532C105.604 45.4423 106.041 45.7885 106.849 45.7885C107.639 45.7885 108.113 45.4605 108.113 44.9443V44.9382C108.113 44.5252 107.882 44.2883 107.195 44.1243L106.151 43.8874C104.936 43.6081 104.335 43.025 104.335 42.0957V42.0896C104.335 40.9478 105.331 40.1642 106.801 40.1642C108.313 40.1642 109.224 41.0085 109.291 42.0957L109.297 42.1686H108.064L108.058 42.1261C107.979 41.5673 107.542 41.1786 106.801 41.1786C106.096 41.1786 105.653 41.5126 105.653 42.0228V42.0289C105.653 42.4237 105.914 42.6909 106.6 42.8549L107.639 43.0918C108.945 43.3955 109.443 43.9117 109.443 44.8289V44.8349C109.443 46.0011 108.349 46.8028 106.843 46.8028Z" fill="#110D38"/>
<defs>
<linearGradient id="paint0_linear_2104_7204" x1="123.502" y1="54.3393" x2="54.6733" y2="-21.152" gradientUnits="userSpaceOnUse">
<stop stop-color="#B4ADFF"/>
<stop offset="1" stop-color="#5F44F8"/>
</linearGradient>
</defs>
</svg>
