<svg width="125" height="158" viewBox="0 0 125 158" fill="none" xmlns="http://www.w3.org/2000/svg">
<g filter="url(#filter0_d_2002_8449)">
<rect x="10.5" y="8" width="104" height="104" rx="21.6667" fill="url(#paint0_linear_2002_8449)"/>
<rect x="11" y="8.5" width="103" height="103" rx="21.1667" stroke="white" stroke-opacity="0.16"/>
<mask id="path-3-inside-1_2002_8449" fill="white">
<path d="M102.041 60C102.041 81.5391 84.5801 99 63.041 99C41.5019 99 24.041 81.5391 24.041 60C24.041 38.4609 41.5019 21 63.041 21C84.5801 21 102.041 38.4609 102.041 60ZM27.941 60C27.941 79.3852 43.6558 95.1 63.041 95.1C82.4262 95.1 98.141 79.3852 98.141 60C98.141 40.6148 82.4262 24.9 63.041 24.9C43.6558 24.9 27.941 40.6148 27.941 60Z"/>
</mask>
<path d="M102.041 60C102.041 81.5391 84.5801 99 63.041 99C41.5019 99 24.041 81.5391 24.041 60C24.041 38.4609 41.5019 21 63.041 21C84.5801 21 102.041 38.4609 102.041 60ZM27.941 60C27.941 79.3852 43.6558 95.1 63.041 95.1C82.4262 95.1 98.141 79.3852 98.141 60C98.141 40.6148 82.4262 24.9 63.041 24.9C43.6558 24.9 27.941 40.6148 27.941 60Z" stroke="url(#paint1_linear_2002_8449)" stroke-width="4.45714" mask="url(#path-3-inside-1_2002_8449)"/>
<path d="M63.0411 31.7251C47.4248 31.7251 34.7661 44.3842 34.7661 60.0001C34.7661 75.616 47.4252 88.2751 63.0411 88.2751C78.6567 88.2751 91.3161 75.616 91.3161 60.0001C91.3157 44.3845 78.6567 31.7251 63.0411 31.7251ZM78.4057 60.6176C78.4057 75.5312 63.0411 77.8084 63.0411 77.8084C63.0411 77.8084 47.6762 75.5312 47.6762 60.6176V53.1024C51.5425 52.0647 54.2308 48.5602 54.2308 44.5565L63.0411 42.1917L71.8511 44.5565C71.8511 48.5598 74.5393 52.0643 78.4057 53.1024V60.6176Z" fill="url(#paint2_linear_2002_8449)"/>
<path d="M62.9768 68.8655C58.9271 68.8655 56.3178 67.0118 56.1171 63.8713L56.1053 63.6824H59.4702L59.4938 63.8122C59.7182 65.1346 61.1231 65.961 63.0712 65.961C65.0429 65.961 66.2826 65.0992 66.2826 63.8004V63.7886C66.2826 62.6316 65.4444 62.053 63.331 61.6162L61.5364 61.262C58.1715 60.589 56.4713 58.9833 56.4713 56.4213V56.4095C56.4713 53.2925 59.1869 51.2382 62.965 51.2382C66.9084 51.2382 69.3288 53.2099 69.4941 56.197L69.5059 56.4213H66.141L66.1292 56.2796C65.9521 54.9454 64.7242 54.1308 62.965 54.1308C61.135 54.1426 60.0369 54.9809 60.0369 56.197V56.2088C60.0369 57.2832 60.9106 57.9089 62.8705 58.2985L64.6769 58.6645C68.2425 59.3729 69.8483 60.8252 69.8483 63.5053V63.5171C69.8483 66.7875 67.2744 68.8655 62.9768 68.8655Z" fill="url(#paint3_linear_2002_8449)"/>
</g>
<path d="M24.9062 150.391C19.7344 150.391 16.3281 147.953 16.0625 143.906L16.0469 143.672H19.9062L19.9375 143.859C20.2344 145.797 22.2188 147 25.0469 147C27.8906 147 29.6719 145.734 29.6719 143.797V143.781C29.6719 142.094 28.5 141.188 25.5938 140.578L23.1719 140.078C18.7344 139.156 16.5469 137.094 16.5469 133.734V133.719C16.5625 129.75 20.0469 127.062 24.9062 127.062C29.8281 127.062 33.0469 129.656 33.2812 133.516L33.2969 133.781H29.4375L29.4062 133.594C29.1406 131.625 27.4062 130.453 24.875 130.453C22.2344 130.469 20.5938 131.703 20.5938 133.5V133.516C20.5938 135.109 21.8281 136.047 24.5469 136.609L26.9844 137.109C31.6719 138.078 33.7188 139.984 33.7188 143.5V143.516C33.7188 147.719 30.4062 150.391 24.9062 150.391ZM43.753 150.328C38.7843 150.328 35.7843 147.031 35.7843 141.766V141.75C35.7843 136.531 38.8311 133.094 43.5655 133.094C48.2999 133.094 51.2374 136.422 51.2374 141.422V142.672H39.6436C39.7061 145.578 41.2999 147.297 43.8311 147.297C45.7686 147.297 47.0343 146.266 47.4093 145.156L47.4405 145.047H51.0811L51.0343 145.219C50.5186 147.766 48.0811 150.328 43.753 150.328ZM43.6124 136.141C41.5499 136.141 40.003 137.531 39.6905 140.078H47.4561C47.1749 137.453 45.6749 136.141 43.6124 136.141ZM53.881 150V133.438H57.7716V136.031H57.8498C58.7091 134.25 60.3966 133.094 62.9123 133.094C66.5529 133.094 68.631 135.438 68.631 139.281V150H64.7404V140.062C64.7404 137.703 63.6466 136.375 61.4279 136.375C59.1935 136.375 57.7716 138 57.7716 140.391V150H53.881ZM78.0402 150.328C74.5715 150.328 72.9309 148.922 72.9309 145.516V136.438H70.5871V133.438H72.9309V129.234H76.884V133.438H79.9621V136.438H76.884V145.188C76.884 146.812 77.6027 147.328 79.0246 147.328C79.3996 147.328 79.6965 147.281 79.9621 147.266V150.188C79.509 150.25 78.8215 150.328 78.0402 150.328ZM82.762 150V133.438H86.6526V136.297H86.7308C87.2464 134.297 88.6214 133.094 90.5276 133.094C91.012 133.094 91.4651 133.172 91.762 133.25V136.766C91.4339 136.641 90.8401 136.547 90.1839 136.547C87.9808 136.547 86.6526 137.938 86.6526 140.391V150H82.762ZM96.64 155.5C95.89 155.5 95.1087 155.406 94.64 155.328V152.359C94.9369 152.422 95.39 152.5 95.9369 152.5C97.4212 152.5 98.2494 152.078 98.7494 150.688L98.9837 150.016L93.0306 133.438H97.2806L101.156 146.688H101.265L105.156 133.438H109.249L103.296 150.562C102.031 154.203 100.093 155.5 96.64 155.5Z" fill="url(#paint4_linear_2002_8449)"/>
<defs>
<filter id="filter0_d_2002_8449" x="0.75" y="0.416667" width="123.5" height="123.5" filterUnits="userSpaceOnUse" color-interpolation-filters="sRGB">
<feFlood flood-opacity="0" result="BackgroundImageFix"/>
<feColorMatrix in="SourceAlpha" type="matrix" values="0 0 0 0 0 0 0 0 0 0 0 0 0 0 0 0 0 0 127 0" result="hardAlpha"/>
<feOffset dy="2.16667"/>
<feGaussianBlur stdDeviation="4.875"/>
<feComposite in2="hardAlpha" operator="out"/>
<feColorMatrix type="matrix" values="0 0 0 0 0.602051 0 0 0 0 0.602051 0 0 0 0 0.602051 0 0 0 0.25 0"/>
<feBlend mode="normal" in2="BackgroundImageFix" result="effect1_dropShadow_2002_8449"/>
<feBlend mode="normal" in="SourceGraphic" in2="effect1_dropShadow_2002_8449" result="shape"/>
</filter>
<linearGradient id="paint0_linear_2002_8449" x1="62.5" y1="8" x2="62.5" y2="112" gradientUnits="userSpaceOnUse">
<stop stop-color="#110C37"/>
<stop offset="1" stop-color="#463CCA"/>
</linearGradient>
<linearGradient id="paint1_linear_2002_8449" x1="39.841" y1="31.5429" x2="54.5464" y2="100.804" gradientUnits="userSpaceOnUse">
<stop stop-color="#B4ADFF"/>
<stop offset="1" stop-color="#5F44F8"/>
</linearGradient>
<linearGradient id="paint2_linear_2002_8449" x1="46.2211" y1="39.3687" x2="56.8825" y2="89.5827" gradientUnits="userSpaceOnUse">
<stop stop-color="#B4ADFF"/>
<stop offset="1" stop-color="#5F44F8"/>
</linearGradient>
<linearGradient id="paint3_linear_2002_8449" x1="58.5789" y1="49.4901" x2="87.0116" y2="55.8034" gradientUnits="userSpaceOnUse">
<stop stop-color="#B4ADFF"/>
<stop offset="1" stop-color="#5F44F8"/>
</linearGradient>
<linearGradient id="paint4_linear_2002_8449" x1="34.2436" y1="125.136" x2="37.217" y2="160.147" gradientUnits="userSpaceOnUse">
<stop stop-color="#B4ADFF"/>
<stop offset="1" stop-color="#5F44F8"/>
</linearGradient>
</defs>
</svg>
