<svg width="81" height="81" viewBox="0 0 81 81" fill="none" xmlns="http://www.w3.org/2000/svg">
<path d="M52.74 0C60.84 0 64.89 0 69.3 1.35C74.07 3.06 77.85 6.84 79.56 11.61C81 16.02 81 20.16 81 28.26V52.74C81 60.84 81 64.89 79.65 69.3C77.94 74.07 74.16 77.85 69.39 79.56C64.89 81 60.84 81 52.74 81H28.26C20.16 81 16.11 81 11.7 79.65C6.84 77.85 3.15 74.16 1.35 69.3C0 64.98 0 60.93 0 52.74V28.26C0 20.16 0 16.11 1.35 11.7C3.15 6.93 6.84 3.15 11.7 1.44C16.02 -1.07288e-07 20.07 0 28.26 0H52.74Z" fill="url(#paint0_linear_2867_36308)"/>
<path d="M40.4999 75.6004C59.8851 75.6004 75.5999 59.8856 75.5999 40.5004C75.5999 21.1152 59.8851 5.40039 40.4999 5.40039C21.1147 5.40039 5.3999 21.1152 5.3999 40.5004C5.3999 59.8856 21.1147 75.6004 40.4999 75.6004Z" fill="#2E2E30"/>
<path d="M42.8632 21.8178C42.9523 21.8303 43.0414 21.8428 43.1305 21.8554C43.3088 21.8804 43.5762 21.918 43.7544 21.943L44.729 19.5352C45.02 18.7582 45.1857 18.8723 45.1746 19.5979L45.0913 22.1309C45.3586 22.1685 45.7026 22.3077 45.97 22.3453L47.1994 20.0642C47.567 19.3888 47.7452 19.4138 47.6325 20.216L47.1927 22.6989C47.4475 22.8256 47.7915 22.9648 48.0589 23.0024L49.5306 20.9371C49.9873 20.2742 50.153 20.3884 49.9512 21.178L49.244 23.6234C49.4988 23.7501 49.8428 23.8893 50.0851 24.1051L51.7226 22.154C52.2559 21.5928 52.4216 21.707 52.1432 22.3949L51.1686 24.8027C51.4109 25.0185 51.6657 25.1452 51.9081 25.3611L53.7879 23.6258C54.4103 23.0771 54.576 23.1913 54.1959 23.9558L52.979 26.1478C53.2213 26.3636 53.4636 26.5794 53.6168 26.7827L55.7264 25.3524C56.3363 24.8928 56.5021 25.007 56.0454 25.6699L54.4594 27.9009C54.7017 28.1167 54.8549 28.32 55.0847 28.6249L57.335 27.487C58.0215 27.1291 58.1872 27.2433 57.6414 27.8936L55.9273 29.7431C56.0805 29.9464 56.3103 30.2513 56.451 30.5438L58.8544 29.6092C59.6175 29.3529 59.6816 29.5436 59.0717 30.0032L57.1153 31.6369C57.256 31.9293 57.3967 32.2217 57.5373 32.5141L59.9923 31.8594C60.7429 31.6923 60.807 31.883 60.2096 32.2535L58.1 33.6838C58.2407 33.9762 58.2922 34.2561 58.4329 34.5486L60.9395 34.1738C61.6775 34.0957 61.8307 34.299 61.0551 34.6444L58.8048 35.7823C58.8564 36.0622 58.997 36.3547 59.0361 36.7237L61.4925 36.7054C62.3072 36.729 62.2821 36.9072 61.6081 37.176L59.3063 38.034C59.3579 38.3139 59.3969 38.683 59.4484 38.9629L61.9564 39.2244C62.7586 39.3372 62.7335 39.5154 61.9829 39.6826L59.5405 40.2482C59.592 40.5281 59.5419 40.8846 59.5043 41.1519L61.8731 41.7575C62.6627 41.9594 62.6376 42.1376 61.8105 42.2031L59.3164 42.4888C59.2789 42.7562 59.2288 43.1127 59.1912 43.38C59.1912 43.38 59.1912 43.38 59.1787 43.4692L61.5224 44.253C62.2995 44.544 62.2744 44.7222 61.4598 44.6986L59.0033 44.7169C58.9532 45.0734 58.8265 45.3282 58.7764 45.6847L60.9809 46.8125C61.6563 47.1801 61.6313 47.3583 60.8291 47.2456L58.4228 46.9074C58.2961 47.1623 58.246 47.5188 58.1193 47.7736L60.1971 49.1562C60.86 49.6129 60.7458 49.7787 60.0453 49.5893L57.6766 48.9838C57.5499 49.2386 57.4106 49.5826 57.2839 49.8374L59.1459 51.4624C59.7071 51.9957 59.6821 52.1739 58.905 51.883L56.663 51.0226C56.4471 51.2649 56.3079 51.6088 56.0921 51.8512L57.7507 53.6293C58.312 54.1626 58.1853 54.4175 57.4207 54.0374L55.1772 52.5406C54.9614 52.7829 54.7456 53.0252 54.5297 53.2675L55.9851 55.1989C56.4447 55.8088 56.3305 55.9745 55.6676 55.5178L53.679 54.1477C53.4631 54.39 53.2473 54.6323 52.9549 54.773L54.207 56.8575C54.5649 57.544 54.4507 57.7098 53.8004 57.1639L51.9384 55.539C51.6335 55.7688 51.4302 55.922 51.1377 56.0626L52.0974 58.2879C52.4428 59.0635 52.252 59.1275 51.7033 58.5051L50.0446 56.727C49.7522 56.8676 49.4598 57.0083 49.1674 57.149L49.8346 59.5149C50.0909 60.278 49.9001 60.342 49.4405 59.7321L48.0868 57.7242C47.7944 57.8649 47.5019 58.0055 47.1204 58.1337L47.5077 60.5511C47.6749 61.3017 47.4841 61.3658 47.0371 60.6667L45.8866 58.5056C45.6067 58.5572 45.2252 58.6853 44.9453 58.7368L45.0652 61.1167C45.1308 61.9439 44.8634 61.9063 44.5946 61.2323L43.699 59.1979C43.4191 59.2494 43.0501 59.2885 42.7702 59.34L42.6102 61.7714C42.5866 62.586 42.3193 62.5485 42.1521 61.7979L41.4849 59.432C41.205 59.4836 40.8485 59.4335 40.4794 59.4725L39.963 61.8538C39.8503 62.6559 39.5829 62.6183 39.5049 61.8803L39.3083 59.3988C38.9518 59.3487 38.6844 59.3111 38.3154 59.3501L37.5316 61.6938C37.2406 62.4709 37.0624 62.4459 37.086 61.6312L37.0677 59.1748C36.7112 59.1247 36.4438 59.0871 36.0998 58.9478L35.0612 61.1649C34.7827 61.8528 34.5154 61.8152 34.6281 61.0131L34.8772 58.5942C34.5332 58.455 34.2658 58.4174 34.011 58.2907L32.6283 60.3685C32.2608 61.0439 31.9934 61.0064 32.1952 60.2168L32.7117 57.8355C32.4568 57.7088 32.1129 57.5696 31.858 57.4429L30.3097 59.4065C29.853 60.0694 29.5981 59.9427 29.8891 59.1656L30.6729 56.8219C30.4181 56.6952 30.1757 56.4793 29.8318 56.3401L28.0411 58.0879C27.5078 58.6492 27.3421 58.535 27.6205 57.847L28.7483 55.6425C28.506 55.4267 28.2637 55.2109 28.0088 55.0842L26.0649 56.6287C25.455 57.0883 25.2893 56.9741 25.746 56.3112L27.1287 54.2334C26.8863 54.0176 26.644 53.8018 26.5033 53.5093L24.4439 54.5832C23.7448 55.0302 23.5916 54.8269 24.1249 54.2657L25.6733 52.3021C25.431 52.0863 25.2903 51.7938 25.1371 51.5905L22.8994 52.6393C22.2129 52.9972 22.0597 52.7939 22.593 52.2327L24.3836 50.4849C24.243 50.1925 24.0898 49.9892 23.9491 49.6968L21.5707 50.4531C20.8076 50.7094 20.7435 50.5186 21.3534 50.059L23.3864 48.5271C23.2457 48.2346 23.1051 47.9422 23.0535 47.6623L20.6236 48.1388C19.873 48.3059 19.8089 48.1152 20.5079 47.6681L22.6816 46.4286C22.5409 46.1361 22.4894 45.8562 22.4378 45.5763L19.7781 45.7478C18.9509 45.8134 18.8868 45.6226 19.6625 45.2772L21.9768 44.33C21.9253 44.0501 21.8862 43.6811 21.8347 43.4012L19.3016 43.3179C18.487 43.2943 18.512 43.116 19.2751 42.8597L21.6535 42.1034C21.602 41.8235 21.6521 41.467 21.6006 41.1871L19.1176 40.7473C18.3155 40.6345 18.3531 40.3671 19.0911 40.2891L21.6102 39.8252C21.6478 39.5578 21.6087 39.1888 21.6463 38.9214L19.2009 38.2142C18.4114 38.0123 18.4489 37.745 19.2636 37.7686L21.8217 37.6737C21.8593 37.4063 21.9094 37.0498 21.9469 36.7824L19.6283 35.8204C18.9403 35.5419 18.9779 35.2745 19.78 35.3873L22.3005 35.5597C22.3381 35.2924 22.4773 34.9484 22.604 34.6936L20.4121 33.4767C19.7367 33.1091 19.7617 32.9308 20.5638 33.0436L23.0468 33.4834C23.1735 33.2285 23.3127 32.8846 23.4394 32.6297L21.3741 31.158C20.7112 30.7013 20.8254 30.5356 21.615 30.7374L24.0479 31.5337C24.1746 31.2789 24.3904 31.0366 24.5171 30.7817L22.6676 29.0677C22.1064 28.5344 22.2206 28.3686 22.9085 28.6471L25.2147 29.6983C25.4305 29.456 25.5572 29.2011 25.773 28.9588L24.1394 27.0024C23.5907 26.38 23.794 26.2268 24.4569 26.6835L26.6363 27.9895C26.8521 27.7472 27.0554 27.594 27.2713 27.3517L25.8535 25.1529C25.4064 24.4539 25.5972 24.3898 26.1709 24.834L28.2237 26.3949C28.4395 26.1526 28.7319 26.0119 28.9478 25.7696L27.8474 23.2519C27.4895 22.5655 27.6928 22.4123 28.254 22.9456L30.091 24.7488C30.2943 24.5956 30.5867 24.4549 30.8791 24.3142L30.0336 21.9233C29.7773 21.1602 29.9681 21.0961 30.4277 21.706L32.0488 23.7515C32.3412 23.6109 32.6336 23.4702 32.8369 23.317L32.2839 20.7854C32.1167 20.0348 32.3075 19.9707 32.7671 20.5806L34.0958 22.7668C34.3882 22.6262 34.6681 22.5746 34.948 22.5231L34.6748 19.9399C34.6093 19.1127 34.8001 19.0487 35.1455 19.8243L36.1817 22.1511C36.4616 22.0996 36.7415 22.0481 37.0214 21.9965L37.1048 19.4635C37.1284 18.6488 37.3066 18.6739 37.5629 19.437L38.3068 21.9045C38.5867 21.8529 38.9557 21.8139 39.223 21.8515L39.5863 19.2669C39.699 18.4648 39.8773 18.4898 40.0444 19.2404L40.5975 21.772C40.8649 21.8096 41.2339 21.7706 41.5013 21.8081L42.1193 19.3502C42.3212 18.5607 42.4994 18.5857 42.565 19.4129L42.8632 21.8178ZM38.3458 55.9008C46.8126 57.0907 54.6396 51.1926 55.8295 42.7258C57.0195 34.259 51.1214 26.432 42.6546 25.2421C34.1878 24.0521 26.2842 29.8486 25.0942 38.3154C23.9043 46.7822 29.879 54.7108 38.3458 55.9008Z" fill="black"/>
<path d="M42.8632 21.8178C42.9523 21.8303 43.0414 21.8428 43.1305 21.8554C43.3088 21.8804 43.5762 21.918 43.7544 21.943L44.729 19.5352C45.02 18.7582 45.1857 18.8723 45.1746 19.5979L45.0913 22.1309C45.3586 22.1685 45.7026 22.3077 45.97 22.3453L47.1994 20.0642C47.567 19.3888 47.7452 19.4138 47.6325 20.216L47.1927 22.6989C47.4475 22.8256 47.7915 22.9648 48.0589 23.0024L49.5306 20.9371C49.9873 20.2742 50.153 20.3884 49.9512 21.178L49.244 23.6234C49.4988 23.7501 49.8428 23.8893 50.0851 24.1051L51.7226 22.154C52.2559 21.5928 52.4216 21.707 52.1432 22.3949L51.1686 24.8027C51.4109 25.0185 51.6657 25.1452 51.9081 25.3611L53.7879 23.6258C54.4103 23.0771 54.576 23.1913 54.1959 23.9558L52.979 26.1478C53.2213 26.3636 53.4636 26.5794 53.6168 26.7827L55.7264 25.3524C56.3363 24.8928 56.5021 25.007 56.0454 25.6699L54.4594 27.9009C54.7017 28.1167 54.8549 28.32 55.0847 28.6249L57.335 27.487C58.0215 27.1291 58.1872 27.2433 57.6414 27.8936L55.9273 29.7431C56.0805 29.9464 56.3103 30.2513 56.451 30.5438L58.8544 29.6092C59.6175 29.3529 59.6816 29.5436 59.0717 30.0032L57.1153 31.6369C57.256 31.9293 57.3967 32.2217 57.5373 32.5141L59.9923 31.8594C60.7429 31.6923 60.807 31.883 60.2096 32.2535L58.1 33.6838C58.2407 33.9762 58.2922 34.2561 58.4329 34.5486L60.9395 34.1738C61.6775 34.0957 61.8307 34.299 61.0551 34.6444L58.8048 35.7823C58.8564 36.0622 58.997 36.3547 59.0361 36.7237L61.4925 36.7054C62.3072 36.729 62.2821 36.9072 61.6081 37.176L59.3063 38.034C59.3579 38.3139 59.3969 38.683 59.4484 38.9629L61.9564 39.2244C62.7586 39.3372 62.7335 39.5154 61.9829 39.6826L59.5405 40.2482C59.592 40.5281 59.5419 40.8846 59.5043 41.1519L61.8731 41.7575C62.6627 41.9594 62.6376 42.1376 61.8105 42.2031L59.3164 42.4888C59.2789 42.7562 59.2288 43.1127 59.1912 43.38C59.1912 43.38 59.1912 43.38 59.1787 43.4692L61.5224 44.253C62.2995 44.544 62.2744 44.7222 61.4598 44.6986L59.0033 44.7169C58.9532 45.0734 58.8265 45.3282 58.7764 45.6847L60.9809 46.8125C61.6563 47.1801 61.6313 47.3583 60.8291 47.2456L58.4228 46.9074C58.2961 47.1623 58.246 47.5188 58.1193 47.7736L60.1971 49.1562C60.86 49.6129 60.7458 49.7787 60.0453 49.5893L57.6766 48.9838C57.5499 49.2386 57.4106 49.5826 57.2839 49.8374L59.1459 51.4624C59.7071 51.9957 59.6821 52.1739 58.905 51.883L56.663 51.0226C56.4471 51.2649 56.3079 51.6088 56.0921 51.8512L57.7507 53.6293C58.312 54.1626 58.1853 54.4175 57.4207 54.0374L55.1772 52.5406C54.9614 52.7829 54.7456 53.0252 54.5297 53.2675L55.9851 55.1989C56.4447 55.8088 56.3305 55.9745 55.6676 55.5178L53.679 54.1477C53.4631 54.39 53.2473 54.6323 52.9549 54.773L54.207 56.8575C54.5649 57.544 54.4507 57.7098 53.8004 57.1639L51.9384 55.539C51.6335 55.7688 51.4302 55.922 51.1377 56.0626L52.0974 58.2879C52.4428 59.0635 52.252 59.1275 51.7033 58.5051L50.0446 56.727C49.7522 56.8676 49.4598 57.0083 49.1674 57.149L49.8346 59.5149C50.0909 60.278 49.9001 60.342 49.4405 59.7321L48.0868 57.7242C47.7944 57.8649 47.5019 58.0055 47.1204 58.1337L47.5077 60.5511C47.6749 61.3017 47.4841 61.3658 47.0371 60.6667L45.8866 58.5056C45.6067 58.5572 45.2252 58.6853 44.9453 58.7368L45.0652 61.1167C45.1308 61.9439 44.8634 61.9063 44.5946 61.2323L43.699 59.1979C43.4191 59.2494 43.0501 59.2885 42.7702 59.34L42.6102 61.7714C42.5866 62.586 42.3193 62.5485 42.1521 61.7979L41.4849 59.432C41.205 59.4836 40.8485 59.4335 40.4794 59.4725L39.963 61.8538C39.8503 62.6559 39.5829 62.6183 39.5049 61.8803L39.3083 59.3988C38.9518 59.3487 38.6844 59.3111 38.3154 59.3501L37.5316 61.6938C37.2406 62.4709 37.0624 62.4459 37.086 61.6312L37.0677 59.1748C36.7112 59.1247 36.4438 59.0871 36.0998 58.9478L35.0612 61.1649C34.7827 61.8528 34.5154 61.8152 34.6281 61.0131L34.8772 58.5942C34.5332 58.455 34.2658 58.4174 34.011 58.2907L32.6283 60.3685C32.2608 61.0439 31.9934 61.0064 32.1952 60.2168L32.7117 57.8355C32.4568 57.7088 32.1129 57.5696 31.858 57.4429L30.3097 59.4065C29.853 60.0694 29.5981 59.9427 29.8891 59.1656L30.6729 56.8219C30.4181 56.6952 30.1757 56.4793 29.8318 56.3401L28.0411 58.0879C27.5078 58.6492 27.3421 58.535 27.6205 57.847L28.7483 55.6425C28.506 55.4267 28.2637 55.2109 28.0088 55.0842L26.0649 56.6287C25.455 57.0883 25.2893 56.9741 25.746 56.3112L27.1287 54.2334C26.8863 54.0176 26.644 53.8018 26.5033 53.5093L24.4439 54.5832C23.7448 55.0302 23.5916 54.8269 24.1249 54.2657L25.6733 52.3021C25.431 52.0863 25.2903 51.7938 25.1371 51.5905L22.8994 52.6393C22.2129 52.9972 22.0597 52.7939 22.593 52.2327L24.3836 50.4849C24.243 50.1925 24.0898 49.9892 23.9491 49.6968L21.5707 50.4531C20.8076 50.7094 20.7435 50.5186 21.3534 50.059L23.3864 48.5271C23.2457 48.2346 23.1051 47.9422 23.0535 47.6623L20.6236 48.1388C19.873 48.3059 19.8089 48.1152 20.5079 47.6681L22.6816 46.4286C22.5409 46.1361 22.4894 45.8562 22.4378 45.5763L19.7781 45.7478C18.9509 45.8134 18.8868 45.6226 19.6625 45.2772L21.9768 44.33C21.9253 44.0501 21.8862 43.6811 21.8347 43.4012L19.3016 43.3179C18.487 43.2943 18.512 43.116 19.2751 42.8597L21.6535 42.1034C21.602 41.8235 21.6521 41.467 21.6006 41.1871L19.1176 40.7473C18.3155 40.6345 18.3531 40.3671 19.0911 40.2891L21.6102 39.8252C21.6478 39.5578 21.6087 39.1888 21.6463 38.9214L19.2009 38.2142C18.4114 38.0123 18.4489 37.745 19.2636 37.7686L21.8217 37.6737C21.8593 37.4063 21.9094 37.0498 21.9469 36.7824L19.6283 35.8204C18.9403 35.5419 18.9779 35.2745 19.78 35.3873L22.3005 35.5597C22.3381 35.2924 22.4773 34.9484 22.604 34.6936L20.4121 33.4767C19.7367 33.1091 19.7617 32.9308 20.5638 33.0436L23.0468 33.4834C23.1735 33.2285 23.3127 32.8846 23.4394 32.6297L21.3741 31.158C20.7112 30.7013 20.8254 30.5356 21.615 30.7374L24.0479 31.5337C24.1746 31.2789 24.3904 31.0366 24.5171 30.7817L22.6676 29.0677C22.1064 28.5344 22.2206 28.3686 22.9085 28.6471L25.2147 29.6983C25.4305 29.456 25.5572 29.2011 25.773 28.9588L24.1394 27.0024C23.5907 26.38 23.794 26.2268 24.4569 26.6835L26.6363 27.9895C26.8521 27.7472 27.0554 27.594 27.2713 27.3517L25.8535 25.1529C25.4064 24.4539 25.5972 24.3898 26.1709 24.834L28.2237 26.3949C28.4395 26.1526 28.7319 26.0119 28.9478 25.7696L27.8474 23.2519C27.4895 22.5655 27.6928 22.4123 28.254 22.9456L30.091 24.7488C30.2943 24.5956 30.5867 24.4549 30.8791 24.3142L30.0336 21.9233C29.7773 21.1602 29.9681 21.0961 30.4277 21.706L32.0488 23.7515C32.3412 23.6109 32.6336 23.4702 32.8369 23.317L32.2839 20.7854C32.1167 20.0348 32.3075 19.9707 32.7671 20.5806L34.0958 22.7668C34.3882 22.6262 34.6681 22.5746 34.948 22.5231L34.6748 19.9399C34.6093 19.1127 34.8001 19.0487 35.1455 19.8243L36.1817 22.1511C36.4616 22.0996 36.7415 22.0481 37.0214 21.9965L37.1048 19.4635C37.1284 18.6488 37.3066 18.6739 37.5629 19.437L38.3068 21.9045C38.5867 21.8529 38.9557 21.8139 39.223 21.8515L39.5863 19.2669C39.699 18.4648 39.8773 18.4898 40.0444 19.2404L40.5975 21.772C40.8649 21.8096 41.2339 21.7706 41.5013 21.8081L42.1193 19.3502C42.3212 18.5607 42.4994 18.5857 42.565 19.4129L42.8632 21.8178ZM38.3458 55.9008C46.8126 57.0907 54.6396 51.1926 55.8295 42.7258C57.0195 34.259 51.1214 26.432 42.6546 25.2421C34.1878 24.0521 26.2842 29.8486 25.0942 38.3154C23.9043 46.7822 29.879 54.7108 38.3458 55.9008Z" fill="#7F7F7F"/>
<path d="M42.8632 21.8178C42.9523 21.8303 43.0414 21.8428 43.1305 21.8554C43.3088 21.8804 43.5762 21.918 43.7544 21.943L44.729 19.5352C45.02 18.7582 45.1857 18.8723 45.1746 19.5979L45.0913 22.1309C45.3586 22.1685 45.7026 22.3077 45.97 22.3453L47.1994 20.0642C47.567 19.3888 47.7452 19.4138 47.6325 20.216L47.1927 22.6989C47.4475 22.8256 47.7915 22.9648 48.0589 23.0024L49.5306 20.9371C49.9873 20.2742 50.153 20.3884 49.9512 21.178L49.244 23.6234C49.4988 23.7501 49.8428 23.8893 50.0851 24.1051L51.7226 22.154C52.2559 21.5928 52.4216 21.707 52.1432 22.3949L51.1686 24.8027C51.4109 25.0185 51.6657 25.1452 51.9081 25.3611L53.7879 23.6258C54.4103 23.0771 54.576 23.1913 54.1959 23.9558L52.979 26.1478C53.2213 26.3636 53.4636 26.5794 53.6168 26.7827L55.7264 25.3524C56.3363 24.8928 56.5021 25.007 56.0454 25.6699L54.4594 27.9009C54.7017 28.1167 54.8549 28.32 55.0847 28.6249L57.335 27.487C58.0215 27.1291 58.1872 27.2433 57.6414 27.8936L55.9273 29.7431C56.0805 29.9464 56.3103 30.2513 56.451 30.5438L58.8544 29.6092C59.6175 29.3529 59.6816 29.5436 59.0717 30.0032L57.1153 31.6369C57.256 31.9293 57.3967 32.2217 57.5373 32.5141L59.9923 31.8594C60.7429 31.6923 60.807 31.883 60.2096 32.2535L58.1 33.6838C58.2407 33.9762 58.2922 34.2561 58.4329 34.5486L60.9395 34.1738C61.6775 34.0957 61.8307 34.299 61.0551 34.6444L58.8048 35.7823C58.8564 36.0622 58.997 36.3547 59.0361 36.7237L61.4925 36.7054C62.3072 36.729 62.2821 36.9072 61.6081 37.176L59.3063 38.034C59.3579 38.3139 59.3969 38.683 59.4484 38.9629L61.9564 39.2244C62.7586 39.3372 62.7335 39.5154 61.9829 39.6826L59.5405 40.2482C59.592 40.5281 59.5419 40.8846 59.5043 41.1519L61.8731 41.7575C62.6627 41.9594 62.6376 42.1376 61.8105 42.2031L59.3164 42.4888C59.2789 42.7562 59.2288 43.1127 59.1912 43.38C59.1912 43.38 59.1912 43.38 59.1787 43.4692L61.5224 44.253C62.2995 44.544 62.2744 44.7222 61.4598 44.6986L59.0033 44.7169C58.9532 45.0734 58.8265 45.3282 58.7764 45.6847L60.9809 46.8125C61.6563 47.1801 61.6313 47.3583 60.8291 47.2456L58.4228 46.9074C58.2961 47.1623 58.246 47.5188 58.1193 47.7736L60.1971 49.1562C60.86 49.6129 60.7458 49.7787 60.0453 49.5893L57.6766 48.9838C57.5499 49.2386 57.4106 49.5826 57.2839 49.8374L59.1459 51.4624C59.7071 51.9957 59.6821 52.1739 58.905 51.883L56.663 51.0226C56.4471 51.2649 56.3079 51.6088 56.0921 51.8512L57.7507 53.6293C58.312 54.1626 58.1853 54.4175 57.4207 54.0374L55.1772 52.5406C54.9614 52.7829 54.7456 53.0252 54.5297 53.2675L55.9851 55.1989C56.4447 55.8088 56.3305 55.9745 55.6676 55.5178L53.679 54.1477C53.4631 54.39 53.2473 54.6323 52.9549 54.773L54.207 56.8575C54.5649 57.544 54.4507 57.7098 53.8004 57.1639L51.9384 55.539C51.6335 55.7688 51.4302 55.922 51.1377 56.0626L52.0974 58.2879C52.4428 59.0635 52.252 59.1275 51.7033 58.5051L50.0446 56.727C49.7522 56.8676 49.4598 57.0083 49.1674 57.149L49.8346 59.5149C50.0909 60.278 49.9001 60.342 49.4405 59.7321L48.0868 57.7242C47.7944 57.8649 47.5019 58.0055 47.1204 58.1337L47.5077 60.5511C47.6749 61.3017 47.4841 61.3658 47.0371 60.6667L45.8866 58.5056C45.6067 58.5572 45.2252 58.6853 44.9453 58.7368L45.0652 61.1167C45.1308 61.9439 44.8634 61.9063 44.5946 61.2323L43.699 59.1979C43.4191 59.2494 43.0501 59.2885 42.7702 59.34L42.6102 61.7714C42.5866 62.586 42.3193 62.5485 42.1521 61.7979L41.4849 59.432C41.205 59.4836 40.8485 59.4335 40.4794 59.4725L39.963 61.8538C39.8503 62.6559 39.5829 62.6183 39.5049 61.8803L39.3083 59.3988C38.9518 59.3487 38.6844 59.3111 38.3154 59.3501L37.5316 61.6938C37.2406 62.4709 37.0624 62.4459 37.086 61.6312L37.0677 59.1748C36.7112 59.1247 36.4438 59.0871 36.0998 58.9478L35.0612 61.1649C34.7827 61.8528 34.5154 61.8152 34.6281 61.0131L34.8772 58.5942C34.5332 58.455 34.2658 58.4174 34.011 58.2907L32.6283 60.3685C32.2608 61.0439 31.9934 61.0064 32.1952 60.2168L32.7117 57.8355C32.4568 57.7088 32.1129 57.5696 31.858 57.4429L30.3097 59.4065C29.853 60.0694 29.5981 59.9427 29.8891 59.1656L30.6729 56.8219C30.4181 56.6952 30.1757 56.4793 29.8318 56.3401L28.0411 58.0879C27.5078 58.6492 27.3421 58.535 27.6205 57.847L28.7483 55.6425C28.506 55.4267 28.2637 55.2109 28.0088 55.0842L26.0649 56.6287C25.455 57.0883 25.2893 56.9741 25.746 56.3112L27.1287 54.2334C26.8863 54.0176 26.644 53.8018 26.5033 53.5093L24.4439 54.5832C23.7448 55.0302 23.5916 54.8269 24.1249 54.2657L25.6733 52.3021C25.431 52.0863 25.2903 51.7938 25.1371 51.5905L22.8994 52.6393C22.2129 52.9972 22.0597 52.7939 22.593 52.2327L24.3836 50.4849C24.243 50.1925 24.0898 49.9892 23.9491 49.6968L21.5707 50.4531C20.8076 50.7094 20.7435 50.5186 21.3534 50.059L23.3864 48.5271C23.2457 48.2346 23.1051 47.9422 23.0535 47.6623L20.6236 48.1388C19.873 48.3059 19.8089 48.1152 20.5079 47.6681L22.6816 46.4286C22.5409 46.1361 22.4894 45.8562 22.4378 45.5763L19.7781 45.7478C18.9509 45.8134 18.8868 45.6226 19.6625 45.2772L21.9768 44.33C21.9253 44.0501 21.8862 43.6811 21.8347 43.4012L19.3016 43.3179C18.487 43.2943 18.512 43.116 19.2751 42.8597L21.6535 42.1034C21.602 41.8235 21.6521 41.467 21.6006 41.1871L19.1176 40.7473C18.3155 40.6345 18.3531 40.3671 19.0911 40.2891L21.6102 39.8252C21.6478 39.5578 21.6087 39.1888 21.6463 38.9214L19.2009 38.2142C18.4114 38.0123 18.4489 37.745 19.2636 37.7686L21.8217 37.6737C21.8593 37.4063 21.9094 37.0498 21.9469 36.7824L19.6283 35.8204C18.9403 35.5419 18.9779 35.2745 19.78 35.3873L22.3005 35.5597C22.3381 35.2924 22.4773 34.9484 22.604 34.6936L20.4121 33.4767C19.7367 33.1091 19.7617 32.9308 20.5638 33.0436L23.0468 33.4834C23.1735 33.2285 23.3127 32.8846 23.4394 32.6297L21.3741 31.158C20.7112 30.7013 20.8254 30.5356 21.615 30.7374L24.0479 31.5337C24.1746 31.2789 24.3904 31.0366 24.5171 30.7817L22.6676 29.0677C22.1064 28.5344 22.2206 28.3686 22.9085 28.6471L25.2147 29.6983C25.4305 29.456 25.5572 29.2011 25.773 28.9588L24.1394 27.0024C23.5907 26.38 23.794 26.2268 24.4569 26.6835L26.6363 27.9895C26.8521 27.7472 27.0554 27.594 27.2713 27.3517L25.8535 25.1529C25.4064 24.4539 25.5972 24.3898 26.1709 24.834L28.2237 26.3949C28.4395 26.1526 28.7319 26.0119 28.9478 25.7696L27.8474 23.2519C27.4895 22.5655 27.6928 22.4123 28.254 22.9456L30.091 24.7488C30.2943 24.5956 30.5867 24.4549 30.8791 24.3142L30.0336 21.9233C29.7773 21.1602 29.9681 21.0961 30.4277 21.706L32.0488 23.7515C32.3412 23.6109 32.6336 23.4702 32.8369 23.317L32.2839 20.7854C32.1167 20.0348 32.3075 19.9707 32.7671 20.5806L34.0958 22.7668C34.3882 22.6262 34.6681 22.5746 34.948 22.5231L34.6748 19.9399C34.6093 19.1127 34.8001 19.0487 35.1455 19.8243L36.1817 22.1511C36.4616 22.0996 36.7415 22.0481 37.0214 21.9965L37.1048 19.4635C37.1284 18.6488 37.3066 18.6739 37.5629 19.437L38.3068 21.9045C38.5867 21.8529 38.9557 21.8139 39.223 21.8515L39.5863 19.2669C39.699 18.4648 39.8773 18.4898 40.0444 19.2404L40.5975 21.772C40.8649 21.8096 41.2339 21.7706 41.5013 21.8081L42.1193 19.3502C42.3212 18.5607 42.4994 18.5857 42.565 19.4129L42.8632 21.8178ZM38.3458 55.9008C46.8126 57.0907 54.6396 51.1926 55.8295 42.7258C57.0195 34.259 51.1214 26.432 42.6546 25.2421C34.1878 24.0521 26.2842 29.8486 25.0942 38.3154C23.9043 46.7822 29.879 54.7108 38.3458 55.9008Z" fill="#777777"/>
<path d="M72.09 42.1199C73.26 41.9399 73.26 41.6699 72.09 41.3999L68.76 40.7699C68.76 40.6799 68.76 40.5899 68.76 40.4999C68.76 40.0499 68.76 39.5999 68.76 39.1499L72 38.3399C73.17 38.0699 73.08 37.7099 71.91 37.6199L68.58 37.3499C68.49 36.8099 68.49 36.3599 68.4 35.8199L71.55 34.6499C72.63 34.1999 72.63 33.9299 71.46 33.9299L68.13 34.0199C68.04 33.4799 67.86 33.0299 67.77 32.4899L70.74 30.9599C71.82 30.4199 71.64 30.1499 70.56 30.3299L67.23 30.8699C67.05 30.4199 66.87 29.8799 66.69 29.4299L69.48 27.5399C70.47 26.8199 70.29 26.5499 69.21 26.9099L65.97 27.8099C65.7 27.3599 65.52 26.9099 65.25 26.4599L67.77 24.2099C68.67 23.3999 68.49 23.1299 67.41 23.5799L64.35 24.8399C64.08 24.3899 63.72 23.9399 63.45 23.5799L65.7 21.0599C66.51 20.1599 66.33 19.9799 65.25 20.5199L62.1 22.1399C61.74 21.7799 61.47 21.3299 61.11 20.9699L63.09 18.1799C63.81 17.1899 63.54 17.0099 62.55 17.6399L59.85 19.6199C59.49 19.2599 59.13 18.8999 58.68 18.6299L60.3 15.6599C60.84 14.5799 60.57 14.3999 59.76 15.2099L57.33 17.4599C56.88 17.1899 56.52 16.8299 56.07 16.5599L57.33 13.4099C57.78 12.3299 57.51 12.1499 56.7 13.0499L54.54 15.5699C54.09 15.2999 53.64 15.1199 53.19 14.8499L54 11.6099C54.27 10.4399 54 10.3499 53.37 11.3399L51.57 14.1299C51.12 13.9499 50.58 13.7699 50.13 13.5899L50.58 10.2599C50.76 9.08988 50.49 8.99988 49.95 10.0799L48.42 13.0499C47.97 12.8699 47.43 12.7799 46.89 12.6899L46.98 9.35988C46.98 8.18988 46.71 8.09988 46.26 9.26988L45.09 12.4199C44.55 12.3299 44.1 12.2399 43.56 12.2399L43.02 8.99988C42.93 7.82988 42.57 7.82988 42.3 8.90988L41.49 12.1499C41.13 12.1499 40.77 12.1499 40.41 12.1499C40.23 12.1499 40.05 12.1499 39.96 12.1499L39.24 8.81988C38.97 7.64988 38.7 7.64988 38.52 8.81988L38.16 12.1499C37.62 12.1499 37.17 12.2399 36.63 12.3299L35.46 9.17988C35.1 8.09988 34.74 8.09988 34.74 9.26988L34.83 12.5999C34.29 12.6899 33.84 12.7799 33.3 12.9599L31.86 9.89988C31.32 8.81988 31.05 8.90988 31.14 10.0799L31.5 13.4099C31.05 13.5899 30.51 13.7699 30.06 13.9499L28.26 11.1599C27.63 10.1699 27.36 10.2599 27.63 11.4299L28.44 14.6699C27.99 14.8499 27.54 15.1199 27.09 15.3899L24.93 12.7799C24.21 11.8799 23.94 12.0599 24.3 13.1399L25.47 16.2899C25.02 16.5599 24.57 16.8299 24.21 17.0999L21.78 14.7599C20.88 13.9499 20.7 14.1299 21.24 15.2099L22.77 18.1799C22.41 18.5399 21.96 18.8099 21.6 19.1699L18.9 17.1899C17.91 16.4699 17.73 16.7399 18.36 17.6399L20.25 20.4299C19.89 20.7899 19.53 21.1499 19.17 21.5999L16.29 19.8899C15.3 19.2599 15.03 19.5299 15.84 20.4299L18 22.9499C17.73 23.3099 17.37 23.7599 17.1 24.2099L14.04 22.8599C12.96 22.4099 12.78 22.6799 13.68 23.4899L16.2 25.7399C15.93 26.1899 15.66 26.6399 15.48 27.0899L12.24 26.1899C11.07 25.8299 10.98 26.1899 11.97 26.8199L14.67 28.7099C14.49 29.1599 14.22 29.6099 14.04 30.1499L10.71 29.6099C9.54004 29.4299 9.45004 29.6999 10.44 30.2399L13.41 31.8599C13.23 32.3099 13.14 32.8499 12.96 33.2999L9.63004 33.2099C8.46004 33.2099 8.37004 33.4799 9.45004 33.9299L12.6 35.0999C12.51 35.6399 12.42 36.0899 12.33 36.6299L9.00004 37.0799C7.83004 37.1699 7.83004 37.4399 8.91004 37.7999L12.15 38.6999C12.15 39.2399 12.06 39.6899 12.06 40.2299L8.73004 40.8599C7.56004 41.0399 7.56004 41.3999 8.73004 41.5799L12.06 42.0299C12.06 42.5699 12.15 43.0199 12.15 43.5599L8.91004 44.5499C7.74004 44.9099 7.83004 45.1799 9.00004 45.2699L12.33 45.3599C12.42 45.8999 12.51 46.3499 12.6 46.8899L9.54004 48.3299C8.46004 48.8699 8.55004 49.1399 9.72004 49.0499L13.05 48.6899C13.23 49.2299 13.32 49.6799 13.5 50.2199L10.62 51.9299C9.63004 52.5599 9.72004 52.8299 10.89 52.5599L14.22 51.8399C14.4 52.2899 14.67 52.7399 14.85 53.2799L12.24 55.3499C11.34 56.0699 11.43 56.3399 12.6 55.9799L15.75 54.8999C16.02 55.3499 16.29 55.7999 16.56 56.2499L14.4 58.4099C13.59 59.2199 13.77 59.4899 14.76 58.9499L17.82 57.5099C18.09 57.9599 18.45 58.3199 18.81 58.6799L16.74 61.2899C16.02 62.1899 16.2 62.4599 17.19 61.8299L19.98 60.0299C20.34 60.3899 20.7 60.7499 21.06 61.1099L19.35 63.9899C18.72 64.9799 18.99 65.1599 19.89 64.4399L22.5 62.2799C22.86 62.6399 23.31 62.9099 23.76 63.2699L22.32 66.3299C21.78 67.4099 22.05 67.5899 22.86 66.6899L25.2 64.2599C25.65 64.5299 26.1 64.7999 26.55 65.0699L25.47 68.2199C25.11 69.2999 25.38 69.4799 26.1 68.5799L28.17 65.8799C28.62 66.0599 29.07 66.3299 29.61 66.5099L28.98 69.8399C28.71 71.0099 29.07 71.0999 29.61 70.1099L31.32 67.2299C31.77 67.4099 32.31 67.5899 32.76 67.6799L32.4 71.0999C32.31 72.2699 32.58 72.3599 33.12 71.2799L34.47 68.2199C35.01 68.3099 35.46 68.3999 36 68.4899L36.18 71.8199C36.27 72.9899 36.54 72.9899 36.9 71.9099L37.8 68.6699C38.34 68.7599 38.88 68.7599 39.33 68.7599L39.87 72.0899C40.05 73.2599 40.32 73.2599 40.59 72.0899L41.22 68.7599C41.76 68.7599 42.21 68.7599 42.75 68.6699L43.65 71.9099C44.01 73.0799 44.28 72.9899 44.37 71.8199L44.55 68.4899C45.09 68.3999 45.54 68.3099 46.08 68.2199L47.34 71.2799C47.79 72.3599 48.06 72.2699 48.06 71.0999L47.7 67.9499C48.24 67.8599 48.69 67.6799 49.14 67.4999L50.85 70.3799C51.48 71.3699 51.75 71.2799 51.48 70.1099L50.85 66.7799C51.3 66.5999 51.84 66.4199 52.29 66.1499L54.27 68.8499C54.99 69.8399 55.26 69.6599 54.9 68.4899L54 65.4299C54.45 65.1599 54.9 64.8899 55.35 64.6199L57.6 67.0499C58.41 67.9499 58.68 67.7699 58.23 66.6899L56.88 63.6299C57.33 63.3599 57.69 62.9999 58.14 62.7299L60.75 64.8899C61.65 65.6099 61.92 65.4299 61.29 64.4399L59.58 61.5599C59.94 61.1999 60.3 60.8399 60.66 60.4799L63.45 62.2799C64.44 62.9099 64.62 62.7299 63.9 61.7399L61.83 59.1299C62.19 58.7699 62.46 58.3199 62.82 57.9599L65.88 59.4899C66.96 60.0299 67.14 59.7599 66.33 58.9499L63.9 56.5199C64.17 56.0699 64.44 55.7099 64.71 55.2599L67.86 56.3399C68.94 56.6999 69.12 56.4299 68.22 55.7099L65.61 53.6399C65.88 53.1899 66.06 52.7399 66.33 52.1999L69.57 52.9199C70.74 53.1899 70.83 52.9199 69.84 52.2899L66.96 50.4899C67.14 50.0399 67.32 49.4999 67.5 49.0499L70.83 49.4099C72 49.4999 72.09 49.2299 71.01 48.6899L67.95 47.2499C68.04 46.7099 68.22 46.2599 68.31 45.7199L71.64 45.6299C72.81 45.6299 72.9 45.2699 71.73 44.9099L68.58 44.0999C68.67 43.5599 68.67 43.1099 68.76 42.5699L72.09 42.1199ZM28.71 57.9599C27.81 59.5799 25.47 59.7599 24.03 58.9499C23.04 58.4099 20.7 56.1599 18.54 52.6499C16.56 49.0499 15.48 44.9999 15.48 40.5899C15.48 33.2099 18.63 26.6399 23.76 22.0499C25.38 21.1499 27.63 21.3299 28.53 22.8599L37.44 38.1599C38.16 39.4199 38.16 41.8499 37.35 43.1099L28.71 57.9599ZM59.76 56.3399C56.88 59.7599 53.19 62.4599 48.87 63.9899C43.29 65.6099 36 65.6999 33.21 64.1699C31.32 63.2699 30.6 61.2899 31.5 59.6699L40.32 44.3699C41.04 43.1099 42.93 42.0299 44.37 42.0299H61.56C63.45 42.0299 64.71 43.6499 64.71 45.2699C64.71 46.7099 63.54 51.6599 59.76 56.3399ZM39.15 40.4999C39.15 39.7799 39.78 39.1499 40.5 39.1499C41.22 39.1499 41.85 39.7799 41.85 40.4999C41.85 41.2199 41.22 41.8499 40.5 41.8499C39.78 41.8499 39.15 41.2199 39.15 40.4999ZM61.92 38.8799H43.92C42.39 38.7899 40.59 37.5299 39.87 36.1799L31.32 21.3299C30.42 19.7099 31.41 17.9099 32.85 17.0999C33.84 16.5599 36.99 15.5699 41.13 15.5699C52.92 15.8399 62.64 24.3899 64.89 35.5499C65.16 37.4399 63.54 38.8799 61.92 38.8799Z" fill="url(#paint1_linear_2867_36308)"/>
<defs>
<linearGradient id="paint0_linear_2867_36308" x1="40.4874" y1="0.0252" x2="40.4874" y2="80.9982" gradientUnits="userSpaceOnUse">
<stop stop-color="#D3D7DD"/>
<stop offset="1" stop-color="#888C90"/>
</linearGradient>
<linearGradient id="paint1_linear_2867_36308" x1="40.4823" y1="8.05151" x2="40.4823" y2="73.0381" gradientUnits="userSpaceOnUse">
<stop stop-color="#D9DADB"/>
<stop offset="1" stop-color="#7D8082"/>
</linearGradient>
</defs>
</svg>
