<svg width="81" height="80" viewBox="0 0 81 80" fill="none" xmlns="http://www.w3.org/2000/svg">
<path d="M51.38 4C58.58 4 62.18 4 66.1 5.2C70.34 6.72 73.7 10.08 75.22 14.32C76.5 18.24 76.5 21.92 76.5 29.12V50.88C76.5 58.08 76.5 61.68 75.3 65.6C73.78 69.84 70.42 73.2 66.18 74.72C62.18 76 58.58 76 51.38 76H29.62C22.42 76 18.82 76 14.9 74.8C10.58 73.2 7.3 69.92 5.7 65.6C4.5 61.76 4.5 58.16 4.5 50.88V29.12C4.5 21.92 4.5 18.32 5.7 14.4C7.3 10.16 10.58 6.8 14.9 5.28C18.74 4 22.34 4 29.62 4H51.38Z" fill="url(#paint0_linear_2854_24435)"/>
<path d="M40.4998 71.1998C57.7311 71.1998 71.6998 57.2311 71.6998 39.9998C71.6998 22.7685 57.7311 8.7998 40.4998 8.7998C23.2685 8.7998 9.2998 22.7685 9.2998 39.9998C9.2998 57.2311 23.2685 71.1998 40.4998 71.1998Z" fill="#2E2E30"/>
<path d="M42.6005 23.3928C42.6798 23.404 42.759 23.4151 42.8382 23.4262C42.9966 23.4485 43.2343 23.4819 43.3928 23.5042L44.2591 21.3639C44.5177 20.6732 44.665 20.7747 44.6552 21.4196L44.5811 23.6712C44.8187 23.7046 45.1245 23.8283 45.3622 23.8617L46.455 21.8341C46.7817 21.2337 46.9402 21.256 46.84 21.969L46.449 24.176C46.6755 24.2887 46.9813 24.4124 47.2189 24.4458L48.5272 22.61C48.9331 22.0208 49.0804 22.1223 48.901 22.8241L48.2724 24.9978C48.4989 25.1104 48.8046 25.2342 49.02 25.426L50.4756 23.6917C50.9496 23.1928 51.0969 23.2943 50.8494 23.9058L49.9831 26.0461C50.1985 26.2379 50.425 26.3506 50.6404 26.5424L52.3114 24.9999C52.8646 24.5122 53.0119 24.6137 52.6741 25.2933L51.5924 27.2417C51.8078 27.4335 52.0232 27.6254 52.1594 27.8061L54.0345 26.5347C54.5767 26.1262 54.724 26.2277 54.318 26.8169L52.9083 28.8C53.1237 28.9919 53.2599 29.1726 53.4642 29.4436L55.4644 28.4322C56.0746 28.114 56.2219 28.2155 55.7367 28.7936L54.2131 30.4375C54.3493 30.6182 54.5536 30.8893 54.6786 31.1492L56.815 30.3185C57.4933 30.0907 57.5503 30.2603 57.0081 30.6688L55.2691 32.1209C55.3942 32.3808 55.5192 32.6407 55.6442 32.9007L57.8265 32.3187C58.4936 32.1701 58.5506 32.3397 58.0196 32.669L56.1444 33.9404C56.2694 34.2003 56.3153 34.4491 56.4403 34.7091L58.6684 34.3759C59.3244 34.3065 59.4606 34.4873 58.7711 34.7943L56.7709 35.8058C56.8167 36.0546 56.9418 36.3145 56.9764 36.6425L59.16 36.6262C59.8841 36.6472 59.8618 36.8057 59.2627 37.0446L57.2167 37.8073C57.2625 38.0561 57.2972 38.3841 57.343 38.6329L59.5723 38.8654C60.2853 38.9656 60.2631 39.1241 59.5959 39.2727L57.4248 39.7754C57.4706 40.0242 57.4261 40.3411 57.3927 40.5787L59.4983 41.117C60.2001 41.2964 60.1778 41.4549 59.4426 41.5131L57.2257 41.7671C57.1923 42.0047 57.1477 42.3216 57.1143 42.5593C57.1143 42.5593 57.1143 42.5593 57.1032 42.6385L59.1865 43.3352C59.8772 43.5939 59.855 43.7523 59.1308 43.7313L56.9473 43.7476C56.9028 44.0645 56.7902 44.291 56.7456 44.6079L58.7052 45.6104C59.3056 45.9371 59.2833 46.0956 58.5703 45.9953L56.4313 45.6947C56.3187 45.9213 56.2742 46.2381 56.1615 46.4647L58.0085 47.6937C58.5977 48.0996 58.4962 48.2469 57.8736 48.0787L55.768 47.5404C55.6554 47.7669 55.5316 48.0727 55.419 48.2992L57.0741 49.7436C57.573 50.2176 57.5507 50.3761 56.86 50.1174L54.867 49.3526C54.6752 49.568 54.5514 49.8738 54.3596 50.0892L55.8339 51.6697C56.3328 52.1438 56.2202 52.3703 55.5406 52.0324L53.5464 50.702C53.3545 50.9174 53.1627 51.1328 52.9708 51.3481L54.2645 53.0649C54.673 53.607 54.5715 53.7543 53.9823 53.3484L52.2146 52.1305C52.0227 52.3459 51.8309 52.5613 51.571 52.6863L52.6839 54.5393C53.0021 55.1495 52.9006 55.2968 52.3225 54.8116L50.6674 53.3672C50.3963 53.5715 50.2156 53.7077 49.9557 53.8327L50.8087 55.8107C51.1158 56.5001 50.9462 56.5571 50.4584 56.0038L48.9841 54.4232C48.7241 54.5483 48.4642 54.6733 48.2043 54.7983L48.7974 56.9014C49.0252 57.5797 48.8556 57.6366 48.4471 57.0945L47.2438 55.3096C46.9838 55.4347 46.7239 55.5597 46.3847 55.6736L46.729 57.8225C46.8776 58.4896 46.7081 58.5466 46.3107 57.9252L45.2881 56.0042C45.0393 56.05 44.7001 56.164 44.4513 56.2098L44.5579 58.3252C44.6162 59.0605 44.3785 59.0271 44.1396 58.428L43.3435 56.6196C43.0947 56.6654 42.7667 56.7001 42.5179 56.7459L42.3757 58.9072C42.3547 59.6313 42.1171 59.5979 41.9685 58.9307L41.3754 56.8277C41.1266 56.8735 40.8097 56.829 40.4817 56.8637L40.0226 58.9804C39.9224 59.6934 39.6848 59.66 39.6154 59.0039L39.4407 56.7982C39.1238 56.7536 38.8861 56.7202 38.5581 56.7549L37.8614 58.8382C37.6027 59.5289 37.4443 59.5067 37.4653 58.7825L37.449 56.599C37.1321 56.5545 36.8944 56.5211 36.5887 56.3973L35.6654 58.368C35.4179 58.9795 35.1803 58.9461 35.2805 58.2331L35.5019 56.083C35.1961 55.9593 34.9584 55.9259 34.7319 55.8132L33.5029 57.6602C33.1762 58.2605 32.9385 58.2271 33.1179 57.5253L33.577 55.4086C33.3505 55.2959 33.0447 55.1722 32.8182 55.0596L31.4419 56.805C31.0359 57.3942 30.8094 57.2816 31.068 56.5909L31.7647 54.5076C31.5382 54.395 31.3228 54.2031 31.0171 54.0793L29.4254 55.633C28.9513 56.1318 28.804 56.0303 29.0515 55.4188L30.054 53.4593C29.8386 53.2674 29.6232 53.0756 29.3967 52.963L27.6688 54.3359C27.1267 54.7444 26.9793 54.6429 27.3853 54.0537L28.6143 52.2067C28.3989 52.0149 28.1835 51.823 28.0585 51.5631L26.2278 52.5176C25.6065 52.915 25.4703 52.7343 25.9443 52.2354L27.3206 50.49C27.1052 50.2981 26.9802 50.0382 26.844 49.8575L24.8549 50.7897C24.2447 51.1079 24.1085 50.9272 24.5826 50.4283L26.1743 48.8747C26.0492 48.6148 25.9131 48.4341 25.788 48.1741L23.6739 48.8465C22.9956 49.0743 22.9386 48.9047 23.4808 48.4962L25.2879 47.1344C25.1628 46.8745 25.0378 46.6145 24.992 46.3657L22.832 46.7893C22.1648 46.9379 22.1079 46.7683 22.7292 46.3709L24.6614 45.2691C24.5363 45.0091 24.4905 44.7603 24.4447 44.5115L22.0805 44.664C21.3452 44.7222 21.2883 44.5526 21.9777 44.2456L24.0349 43.4037C23.9891 43.1549 23.9544 42.8269 23.9086 42.5781L21.657 42.504C20.9328 42.483 20.9551 42.3246 21.6334 42.0968L23.7475 41.4245C23.7017 41.1757 23.7463 40.8588 23.7004 40.61L21.4934 40.219C20.7804 40.1188 20.8138 39.8812 21.4698 39.8118L23.709 39.3994C23.7424 39.1617 23.7077 38.8337 23.7411 38.5961L21.5675 37.9674C20.8656 37.788 20.899 37.5503 21.6231 37.5713L23.897 37.487C23.9304 37.2493 23.9749 36.9324 24.0083 36.6947L21.9473 35.8396C21.3358 35.5921 21.3692 35.3544 22.0822 35.4546L24.3226 35.6079C24.3561 35.3702 24.4798 35.0645 24.5924 34.838L22.644 33.7563C22.0436 33.4295 22.0659 33.2711 22.7789 33.3713L24.986 33.7623C25.0986 33.5357 25.2223 33.23 25.335 33.0034L23.4992 31.6952C22.9099 31.2893 23.0114 31.142 23.7133 31.3214L25.8758 32.0292C25.9884 31.8027 26.1803 31.5873 26.2929 31.3608L24.649 29.8372C24.1501 29.3631 24.2516 29.2158 24.8631 29.4633L26.913 30.3977C27.1048 30.1823 27.2174 29.9558 27.4093 29.7404L25.9572 28.0014C25.4694 27.4481 25.6501 27.3119 26.2394 27.7179L28.1767 28.8788C28.3685 28.6634 28.5492 28.5272 28.7411 28.3118L27.4808 26.3574C27.0834 25.7361 27.253 25.6791 27.763 26.0739L29.5877 27.4614C29.7795 27.246 30.0394 27.1209 30.2313 26.9055L29.2532 24.6676C28.9351 24.0574 29.1158 23.9212 29.6146 24.3953L31.2475 25.9981C31.4282 25.862 31.6881 25.7369 31.948 25.6119L31.1965 23.4866C30.9687 22.8083 31.1383 22.7513 31.5468 23.2935L32.9878 25.1117C33.2477 24.9867 33.5076 24.8616 33.6883 24.7255L33.1967 22.4751C33.0481 21.808 33.2177 21.751 33.6262 22.2931L34.8073 24.2364C35.0672 24.1114 35.316 24.0656 35.5648 24.0197L35.322 21.7236C35.2638 20.9883 35.4334 20.9314 35.7404 21.6208L36.6615 23.6892C36.9103 23.6433 37.1591 23.5975 37.4079 23.5517L37.482 21.3001C37.503 20.576 37.6614 20.5982 37.8892 21.2765L38.5504 23.4699C38.7992 23.4241 39.1272 23.3894 39.3649 23.4228L39.6878 21.1254C39.788 20.4124 39.9464 20.4346 40.095 21.1018L40.5866 23.3521C40.8243 23.3855 41.1523 23.3509 41.3899 23.3843L41.9394 21.1995C42.1188 20.4976 42.2772 20.5199 42.3355 21.2551L42.6005 23.3928ZM38.5851 53.6888C46.1111 54.7465 53.0685 49.5038 54.1262 41.9777C55.1839 34.4517 49.9412 27.4944 42.4151 26.4366C34.8891 25.3789 27.8636 30.5313 26.8059 38.0573C25.7482 45.5834 31.059 52.6311 38.5851 53.6888Z" fill="black"/>
<path d="M42.6005 23.3928C42.6798 23.404 42.759 23.4151 42.8382 23.4262C42.9966 23.4485 43.2343 23.4819 43.3928 23.5042L44.2591 21.3639C44.5177 20.6732 44.665 20.7747 44.6552 21.4196L44.5811 23.6712C44.8187 23.7046 45.1245 23.8283 45.3622 23.8617L46.455 21.8341C46.7817 21.2337 46.9402 21.256 46.84 21.969L46.449 24.176C46.6755 24.2887 46.9813 24.4124 47.2189 24.4458L48.5272 22.61C48.9331 22.0208 49.0804 22.1223 48.901 22.8241L48.2724 24.9978C48.4989 25.1104 48.8046 25.2342 49.02 25.426L50.4756 23.6917C50.9496 23.1928 51.0969 23.2943 50.8494 23.9058L49.9831 26.0461C50.1985 26.2379 50.425 26.3506 50.6404 26.5424L52.3114 24.9999C52.8646 24.5122 53.0119 24.6137 52.6741 25.2933L51.5924 27.2417C51.8078 27.4335 52.0232 27.6254 52.1594 27.8061L54.0345 26.5347C54.5767 26.1262 54.724 26.2277 54.318 26.8169L52.9083 28.8C53.1237 28.9919 53.2599 29.1726 53.4642 29.4436L55.4644 28.4322C56.0746 28.114 56.2219 28.2155 55.7367 28.7936L54.2131 30.4375C54.3493 30.6182 54.5536 30.8893 54.6786 31.1492L56.815 30.3185C57.4933 30.0907 57.5503 30.2603 57.0081 30.6688L55.2691 32.1209C55.3942 32.3808 55.5192 32.6407 55.6442 32.9007L57.8265 32.3187C58.4936 32.1701 58.5506 32.3397 58.0196 32.669L56.1444 33.9404C56.2694 34.2003 56.3153 34.4491 56.4403 34.7091L58.6684 34.3759C59.3244 34.3065 59.4606 34.4873 58.7711 34.7943L56.7709 35.8058C56.8167 36.0546 56.9418 36.3145 56.9764 36.6425L59.16 36.6262C59.8841 36.6472 59.8618 36.8057 59.2627 37.0446L57.2167 37.8073C57.2625 38.0561 57.2972 38.3841 57.343 38.6329L59.5723 38.8654C60.2853 38.9656 60.2631 39.1241 59.5959 39.2727L57.4248 39.7754C57.4706 40.0242 57.4261 40.3411 57.3927 40.5787L59.4983 41.117C60.2001 41.2964 60.1778 41.4549 59.4426 41.5131L57.2257 41.7671C57.1923 42.0047 57.1477 42.3216 57.1143 42.5593C57.1143 42.5593 57.1143 42.5593 57.1032 42.6385L59.1865 43.3352C59.8772 43.5939 59.855 43.7523 59.1308 43.7313L56.9473 43.7476C56.9028 44.0645 56.7902 44.291 56.7456 44.6079L58.7052 45.6104C59.3056 45.9371 59.2833 46.0956 58.5703 45.9953L56.4313 45.6947C56.3187 45.9213 56.2742 46.2381 56.1615 46.4647L58.0085 47.6937C58.5977 48.0996 58.4962 48.2469 57.8736 48.0787L55.768 47.5404C55.6554 47.7669 55.5316 48.0727 55.419 48.2992L57.0741 49.7436C57.573 50.2176 57.5507 50.3761 56.86 50.1174L54.867 49.3526C54.6752 49.568 54.5514 49.8738 54.3596 50.0892L55.8339 51.6697C56.3328 52.1438 56.2202 52.3703 55.5406 52.0324L53.5464 50.702C53.3545 50.9174 53.1627 51.1328 52.9708 51.3481L54.2645 53.0649C54.673 53.607 54.5715 53.7543 53.9823 53.3484L52.2146 52.1305C52.0227 52.3459 51.8309 52.5613 51.571 52.6863L52.6839 54.5393C53.0021 55.1495 52.9006 55.2968 52.3225 54.8116L50.6674 53.3672C50.3963 53.5715 50.2156 53.7077 49.9557 53.8327L50.8087 55.8107C51.1158 56.5001 50.9462 56.5571 50.4584 56.0038L48.9841 54.4232C48.7241 54.5483 48.4642 54.6733 48.2043 54.7983L48.7974 56.9014C49.0252 57.5797 48.8556 57.6366 48.4471 57.0945L47.2438 55.3096C46.9838 55.4347 46.7239 55.5597 46.3847 55.6736L46.729 57.8225C46.8776 58.4896 46.7081 58.5466 46.3107 57.9252L45.2881 56.0042C45.0393 56.05 44.7001 56.164 44.4513 56.2098L44.5579 58.3252C44.6162 59.0605 44.3785 59.0271 44.1396 58.428L43.3435 56.6196C43.0947 56.6654 42.7667 56.7001 42.5179 56.7459L42.3757 58.9072C42.3547 59.6313 42.1171 59.5979 41.9685 58.9307L41.3754 56.8277C41.1266 56.8735 40.8097 56.829 40.4817 56.8637L40.0226 58.9804C39.9224 59.6934 39.6848 59.66 39.6154 59.0039L39.4407 56.7982C39.1238 56.7536 38.8861 56.7202 38.5581 56.7549L37.8614 58.8382C37.6027 59.5289 37.4443 59.5067 37.4653 58.7825L37.449 56.599C37.1321 56.5545 36.8944 56.5211 36.5887 56.3973L35.6654 58.368C35.4179 58.9795 35.1803 58.9461 35.2805 58.2331L35.5019 56.083C35.1961 55.9593 34.9584 55.9259 34.7319 55.8132L33.5029 57.6602C33.1762 58.2605 32.9385 58.2271 33.1179 57.5253L33.577 55.4086C33.3505 55.2959 33.0447 55.1722 32.8182 55.0596L31.4419 56.805C31.0359 57.3942 30.8094 57.2816 31.068 56.5909L31.7647 54.5076C31.5382 54.395 31.3228 54.2031 31.0171 54.0793L29.4254 55.633C28.9513 56.1318 28.804 56.0303 29.0515 55.4188L30.054 53.4593C29.8386 53.2674 29.6232 53.0756 29.3967 52.963L27.6688 54.3359C27.1267 54.7444 26.9793 54.6429 27.3853 54.0537L28.6143 52.2067C28.3989 52.0149 28.1835 51.823 28.0585 51.5631L26.2278 52.5176C25.6065 52.915 25.4703 52.7343 25.9443 52.2354L27.3206 50.49C27.1052 50.2981 26.9802 50.0382 26.844 49.8575L24.8549 50.7897C24.2447 51.1079 24.1085 50.9272 24.5826 50.4283L26.1743 48.8747C26.0492 48.6148 25.9131 48.4341 25.788 48.1741L23.6739 48.8465C22.9956 49.0743 22.9386 48.9047 23.4808 48.4962L25.2879 47.1344C25.1628 46.8745 25.0378 46.6145 24.992 46.3657L22.832 46.7893C22.1648 46.9379 22.1079 46.7683 22.7292 46.3709L24.6614 45.2691C24.5363 45.0091 24.4905 44.7603 24.4447 44.5115L22.0805 44.664C21.3452 44.7222 21.2883 44.5526 21.9777 44.2456L24.0349 43.4037C23.9891 43.1549 23.9544 42.8269 23.9086 42.5781L21.657 42.504C20.9328 42.483 20.9551 42.3246 21.6334 42.0968L23.7475 41.4245C23.7017 41.1757 23.7463 40.8588 23.7004 40.61L21.4934 40.219C20.7804 40.1188 20.8138 39.8812 21.4698 39.8118L23.709 39.3994C23.7424 39.1617 23.7077 38.8337 23.7411 38.5961L21.5675 37.9674C20.8656 37.788 20.899 37.5503 21.6231 37.5713L23.897 37.487C23.9304 37.2493 23.9749 36.9324 24.0083 36.6947L21.9473 35.8396C21.3358 35.5921 21.3692 35.3544 22.0822 35.4546L24.3226 35.6079C24.3561 35.3702 24.4798 35.0645 24.5924 34.838L22.644 33.7563C22.0436 33.4295 22.0659 33.2711 22.7789 33.3713L24.986 33.7623C25.0986 33.5357 25.2223 33.23 25.335 33.0034L23.4992 31.6952C22.9099 31.2893 23.0114 31.142 23.7133 31.3214L25.8758 32.0292C25.9884 31.8027 26.1803 31.5873 26.2929 31.3608L24.649 29.8372C24.1501 29.3631 24.2516 29.2158 24.8631 29.4633L26.913 30.3977C27.1048 30.1823 27.2174 29.9558 27.4093 29.7404L25.9572 28.0014C25.4694 27.4481 25.6501 27.3119 26.2394 27.7179L28.1767 28.8788C28.3685 28.6634 28.5492 28.5272 28.7411 28.3118L27.4808 26.3574C27.0834 25.7361 27.253 25.6791 27.763 26.0739L29.5877 27.4614C29.7795 27.246 30.0394 27.1209 30.2313 26.9055L29.2532 24.6676C28.9351 24.0574 29.1158 23.9212 29.6146 24.3953L31.2475 25.9981C31.4282 25.862 31.6881 25.7369 31.948 25.6119L31.1965 23.4866C30.9687 22.8083 31.1383 22.7513 31.5468 23.2935L32.9878 25.1117C33.2477 24.9867 33.5076 24.8616 33.6883 24.7255L33.1967 22.4751C33.0481 21.808 33.2177 21.751 33.6262 22.2931L34.8073 24.2364C35.0672 24.1114 35.316 24.0656 35.5648 24.0197L35.322 21.7236C35.2638 20.9883 35.4334 20.9314 35.7404 21.6208L36.6615 23.6892C36.9103 23.6433 37.1591 23.5975 37.4079 23.5517L37.482 21.3001C37.503 20.576 37.6614 20.5982 37.8892 21.2765L38.5504 23.4699C38.7992 23.4241 39.1272 23.3894 39.3649 23.4228L39.6878 21.1254C39.788 20.4124 39.9464 20.4346 40.095 21.1018L40.5866 23.3521C40.8243 23.3855 41.1523 23.3509 41.3899 23.3843L41.9394 21.1995C42.1188 20.4976 42.2772 20.5199 42.3355 21.2551L42.6005 23.3928ZM38.5851 53.6888C46.1111 54.7465 53.0685 49.5038 54.1262 41.9777C55.1839 34.4517 49.9412 27.4944 42.4151 26.4366C34.8891 25.3789 27.8636 30.5313 26.8059 38.0573C25.7482 45.5834 31.059 52.6311 38.5851 53.6888Z" fill="#7F7F7F"/>
<path d="M42.6005 23.3928C42.6798 23.404 42.759 23.4151 42.8382 23.4262C42.9966 23.4485 43.2343 23.4819 43.3928 23.5042L44.2591 21.3639C44.5177 20.6732 44.665 20.7747 44.6552 21.4196L44.5811 23.6712C44.8187 23.7046 45.1245 23.8283 45.3622 23.8617L46.455 21.8341C46.7817 21.2337 46.9402 21.256 46.84 21.969L46.449 24.176C46.6755 24.2887 46.9813 24.4124 47.2189 24.4458L48.5272 22.61C48.9331 22.0208 49.0804 22.1223 48.901 22.8241L48.2724 24.9978C48.4989 25.1104 48.8046 25.2342 49.02 25.426L50.4756 23.6917C50.9496 23.1928 51.0969 23.2943 50.8494 23.9058L49.9831 26.0461C50.1985 26.2379 50.425 26.3506 50.6404 26.5424L52.3114 24.9999C52.8646 24.5122 53.0119 24.6137 52.6741 25.2933L51.5924 27.2417C51.8078 27.4335 52.0232 27.6254 52.1594 27.8061L54.0345 26.5347C54.5767 26.1262 54.724 26.2277 54.318 26.8169L52.9083 28.8C53.1237 28.9919 53.2599 29.1726 53.4642 29.4436L55.4644 28.4322C56.0746 28.114 56.2219 28.2155 55.7367 28.7936L54.2131 30.4375C54.3493 30.6182 54.5536 30.8893 54.6786 31.1492L56.815 30.3185C57.4933 30.0907 57.5503 30.2603 57.0081 30.6688L55.2691 32.1209C55.3942 32.3808 55.5192 32.6407 55.6442 32.9007L57.8265 32.3187C58.4936 32.1701 58.5506 32.3397 58.0196 32.669L56.1444 33.9404C56.2694 34.2003 56.3153 34.4491 56.4403 34.7091L58.6684 34.3759C59.3244 34.3065 59.4606 34.4873 58.7711 34.7943L56.7709 35.8058C56.8167 36.0546 56.9418 36.3145 56.9764 36.6425L59.16 36.6262C59.8841 36.6472 59.8618 36.8057 59.2627 37.0446L57.2167 37.8073C57.2625 38.0561 57.2972 38.3841 57.343 38.6329L59.5723 38.8654C60.2853 38.9656 60.2631 39.1241 59.5959 39.2727L57.4248 39.7754C57.4706 40.0242 57.4261 40.3411 57.3927 40.5787L59.4983 41.117C60.2001 41.2964 60.1778 41.4549 59.4426 41.5131L57.2257 41.7671C57.1923 42.0047 57.1477 42.3216 57.1143 42.5593C57.1143 42.5593 57.1143 42.5593 57.1032 42.6385L59.1865 43.3352C59.8772 43.5939 59.855 43.7523 59.1308 43.7313L56.9473 43.7476C56.9028 44.0645 56.7902 44.291 56.7456 44.6079L58.7052 45.6104C59.3056 45.9371 59.2833 46.0956 58.5703 45.9953L56.4313 45.6947C56.3187 45.9213 56.2742 46.2381 56.1615 46.4647L58.0085 47.6937C58.5977 48.0996 58.4962 48.2469 57.8736 48.0787L55.768 47.5404C55.6554 47.7669 55.5316 48.0727 55.419 48.2992L57.0741 49.7436C57.573 50.2176 57.5507 50.3761 56.86 50.1174L54.867 49.3526C54.6752 49.568 54.5514 49.8738 54.3596 50.0892L55.8339 51.6697C56.3328 52.1438 56.2202 52.3703 55.5406 52.0324L53.5464 50.702C53.3545 50.9174 53.1627 51.1328 52.9708 51.3481L54.2645 53.0649C54.673 53.607 54.5715 53.7543 53.9823 53.3484L52.2146 52.1305C52.0227 52.3459 51.8309 52.5613 51.571 52.6863L52.6839 54.5393C53.0021 55.1495 52.9006 55.2968 52.3225 54.8116L50.6674 53.3672C50.3963 53.5715 50.2156 53.7077 49.9557 53.8327L50.8087 55.8107C51.1158 56.5001 50.9462 56.5571 50.4584 56.0038L48.9841 54.4232C48.7241 54.5483 48.4642 54.6733 48.2043 54.7983L48.7974 56.9014C49.0252 57.5797 48.8556 57.6366 48.4471 57.0945L47.2438 55.3096C46.9838 55.4347 46.7239 55.5597 46.3847 55.6736L46.729 57.8225C46.8776 58.4896 46.7081 58.5466 46.3107 57.9252L45.2881 56.0042C45.0393 56.05 44.7001 56.164 44.4513 56.2098L44.5579 58.3252C44.6162 59.0605 44.3785 59.0271 44.1396 58.428L43.3435 56.6196C43.0947 56.6654 42.7667 56.7001 42.5179 56.7459L42.3757 58.9072C42.3547 59.6313 42.1171 59.5979 41.9685 58.9307L41.3754 56.8277C41.1266 56.8735 40.8097 56.829 40.4817 56.8637L40.0226 58.9804C39.9224 59.6934 39.6848 59.66 39.6154 59.0039L39.4407 56.7982C39.1238 56.7536 38.8861 56.7202 38.5581 56.7549L37.8614 58.8382C37.6027 59.5289 37.4443 59.5067 37.4653 58.7825L37.449 56.599C37.1321 56.5545 36.8944 56.5211 36.5887 56.3973L35.6654 58.368C35.4179 58.9795 35.1803 58.9461 35.2805 58.2331L35.5019 56.083C35.1961 55.9593 34.9584 55.9259 34.7319 55.8132L33.5029 57.6602C33.1762 58.2605 32.9385 58.2271 33.1179 57.5253L33.577 55.4086C33.3505 55.2959 33.0447 55.1722 32.8182 55.0596L31.4419 56.805C31.0359 57.3942 30.8094 57.2816 31.068 56.5909L31.7647 54.5076C31.5382 54.395 31.3228 54.2031 31.0171 54.0793L29.4254 55.633C28.9513 56.1318 28.804 56.0303 29.0515 55.4188L30.054 53.4593C29.8386 53.2674 29.6232 53.0756 29.3967 52.963L27.6688 54.3359C27.1267 54.7444 26.9793 54.6429 27.3853 54.0537L28.6143 52.2067C28.3989 52.0149 28.1835 51.823 28.0585 51.5631L26.2278 52.5176C25.6065 52.915 25.4703 52.7343 25.9443 52.2354L27.3206 50.49C27.1052 50.2981 26.9802 50.0382 26.844 49.8575L24.8549 50.7897C24.2447 51.1079 24.1085 50.9272 24.5826 50.4283L26.1743 48.8747C26.0492 48.6148 25.9131 48.4341 25.788 48.1741L23.6739 48.8465C22.9956 49.0743 22.9386 48.9047 23.4808 48.4962L25.2879 47.1344C25.1628 46.8745 25.0378 46.6145 24.992 46.3657L22.832 46.7893C22.1648 46.9379 22.1079 46.7683 22.7292 46.3709L24.6614 45.2691C24.5363 45.0091 24.4905 44.7603 24.4447 44.5115L22.0805 44.664C21.3452 44.7222 21.2883 44.5526 21.9777 44.2456L24.0349 43.4037C23.9891 43.1549 23.9544 42.8269 23.9086 42.5781L21.657 42.504C20.9328 42.483 20.9551 42.3246 21.6334 42.0968L23.7475 41.4245C23.7017 41.1757 23.7463 40.8588 23.7004 40.61L21.4934 40.219C20.7804 40.1188 20.8138 39.8812 21.4698 39.8118L23.709 39.3994C23.7424 39.1617 23.7077 38.8337 23.7411 38.5961L21.5675 37.9674C20.8656 37.788 20.899 37.5503 21.6231 37.5713L23.897 37.487C23.9304 37.2493 23.9749 36.9324 24.0083 36.6947L21.9473 35.8396C21.3358 35.5921 21.3692 35.3544 22.0822 35.4546L24.3226 35.6079C24.3561 35.3702 24.4798 35.0645 24.5924 34.838L22.644 33.7563C22.0436 33.4295 22.0659 33.2711 22.7789 33.3713L24.986 33.7623C25.0986 33.5357 25.2223 33.23 25.335 33.0034L23.4992 31.6952C22.9099 31.2893 23.0114 31.142 23.7133 31.3214L25.8758 32.0292C25.9884 31.8027 26.1803 31.5873 26.2929 31.3608L24.649 29.8372C24.1501 29.3631 24.2516 29.2158 24.8631 29.4633L26.913 30.3977C27.1048 30.1823 27.2174 29.9558 27.4093 29.7404L25.9572 28.0014C25.4694 27.4481 25.6501 27.3119 26.2394 27.7179L28.1767 28.8788C28.3685 28.6634 28.5492 28.5272 28.7411 28.3118L27.4808 26.3574C27.0834 25.7361 27.253 25.6791 27.763 26.0739L29.5877 27.4614C29.7795 27.246 30.0394 27.1209 30.2313 26.9055L29.2532 24.6676C28.9351 24.0574 29.1158 23.9212 29.6146 24.3953L31.2475 25.9981C31.4282 25.862 31.6881 25.7369 31.948 25.6119L31.1965 23.4866C30.9687 22.8083 31.1383 22.7513 31.5468 23.2935L32.9878 25.1117C33.2477 24.9867 33.5076 24.8616 33.6883 24.7255L33.1967 22.4751C33.0481 21.808 33.2177 21.751 33.6262 22.2931L34.8073 24.2364C35.0672 24.1114 35.316 24.0656 35.5648 24.0197L35.322 21.7236C35.2638 20.9883 35.4334 20.9314 35.7404 21.6208L36.6615 23.6892C36.9103 23.6433 37.1591 23.5975 37.4079 23.5517L37.482 21.3001C37.503 20.576 37.6614 20.5982 37.8892 21.2765L38.5504 23.4699C38.7992 23.4241 39.1272 23.3894 39.3649 23.4228L39.6878 21.1254C39.788 20.4124 39.9464 20.4346 40.095 21.1018L40.5866 23.3521C40.8243 23.3855 41.1523 23.3509 41.3899 23.3843L41.9394 21.1995C42.1188 20.4976 42.2772 20.5199 42.3355 21.2551L42.6005 23.3928ZM38.5851 53.6888C46.1111 54.7465 53.0685 49.5038 54.1262 41.9777C55.1839 34.4517 49.9412 27.4944 42.4151 26.4366C34.8891 25.3789 27.8636 30.5313 26.8059 38.0573C25.7482 45.5834 31.059 52.6311 38.5851 53.6888Z" fill="#777777"/>
<path d="M68.58 41.4396C69.62 41.2796 69.62 41.0396 68.58 40.7996L65.62 40.2396C65.62 40.1596 65.62 40.0796 65.62 39.9996C65.62 39.5996 65.62 39.1996 65.62 38.7996L68.5 38.0796C69.54 37.8396 69.46 37.5196 68.42 37.4396L65.46 37.1996C65.38 36.7196 65.38 36.3196 65.3 35.8396L68.1 34.7996C69.06 34.3996 69.06 34.1596 68.02 34.1596L65.06 34.2396C64.98 33.7596 64.82 33.3596 64.74 32.8796L67.38 31.5196C68.34 31.0396 68.18 30.7996 67.22 30.9596L64.26 31.4396C64.1 31.0396 63.94 30.5596 63.78 30.1596L66.26 28.4796C67.14 27.8396 66.98 27.5996 66.02 27.9196L63.14 28.7196C62.9 28.3196 62.74 27.9196 62.5 27.5196L64.74 25.5196C65.54 24.7996 65.38 24.5596 64.42 24.9596L61.7 26.0796C61.46 25.6796 61.14 25.2796 60.9 24.9596L62.9 22.7196C63.62 21.9196 63.46 21.7596 62.5 22.2396L59.7 23.6796C59.38 23.3596 59.14 22.9596 58.82 22.6396L60.58 20.1596C61.22 19.2796 60.98 19.1196 60.1 19.6796L57.7 21.4396C57.38 21.1196 57.06 20.7996 56.66 20.5596L58.1 17.9196C58.58 16.9596 58.34 16.7996 57.62 17.5196L55.46 19.5196C55.06 19.2796 54.74 18.9596 54.34 18.7196L55.46 15.9196C55.86 14.9596 55.62 14.7996 54.9 15.5996L52.98 17.8396C52.58 17.5996 52.18 17.4396 51.78 17.1996L52.5 14.3196C52.74 13.2796 52.5 13.1996 51.94 14.0796L50.34 16.5596C49.94 16.3996 49.46 16.2396 49.06 16.0796L49.46 13.1196C49.62 12.0796 49.38 11.9996 48.9 12.9596L47.54 15.5996C47.14 15.4396 46.66 15.3596 46.18 15.2796L46.26 12.3196C46.26 11.2796 46.02 11.1996 45.62 12.2396L44.58 15.0396C44.1 14.9596 43.7 14.8796 43.22 14.8796L42.74 11.9996C42.66 10.9596 42.34 10.9596 42.1 11.9196L41.38 14.7996C41.06 14.7996 40.74 14.7996 40.42 14.7996C40.26 14.7996 40.1 14.7996 40.02 14.7996L39.38 11.8396C39.14 10.7996 38.9 10.7996 38.74 11.8396L38.42 14.7996C37.94 14.7996 37.54 14.8796 37.06 14.9596L36.02 12.1596C35.7 11.1996 35.38 11.1996 35.38 12.2396L35.46 15.1996C34.98 15.2796 34.58 15.3596 34.1 15.5196L32.82 12.7996C32.34 11.8396 32.1 11.9196 32.18 12.9596L32.5 15.9196C32.1 16.0796 31.62 16.2396 31.22 16.3996L29.62 13.9196C29.06 13.0396 28.82 13.1196 29.06 14.1596L29.78 17.0396C29.38 17.1996 28.98 17.4396 28.58 17.6796L26.66 15.3596C26.02 14.5596 25.78 14.7196 26.1 15.6796L27.14 18.4796C26.74 18.7196 26.34 18.9596 26.02 19.1996L23.86 17.1196C23.06 16.3996 22.9 16.5596 23.38 17.5196L24.74 20.1596C24.42 20.4796 24.02 20.7196 23.7 21.0396L21.3 19.2796C20.42 18.6396 20.26 18.8796 20.82 19.6796L22.5 22.1596C22.18 22.4796 21.86 22.7996 21.54 23.1996L18.98 21.6796C18.1 21.1196 17.86 21.3596 18.58 22.1596L20.5 24.3996C20.26 24.7196 19.94 25.1196 19.7 25.5196L16.98 24.3196C16.02 23.9196 15.86 24.1596 16.66 24.8796L18.9 26.8796C18.66 27.2796 18.42 27.6796 18.26 28.0796L15.38 27.2796C14.34 26.9596 14.26 27.2796 15.14 27.8396L17.54 29.5196C17.38 29.9196 17.14 30.3196 16.98 30.7996L14.02 30.3196C12.98 30.1596 12.9 30.3996 13.78 30.8796L16.42 32.3196C16.26 32.7196 16.18 33.1996 16.02 33.5996L13.06 33.5196C12.02 33.5196 11.94 33.7596 12.9 34.1596L15.7 35.1996C15.62 35.6796 15.54 36.0796 15.46 36.5596L12.5 36.9596C11.46 37.0396 11.46 37.2796 12.42 37.5996L15.3 38.3996C15.3 38.8796 15.22 39.2796 15.22 39.7596L12.26 40.3196C11.22 40.4796 11.22 40.7996 12.26 40.9596L15.22 41.3596C15.22 41.8396 15.3 42.2396 15.3 42.7196L12.42 43.5996C11.38 43.9196 11.46 44.1596 12.5 44.2396L15.46 44.3196C15.54 44.7996 15.62 45.1996 15.7 45.6796L12.98 46.9596C12.02 47.4396 12.1 47.6796 13.14 47.5996L16.1 47.2796C16.26 47.7596 16.34 48.1596 16.5 48.6396L13.94 50.1596C13.06 50.7196 13.14 50.9596 14.18 50.7196L17.14 50.0796C17.3 50.4796 17.54 50.8796 17.7 51.3596L15.38 53.1996C14.58 53.8396 14.66 54.0796 15.7 53.7596L18.5 52.7996C18.74 53.1996 18.98 53.5996 19.22 53.9996L17.3 55.9196C16.58 56.6396 16.74 56.8796 17.62 56.3996L20.34 55.1196C20.58 55.5196 20.9 55.8396 21.22 56.1596L19.38 58.4796C18.74 59.2796 18.9 59.5196 19.78 58.9596L22.26 57.3596C22.58 57.6796 22.9 57.9996 23.22 58.3196L21.7 60.8796C21.14 61.7596 21.38 61.9196 22.18 61.2796L24.5 59.3596C24.82 59.6796 25.22 59.9196 25.62 60.2396L24.34 62.9596C23.86 63.9196 24.1 64.0796 24.82 63.2796L26.9 61.1196C27.3 61.3596 27.7 61.5996 28.1 61.8396L27.14 64.6396C26.82 65.5996 27.06 65.7596 27.7 64.9596L29.54 62.5596C29.94 62.7196 30.34 62.9596 30.82 63.1196L30.26 66.0796C30.02 67.1196 30.34 67.1996 30.82 66.3196L32.34 63.7596C32.74 63.9196 33.22 64.0796 33.62 64.1596L33.3 67.1996C33.22 68.2396 33.46 68.3196 33.94 67.3596L35.14 64.6396C35.62 64.7196 36.02 64.7996 36.5 64.8796L36.66 67.8396C36.74 68.8796 36.98 68.8796 37.3 67.9196L38.1 65.0396C38.58 65.1196 39.06 65.1196 39.46 65.1196L39.94 68.0796C40.1 69.1196 40.34 69.1196 40.58 68.0796L41.14 65.1196C41.62 65.1196 42.02 65.1196 42.5 65.0396L43.3 67.9196C43.62 68.9596 43.86 68.8796 43.94 67.8396L44.1 64.8796C44.58 64.7996 44.98 64.7196 45.46 64.6396L46.58 67.3596C46.98 68.3196 47.22 68.2396 47.22 67.1996L46.9 64.3996C47.38 64.3196 47.78 64.1596 48.18 63.9996L49.7 66.5596C50.26 67.4396 50.5 67.3596 50.26 66.3196L49.7 63.3596C50.1 63.1996 50.58 63.0396 50.98 62.7996L52.74 65.1996C53.38 66.0796 53.62 65.9196 53.3 64.8796L52.5 62.1596C52.9 61.9196 53.3 61.6796 53.7 61.4396L55.7 63.5996C56.42 64.3996 56.66 64.2396 56.26 63.2796L55.06 60.5596C55.46 60.3196 55.78 59.9996 56.18 59.7596L58.5 61.6796C59.3 62.3196 59.54 62.1596 58.98 61.2796L57.46 58.7196C57.78 58.3996 58.1 58.0796 58.42 57.7596L60.9 59.3596C61.78 59.9196 61.94 59.7596 61.3 58.8796L59.46 56.5596C59.78 56.2396 60.02 55.8396 60.34 55.5196L63.06 56.8796C64.02 57.3596 64.18 57.1196 63.46 56.3996L61.3 54.2396C61.54 53.8396 61.78 53.5196 62.02 53.1196L64.82 54.0796C65.78 54.3996 65.94 54.1596 65.14 53.5196L62.82 51.6796C63.06 51.2796 63.22 50.8796 63.46 50.3996L66.34 51.0396C67.38 51.2796 67.46 51.0396 66.58 50.4796L64.02 48.8796C64.18 48.4796 64.34 47.9996 64.5 47.5996L67.46 47.9196C68.5 47.9996 68.58 47.7596 67.62 47.2796L64.9 45.9996C64.98 45.5196 65.14 45.1196 65.22 44.6396L68.18 44.5596C69.22 44.5596 69.3 44.2396 68.26 43.9196L65.46 43.1996C65.54 42.7196 65.54 42.3196 65.62 41.8396L68.58 41.4396ZM30.02 55.5196C29.22 56.9596 27.14 57.1196 25.86 56.3996C24.98 55.9196 22.9 53.9196 20.98 50.7996C19.22 47.5996 18.26 43.9996 18.26 40.0796C18.26 33.5196 21.06 27.6796 25.62 23.5996C27.06 22.7996 29.06 22.9596 29.86 24.3196L37.78 37.9196C38.42 39.0396 38.42 41.1996 37.7 42.3196L30.02 55.5196ZM57.62 54.0796C55.06 57.1196 51.78 59.5196 47.94 60.8796C42.98 62.3196 36.5 62.3996 34.02 61.0396C32.34 60.2396 31.7 58.4796 32.5 57.0396L40.34 43.4396C40.98 42.3196 42.66 41.3596 43.94 41.3596H59.22C60.9 41.3596 62.02 42.7996 62.02 44.2396C62.02 45.5196 60.98 49.9196 57.62 54.0796ZM39.3 39.9996C39.3 39.3596 39.86 38.7996 40.5 38.7996C41.14 38.7996 41.7 39.3596 41.7 39.9996C41.7 40.6396 41.14 41.1996 40.5 41.1996C39.86 41.1996 39.3 40.6396 39.3 39.9996ZM59.54 38.5596H43.54C42.18 38.4796 40.58 37.3596 39.94 36.1596L32.34 22.9596C31.54 21.5196 32.42 19.9196 33.7 19.1996C34.58 18.7196 37.38 17.8396 41.06 17.8396C51.54 18.0796 60.18 25.6796 62.18 35.5996C62.42 37.2796 60.98 38.5596 59.54 38.5596Z" fill="url(#paint1_linear_2854_24435)"/>
<rect x="60.5" width="20" height="20" rx="10" fill="#FF3B30"/>
<path d="M70.5234 14.188C70.0186 14.188 69.571 14.0913 69.1807 13.8979C68.7904 13.7046 68.4788 13.4414 68.2461 13.1084C68.0133 12.7718 67.8773 12.3958 67.8379 11.9805L67.8325 11.9106H68.9658L68.9712 11.9536C69.007 12.1792 69.0929 12.3851 69.229 12.5713C69.3687 12.7575 69.5513 12.9043 69.7769 13.0117C70.0024 13.1191 70.2549 13.1729 70.5342 13.1729C70.8529 13.1729 71.134 13.103 71.3774 12.9634C71.6209 12.8201 71.8107 12.625 71.9468 12.3779C72.0864 12.1309 72.1562 11.8462 72.1562 11.5239V11.5132C72.1562 11.1945 72.0864 10.9116 71.9468 10.6646C71.8071 10.4175 71.6174 10.2259 71.3774 10.0898C71.1375 9.9502 70.86 9.88037 70.5449 9.88037C70.3122 9.88037 70.0955 9.91618 69.895 9.98779C69.6981 10.0558 69.5226 10.1597 69.3687 10.2993C69.3006 10.3638 69.2362 10.4336 69.1753 10.5088C69.1144 10.5804 69.0607 10.661 69.0142 10.7505H67.9722L68.3589 6.24951H72.8706V7.27002H69.3096L69.0732 9.74072H69.1592C69.2702 9.56527 69.408 9.41667 69.5728 9.29492C69.741 9.17318 69.9308 9.08008 70.1421 9.01562C70.3534 8.95117 70.5771 8.91895 70.8135 8.91895C71.3005 8.91895 71.7301 9.02995 72.1025 9.25195C72.4785 9.47396 72.7739 9.77832 72.9888 10.165C73.2036 10.5518 73.311 10.994 73.311 11.4917V11.5024C73.311 12.0288 73.1911 12.4943 72.9512 12.8989C72.7148 13.3035 72.3872 13.6204 71.9683 13.8496C71.5529 14.0752 71.0713 14.188 70.5234 14.188Z" fill="white"/>
<defs>
<linearGradient id="paint0_linear_2854_24435" x1="40.4888" y1="4.0224" x2="40.4888" y2="75.9984" gradientUnits="userSpaceOnUse">
<stop stop-color="#D3D7DD"/>
<stop offset="1" stop-color="#888C90"/>
</linearGradient>
<linearGradient id="paint1_linear_2854_24435" x1="40.4842" y1="11.1566" x2="40.4842" y2="68.9225" gradientUnits="userSpaceOnUse">
<stop stop-color="#D9DADB"/>
<stop offset="1" stop-color="#7D8082"/>
</linearGradient>
</defs>
</svg>
