<svg width="35" height="34" viewBox="0 0 35 34" fill="none" xmlns="http://www.w3.org/2000/svg">
<mask id="path-1-inside-1_1493_5755" fill="white">
<path d="M34.5 17C34.5 26.3888 26.8888 34 17.5 34C8.11116 34 0.5 26.3888 0.5 17C0.5 7.61116 8.11116 0 17.5 0C26.8888 0 34.5 7.61116 34.5 17ZM2.2 17C2.2 25.45 9.05004 32.3 17.5 32.3C25.95 32.3 32.8 25.45 32.8 17C32.8 8.55004 25.95 1.7 17.5 1.7C9.05004 1.7 2.2 8.55004 2.2 17Z"/>
</mask>
<path d="M34.5 17C34.5 26.3888 26.8888 34 17.5 34C8.11116 34 0.5 26.3888 0.5 17C0.5 7.61116 8.11116 0 17.5 0C26.8888 0 34.5 7.61116 34.5 17ZM2.2 17C2.2 25.45 9.05004 32.3 17.5 32.3C25.95 32.3 32.8 25.45 32.8 17C32.8 8.55004 25.95 1.7 17.5 1.7C9.05004 1.7 2.2 8.55004 2.2 17Z" stroke="url(#paint0_linear_1493_5755)" stroke-width="1.94286" mask="url(#path-1-inside-1_1493_5755)"/>
<path d="M17.5008 4.67578C10.6937 4.67578 5.17578 10.1938 5.17578 17.0008C5.17578 23.8077 10.6938 29.3258 17.5008 29.3258C24.3076 29.3258 29.8258 23.8077 29.8258 17.0008C29.8256 10.194 24.3076 4.67578 17.5008 4.67578ZM24.1982 17.2699C24.1982 23.7708 17.5008 24.7634 17.5008 24.7634C17.5008 24.7634 10.8032 23.7708 10.8032 17.2699V13.9941C12.4886 13.5418 13.6604 12.0142 13.6604 10.2689L17.5008 9.23817L21.341 10.2689C21.341 12.014 22.5128 13.5416 24.1982 13.9941V17.2699Z" fill="url(#paint1_linear_1493_5755)"/>
<path d="M17.4704 20.8396C15.7052 20.8396 14.5678 20.0316 14.4803 18.6626L14.4751 18.5803H15.9419L15.9522 18.6369C16.05 19.2133 16.6624 19.5736 17.5116 19.5736C18.371 19.5736 18.9114 19.1979 18.9114 18.6318V18.6266C18.9114 18.1223 18.546 17.8701 17.6248 17.6797L16.8425 17.5253C15.3758 17.2319 14.6347 16.532 14.6347 15.4152V15.4101C14.6347 14.0514 15.8184 13.1559 17.4653 13.1559C19.1842 13.1559 20.2392 14.0154 20.3113 15.3174L20.3164 15.4152H18.8497L18.8445 15.3534C18.7673 14.7719 18.2321 14.4168 17.4653 14.4168C16.6675 14.4219 16.1889 14.7873 16.1889 15.3174V15.3226C16.1889 15.7909 16.5698 16.0637 17.4241 16.2335L18.2115 16.393C19.7657 16.7018 20.4657 17.3348 20.4657 18.5031V18.5082C20.4657 19.9338 19.3437 20.8396 17.4704 20.8396Z" fill="url(#paint2_linear_1493_5755)"/>
<defs>
<linearGradient id="paint0_linear_1493_5755" x1="7.38718" y1="4.5956" x2="13.7972" y2="34.7862" gradientUnits="userSpaceOnUse">
<stop stop-color="#B4ADFF"/>
<stop offset="1" stop-color="#5F44F8"/>
</linearGradient>
<linearGradient id="paint1_linear_1493_5755" x1="10.169" y1="8.00759" x2="14.8163" y2="29.8958" gradientUnits="userSpaceOnUse">
<stop stop-color="#B4ADFF"/>
<stop offset="1" stop-color="#5F44F8"/>
</linearGradient>
<linearGradient id="paint2_linear_1493_5755" x1="15.5586" y1="12.4681" x2="28.0257" y2="15.1698" gradientUnits="userSpaceOnUse">
<stop stop-color="#B4ADFF"/>
<stop offset="1" stop-color="#5F44F8"/>
</linearGradient>
</defs>
</svg>
