<svg width="275" height="80" viewBox="0 0 275 80" fill="none" xmlns="http://www.w3.org/2000/svg">
<rect x="0.5" width="274" height="80" rx="12" fill="#FBFBFB"/>
<g clip-path="url(#clip0_2013_3385)">
<path fill-rule="evenodd" clip-rule="evenodd" d="M68.5 24.1334V55.8667C68.5032 57.461 68.1915 59.0402 67.5829 60.5137C66.9743 61.9872 66.0807 63.326 64.9534 64.4534C63.826 65.5807 62.4872 66.4743 61.0137 67.0829C59.5402 67.6915 57.961 68.0032 56.3667 68H24.6334C23.0391 68.0032 21.4599 67.6915 19.9864 67.0829C18.5128 66.4743 17.174 65.5807 16.0467 64.4534C14.9194 63.326 14.0258 61.9872 13.4171 60.5137C12.8085 59.0402 12.4968 57.461 12.5 55.8667V24.1334C12.4968 22.5391 12.8085 20.9599 13.4171 19.4864C14.0258 18.0128 14.9194 16.674 16.0467 15.5467C17.174 14.4194 18.5128 13.5258 19.9864 12.9171C21.4599 12.3085 23.0391 11.9968 24.6334 12H56.3667C57.961 11.9968 59.5402 12.3085 61.0137 12.9171C62.4872 13.5258 63.826 14.4194 64.9534 15.5467C66.0807 16.674 66.9743 18.0128 67.5829 19.4864C68.1915 20.9599 68.5032 22.5391 68.5 24.1334Z" fill="url(#paint0_linear_2013_3385)"/>
<path fill-rule="evenodd" clip-rule="evenodd" d="M51.0466 44.2002H58C58.6807 44.2002 59.3335 44.4706 59.8149 44.952C60.2962 45.4333 60.5666 46.0861 60.5666 46.7669C60.5666 47.4476 60.2962 48.1004 59.8149 48.5818C59.3335 49.0631 58.6807 49.3335 58 49.3335H51.0466V44.2002Z" fill="white"/>
<path fill-rule="evenodd" clip-rule="evenodd" d="M42.5067 44.2C42.9916 44.1971 43.4723 44.2904 43.9209 44.4747C44.3695 44.6589 44.7771 44.9304 45.12 45.2733C45.4629 45.6162 45.7344 46.0238 45.9186 46.4724C46.1029 46.921 46.1963 47.4017 46.1933 47.8866C46.1952 48.3825 46.1001 48.8739 45.9134 49.3333H23C22.3193 49.3333 21.6665 49.0629 21.1851 48.5815C20.7038 48.1002 20.4333 47.4473 20.4333 46.7666C20.4333 46.0859 20.7038 45.4331 21.1851 44.9517C21.6665 44.4704 22.3193 44.2 23 44.2H42.5067ZM41.8534 27.3066V31.7866H38.8667L35.2267 25.5333C35.0668 25.2575 34.9629 24.9529 34.9208 24.6369C34.8787 24.3209 34.8994 23.9997 34.9816 23.6916C35.0638 23.3836 35.2059 23.0948 35.3998 22.8418C35.5937 22.5887 35.8356 22.3764 36.1116 22.2169C36.3876 22.0574 36.6924 21.9539 37.0085 21.9123C37.3245 21.8707 37.6457 21.8919 37.9536 21.9745C38.2615 22.0571 38.5501 22.1997 38.8028 22.3939C39.0556 22.5882 39.2676 22.8304 39.4267 23.1066L41.8534 27.3066ZM44.42 31.6466L57.16 53.72C57.5004 54.3079 57.5933 55.0069 57.4182 55.6633C57.2432 56.3196 56.8146 56.8796 56.2267 57.22C55.6388 57.5603 54.9398 57.6532 54.2834 57.4782C53.627 57.3031 53.067 56.8745 52.7267 56.2866L45.0267 42.8933C44.3267 41.5866 43.8134 40.56 43.4867 40C42.7198 38.6934 42.3963 37.1737 42.5645 35.6681C42.7327 34.1625 43.3837 32.7517 44.42 31.6466Z" fill="white"/>
<path fill-rule="evenodd" clip-rule="evenodd" d="M33.9666 46.5334H28.04L41.4333 23.34C41.7737 22.7521 42.3336 22.3235 42.99 22.1485C43.6464 21.9735 44.3454 22.0663 44.9333 22.4067C45.5212 22.7471 45.9498 23.307 46.1249 23.9634C46.2999 24.6198 46.207 25.3188 45.8666 25.9067L33.9666 46.5334ZM30.84 51.9L28.3666 56.24C28.1981 56.5311 27.9739 56.7862 27.7068 56.9906C27.4397 57.1951 27.135 57.3449 26.8099 57.4316C26.4849 57.5183 26.146 57.5401 25.8126 57.4958C25.4792 57.4515 25.1577 57.3419 24.8666 57.1734C24.5756 57.0048 24.3205 56.7806 24.1161 56.5135C23.9116 56.2464 23.7618 55.9417 23.6751 55.6167C23.5884 55.2917 23.5666 54.9528 23.6109 54.6193C23.6552 54.2859 23.7648 53.9645 23.9333 53.6734L25.7533 50.5C26.3185 50.2188 26.9421 50.0749 27.5733 50.08C28.2317 50.0584 28.8836 50.2164 29.4591 50.537C30.0345 50.8576 30.5119 51.3288 30.84 51.9Z" fill="white"/>
</g>
<path d="M90.9492 33.5L89.748 29.8574H84.5625L83.3613 33.5H80.7637L85.7637 19.4082H88.6055L93.6055 33.5H90.9492ZM87.1211 21.8984L85.1484 27.9141H89.1523L87.1895 21.8984H87.1211ZM101.059 22.9727C103.686 22.9727 105.355 25.0137 105.355 28.3242C105.355 31.625 103.695 33.666 101.098 33.666C99.5938 33.666 98.4219 32.9434 97.8555 31.7812H97.8066V36.9082H95.375V23.1484H97.748V24.9355H97.7969C98.3828 23.7344 99.5547 22.9727 101.059 22.9727ZM100.316 31.6738C101.889 31.6738 102.865 30.375 102.865 28.3242C102.865 26.2832 101.889 24.9746 100.316 24.9746C98.8027 24.9746 97.7969 26.3125 97.7871 28.3242C97.7969 30.3555 98.8027 31.6738 100.316 31.6738ZM113.102 22.9727C115.729 22.9727 117.398 25.0137 117.398 28.3242C117.398 31.625 115.738 33.666 113.141 33.666C111.637 33.666 110.465 32.9434 109.898 31.7812H109.85V36.9082H107.418V23.1484H109.791V24.9355H109.84C110.426 23.7344 111.598 22.9727 113.102 22.9727ZM112.359 31.6738C113.932 31.6738 114.908 30.375 114.908 28.3242C114.908 26.2832 113.932 24.9746 112.359 24.9746C110.846 24.9746 109.84 26.3125 109.83 28.3242C109.84 30.3555 110.846 31.6738 112.359 31.6738ZM119.529 33.5V19.4082H121.961V33.5H119.529ZM128.994 24.8184C127.627 24.8184 126.641 25.8633 126.543 27.3086H131.377C131.328 25.8438 130.391 24.8184 128.994 24.8184ZM131.387 30.4043H133.662C133.35 32.3574 131.533 33.7051 129.082 33.7051C125.977 33.7051 124.102 31.6641 124.102 28.3633C124.102 25.0918 125.996 22.9336 128.984 22.9336C131.924 22.9336 133.76 24.9746 133.76 28.1191V28.9102H126.523V29.0566C126.523 30.7168 127.539 31.8301 129.131 31.8301C130.264 31.8301 131.123 31.2637 131.387 30.4043ZM149.789 33.5L148.588 29.8574H143.402L142.201 33.5H139.604L144.604 19.4082H147.445L152.445 33.5H149.789ZM145.961 21.8984L143.988 27.9141H147.992L146.029 21.8984H145.961ZM159.898 22.9727C162.525 22.9727 164.195 25.0137 164.195 28.3242C164.195 31.625 162.535 33.666 159.938 33.666C158.434 33.666 157.262 32.9434 156.695 31.7812H156.646V36.9082H154.215V23.1484H156.588V24.9355H156.637C157.223 23.7344 158.395 22.9727 159.898 22.9727ZM159.156 31.6738C160.729 31.6738 161.705 30.375 161.705 28.3242C161.705 26.2832 160.729 24.9746 159.156 24.9746C157.643 24.9746 156.637 26.3125 156.627 28.3242C156.637 30.3555 157.643 31.6738 159.156 31.6738ZM171.941 22.9727C174.568 22.9727 176.238 25.0137 176.238 28.3242C176.238 31.625 174.578 33.666 171.98 33.666C170.477 33.666 169.305 32.9434 168.738 31.7812H168.689V36.9082H166.258V23.1484H168.631V24.9355H168.68C169.266 23.7344 170.438 22.9727 171.941 22.9727ZM171.199 31.6738C172.771 31.6738 173.748 30.375 173.748 28.3242C173.748 26.2832 172.771 24.9746 171.199 24.9746C169.686 24.9746 168.68 26.3125 168.67 28.3242C168.68 30.3555 169.686 31.6738 171.199 31.6738ZM182.473 29.5352H184.914C185.07 30.834 186.369 31.6836 188.088 31.6836C189.787 31.6836 190.969 30.8438 190.969 29.6719C190.969 28.6562 190.246 28.0703 188.469 27.6504L186.643 27.2207C184.045 26.625 182.814 25.375 182.814 23.3633C182.814 20.8633 184.992 19.1738 188.059 19.1738C191.164 19.1738 193.215 20.8535 193.273 23.334H190.871C190.754 22.0156 189.65 21.2246 188.039 21.2246C186.447 21.2246 185.373 22.0059 185.373 23.1777C185.373 24.1152 186.086 24.6621 187.814 25.0723L189.436 25.4434C192.297 26.0977 193.508 27.2793 193.508 29.3789C193.508 32.0547 191.359 33.7344 187.951 33.7344C184.709 33.7344 182.58 32.1328 182.473 29.5352ZM196.342 20.7266H198.773V23.1484H200.727V25.0234H198.773V30.4043C198.773 31.2539 199.164 31.6445 200.023 31.6445C200.248 31.6445 200.561 31.625 200.717 31.5957V33.4512C200.453 33.5098 199.975 33.5488 199.457 33.5488C197.221 33.5488 196.342 32.7578 196.342 30.7461V25.0234H194.857V23.1484H196.342V20.7266ZM207.271 33.7051C204.234 33.7051 202.262 31.6836 202.262 28.3242C202.262 24.9844 204.254 22.9336 207.271 22.9336C210.289 22.9336 212.281 24.9746 212.281 28.3242C212.281 31.6836 210.309 33.7051 207.271 33.7051ZM207.271 31.7812C208.814 31.7812 209.811 30.5312 209.811 28.3242C209.811 26.127 208.814 24.8672 207.271 24.8672C205.738 24.8672 204.732 26.127 204.732 28.3242C204.732 30.5312 205.729 31.7812 207.271 31.7812ZM214.344 33.5V23.1484H216.678V24.9551H216.727C217.078 23.6953 217.986 22.9727 219.207 22.9727C219.52 22.9727 219.793 23.0312 219.969 23.0703V25.2676C219.764 25.1895 219.393 25.1309 218.982 25.1309C217.605 25.1309 216.775 26.0195 216.775 27.4746V33.5H214.344ZM225.791 24.8184C224.424 24.8184 223.438 25.8633 223.34 27.3086H228.174C228.125 25.8438 227.188 24.8184 225.791 24.8184ZM228.184 30.4043H230.459C230.146 32.3574 228.33 33.7051 225.879 33.7051C222.773 33.7051 220.898 31.6641 220.898 28.3633C220.898 25.0918 222.793 22.9336 225.781 22.9336C228.721 22.9336 230.557 24.9746 230.557 28.1191V28.9102H223.32V29.0566C223.32 30.7168 224.336 31.8301 225.928 31.8301C227.061 31.8301 227.92 31.2637 228.184 30.4043Z" fill="#110D38"/>
<path d="M88.4082 61V58.334H81.377V56.166C82.5977 53.8613 84.1699 51.3516 87.2266 46.9082H90.8105V56.2734H92.7051V58.334H90.8105V61H88.4082ZM83.6621 56.2637V56.332H88.4473V48.7734H88.4082C86.1328 52.0742 84.7852 54.1543 83.6621 56.2637ZM96.5059 61.1074C95.7148 61.1074 95.0996 60.4922 95.0996 59.7012C95.0996 58.9199 95.7148 58.2949 96.5059 58.2949C97.2871 58.2949 97.9023 58.9199 97.9023 59.7012C97.9023 60.4922 97.2871 61.1074 96.5059 61.1074ZM100.883 61L107.064 49.0176V48.9688H99.7402V46.9082H109.545V49.0078L103.52 61H100.883Z" fill="#110D38"/>
<path d="M129.685 44.0089C129.941 43.2192 131.059 43.2192 131.315 44.0089L133.002 49.1995C133.116 49.5527 133.446 49.7918 133.817 49.7918H139.275C140.105 49.7918 140.45 50.8543 139.778 51.3424L135.363 54.5504C135.063 54.7686 134.937 55.1555 135.052 55.5087L136.738 60.6993C136.995 61.489 136.091 62.1457 135.419 61.6576L131.004 58.4496C130.703 58.2314 130.297 58.2314 129.996 58.4496L125.581 61.6576C124.909 62.1457 124.005 61.489 124.262 60.6993L125.948 55.5087C126.063 55.1555 125.937 54.7686 125.637 54.5504L121.222 51.3424C120.55 50.8543 120.895 49.7918 121.725 49.7918H127.183C127.554 49.7918 127.884 49.5527 127.998 49.1995L129.685 44.0089Z" fill="url(#paint1_linear_2013_3385)" fill-opacity="0.988235"/>
<path d="M155.685 44.0089C155.941 43.2192 157.059 43.2192 157.315 44.0089L159.002 49.1995C159.116 49.5527 159.446 49.7918 159.817 49.7918H165.275C166.105 49.7918 166.45 50.8543 165.778 51.3424L161.363 54.5504C161.063 54.7686 160.937 55.1555 161.052 55.5087L162.738 60.6993C162.995 61.489 162.091 62.1457 161.419 61.6576L157.004 58.4496C156.703 58.2314 156.297 58.2314 155.996 58.4496L151.581 61.6576C150.909 62.1457 150.005 61.489 150.262 60.6993L151.948 55.5087C152.063 55.1555 151.937 54.7686 151.637 54.5504L147.222 51.3424C146.55 50.8543 146.895 49.7918 147.725 49.7918H153.183C153.554 49.7918 153.884 49.5527 153.998 49.1995L155.685 44.0089Z" fill="url(#paint2_linear_2013_3385)" fill-opacity="0.988235"/>
<path d="M181.685 44.0089C181.941 43.2192 183.059 43.2192 183.315 44.0089L185.002 49.1995C185.116 49.5527 185.446 49.7918 185.817 49.7918H191.275C192.105 49.7918 192.45 50.8543 191.778 51.3424L187.363 54.5504C187.063 54.7686 186.937 55.1555 187.052 55.5087L188.738 60.6993C188.995 61.489 188.091 62.1457 187.419 61.6576L183.004 58.4496C182.703 58.2314 182.297 58.2314 181.996 58.4496L177.581 61.6576C176.909 62.1457 176.005 61.489 176.262 60.6993L177.948 55.5087C178.063 55.1555 177.937 54.7686 177.637 54.5504L173.222 51.3424C172.55 50.8543 172.895 49.7918 173.725 49.7918H179.183C179.554 49.7918 179.884 49.5527 179.998 49.1995L181.685 44.0089Z" fill="url(#paint3_linear_2013_3385)" fill-opacity="0.988235"/>
<path d="M207.685 44.0089C207.941 43.2192 209.059 43.2192 209.315 44.0089L211.002 49.1995C211.116 49.5527 211.446 49.7918 211.817 49.7918H217.275C218.105 49.7918 218.45 50.8543 217.778 51.3424L213.363 54.5504C213.063 54.7686 212.937 55.1555 213.052 55.5087L214.738 60.6993C214.995 61.489 214.091 62.1457 213.419 61.6576L209.004 58.4496C208.703 58.2314 208.297 58.2314 207.996 58.4496L203.581 61.6576C202.909 62.1457 202.005 61.489 202.262 60.6993L203.948 55.5087C204.063 55.1555 203.937 54.7686 203.637 54.5504L199.222 51.3424C198.55 50.8543 198.895 49.7918 199.725 49.7918H205.183C205.554 49.7918 205.884 49.5527 205.998 49.1995L207.685 44.0089Z" fill="url(#paint4_linear_2013_3385)" fill-opacity="0.988235"/>
<path d="M233.685 44.0089C233.941 43.2192 235.059 43.2192 235.315 44.0089L237.002 49.1995C237.116 49.5527 237.446 49.7918 237.817 49.7918H243.275C244.105 49.7918 244.45 50.8543 243.778 51.3424L239.363 54.5504C239.063 54.7686 238.937 55.1555 239.052 55.5087L240.738 60.6993C240.995 61.489 240.091 62.1457 239.419 61.6576L235.004 58.4496C234.703 58.2314 234.297 58.2314 233.996 58.4496L229.581 61.6576C228.909 62.1457 228.005 61.489 228.262 60.6993L229.948 55.5087C230.063 55.1555 229.937 54.7686 229.637 54.5504L225.222 51.3424C224.55 50.8543 224.895 49.7918 225.725 49.7918H231.183C231.554 49.7918 231.884 49.5527 231.998 49.1995L233.685 44.0089Z" fill="url(#paint5_linear_2013_3385)" fill-opacity="0.988235"/>
<path fill-rule="evenodd" clip-rule="evenodd" d="M234.5 43.4199C234.844 43.4199 235.187 43.6173 235.315 44.0122L237.002 49.2028C237.117 49.556 237.446 49.7951 237.817 49.7951H243.275C244.105 49.7951 244.45 50.8576 243.779 51.3457L239.363 54.5537C239.063 54.7719 238.937 55.1588 239.052 55.512L240.738 60.7026C240.995 61.4923 240.091 62.149 239.419 61.6609L235.004 58.4529C234.854 58.3438 234.677 58.2892 234.5 58.2892V43.4199Z" fill="white"/>
<defs>
<linearGradient id="paint0_linear_2013_3385" x1="40.4996" y1="68" x2="40.4996" y2="12" gradientUnits="userSpaceOnUse">
<stop stop-color="#1D6FF2"/>
<stop offset="1" stop-color="#1AC8FC"/>
</linearGradient>
<linearGradient id="paint1_linear_2013_3385" x1="118.5" y1="53.5" x2="142.5" y2="53.5" gradientUnits="userSpaceOnUse">
<stop stop-color="#F7A500"/>
<stop offset="1" stop-color="#FFD438"/>
</linearGradient>
<linearGradient id="paint2_linear_2013_3385" x1="144.5" y1="53.5" x2="168.5" y2="53.5" gradientUnits="userSpaceOnUse">
<stop stop-color="#F7A500"/>
<stop offset="1" stop-color="#FFD438"/>
</linearGradient>
<linearGradient id="paint3_linear_2013_3385" x1="170.5" y1="53.5" x2="194.5" y2="53.5" gradientUnits="userSpaceOnUse">
<stop stop-color="#F7A500"/>
<stop offset="1" stop-color="#FFD438"/>
</linearGradient>
<linearGradient id="paint4_linear_2013_3385" x1="196.5" y1="53.5" x2="220.5" y2="53.5" gradientUnits="userSpaceOnUse">
<stop stop-color="#F7A500"/>
<stop offset="1" stop-color="#FFD438"/>
</linearGradient>
<linearGradient id="paint5_linear_2013_3385" x1="222.5" y1="53.5" x2="246.5" y2="53.5" gradientUnits="userSpaceOnUse">
<stop stop-color="#F7A500"/>
<stop offset="1" stop-color="#FFD438"/>
</linearGradient>
<clipPath id="clip0_2013_3385">
<rect width="56" height="56" fill="white" transform="translate(12.5 12)"/>
</clipPath>
</defs>
</svg>
