<svg width="26" height="27" viewBox="0 0 26 27" fill="none" xmlns="http://www.w3.org/2000/svg">
<path d="M12.9998 2.68311C7.01984 2.68311 2.1665 7.53644 2.1665 13.5164C2.1665 19.4964 7.01984 24.3498 12.9998 24.3498C18.9798 24.3498 23.8332 19.4964 23.8332 13.5164C23.8332 7.53644 18.9798 2.68311 12.9998 2.68311ZM12.9998 22.1831C8.2115 22.1831 4.33317 18.3048 4.33317 13.5164C4.33317 8.72811 8.2115 4.84977 12.9998 4.84977C17.7882 4.84977 21.6665 8.72811 21.6665 13.5164C21.6665 18.3048 17.7882 22.1831 12.9998 22.1831Z" fill="#3BC420"/>
<path d="M12.9998 18.9331C15.9914 18.9331 18.4165 16.508 18.4165 13.5164C18.4165 10.5249 15.9914 8.09977 12.9998 8.09977C10.0083 8.09977 7.58317 10.5249 7.58317 13.5164C7.58317 16.508 10.0083 18.9331 12.9998 18.9331Z" fill="#3BC420"/>
</svg>
