<svg width="139" height="68" viewBox="0 0 139 68" fill="none" xmlns="http://www.w3.org/2000/svg">
<path d="M25.9287 11.6089C24.9966 12.6057 24.6558 13.391 24.6401 13.3868C24.6401 13.396 25.5042 13.2641 26.7713 13.0228C28.0467 12.7773 29.7243 12.4232 31.5669 11.8767C33.398 11.317 35.1817 10.6469 36.5956 10.1253C37.9963 9.60123 39.0262 9.2264 39.0113 9.21894C39.0104 9.23221 38.0294 8.78523 36.4273 8.5124C34.8401 8.23709 32.6301 8.13592 30.5046 8.78606C28.7561 9.30479 27.1769 10.279 25.9287 11.6089ZM20.8818 16.3249C21.8587 15.2908 23.1242 13.9914 24.2238 12.6322C26.4164 9.9404 26.9189 7.49489 26.8774 7.46338C26.8924 7.47582 25.6004 7.80338 24.0844 8.65918C22.5652 9.49509 20.8204 10.8601 19.8386 12.4945C17.9188 15.7436 19.2034 18.0448 19.2017 18.0929C19.2291 18.0813 19.9149 17.3325 20.881 16.3249H20.8818ZM14.8895 27.7722C14.9044 27.7572 15.2245 26.7878 15.6607 25.4709C16.0961 24.1308 16.6492 22.4366 16.9801 20.7706C17.6444 17.466 16.8615 15.0943 16.8225 15.0794C16.8366 15.0868 15.9477 15.8879 15.0612 17.2645C14.1672 18.6245 13.2749 20.56 13.1107 22.4408C12.8047 26.1708 14.8671 27.7324 14.8895 27.7722ZM14.7145 38.4233C14.7228 38.4059 14.6515 37.3801 14.552 35.9886C14.4409 34.5788 14.3007 32.7959 13.9475 31.1373C13.2525 27.8451 11.5559 26.0249 11.5194 26.0266C11.5335 26.0266 11.0716 27.1228 10.8162 28.7466C10.5508 30.3586 10.4927 32.4998 11.0608 34.2894C12.2052 37.8337 14.6789 38.3984 14.7137 38.4241L14.7145 38.4233ZM18.6768 48.2534C18.6768 48.2335 18.1917 47.328 17.5515 46.0973C16.893 44.8534 16.077 43.2786 15.1242 41.9079C13.2384 39.1812 10.9994 38.2276 10.9654 38.2442C10.9787 38.2392 10.9671 39.4383 11.3485 41.0355C11.7143 42.6252 12.4722 44.6138 13.6871 46.0136C16.1127 48.7742 18.6328 48.246 18.6768 48.2534ZM24.66 54.0127C23.4501 53.1743 21.9773 52.0971 20.5095 51.2537C17.6029 49.5728 15.1914 49.6416 15.1607 49.6723C15.174 49.6615 15.6367 50.7628 16.6559 52.0565C17.656 53.3501 19.2125 54.8362 20.9913 55.5833C24.5231 57.0404 26.7298 55.4846 26.7746 55.4672C26.7696 55.4506 25.8442 54.8494 24.66 54.0127ZM35.88 57.9534C34.1161 57.7602 32.004 57.46 30.1049 57.3505C26.3475 57.1208 24.1342 58.2063 24.106 58.2503C24.1193 58.2337 25.0812 59.0265 26.7414 59.7396C28.3784 60.4611 30.7144 61.1021 32.9709 60.9711C35.2257 60.8558 36.7839 60.1244 37.7226 59.4834C38.6713 58.8324 38.9997 58.2718 39.0113 58.2727C39.0196 58.2594 37.6231 58.1599 35.88 57.9534ZM30.357 14.9417C30.3214 14.9168 28.419 13.1472 25.2139 14.032C23.6026 14.4873 22.1705 15.6358 21.2434 16.6666C20.3005 17.6982 19.8635 18.6121 19.8519 18.6013C19.8767 18.6295 22.1929 19.04 24.8242 17.9677C26.1535 17.4287 27.4496 16.6525 28.5103 16.0347C29.5502 15.4152 30.3562 14.9533 30.357 14.9417ZM15.6815 27.9621C15.708 27.9786 17.986 27.3799 19.8452 25.3266C20.7848 24.2926 21.5535 23.0686 22.1614 22.0884C22.7526 21.1181 23.1855 20.3884 23.1847 20.3734C23.1449 20.3718 20.7956 19.5276 18.4545 21.6256C17.2828 22.6871 16.5174 24.3133 16.1268 25.6302C15.7229 26.9537 15.6931 27.9679 15.6815 27.9621ZM18.3285 34.0945C19.2001 31.4599 19.3618 28.2399 19.4016 28.1818C19.3568 28.1984 16.9254 28.4074 15.6243 31.2982C14.9749 32.7577 14.8962 34.568 15.038 35.9388C15.1706 37.3212 15.5231 38.2632 15.5115 38.2632C15.5405 38.2674 17.4113 36.7556 18.3285 34.0945ZM19.3444 47.7708C19.3742 47.7625 20.4639 45.5956 20.2715 42.7703C20.1761 41.3456 19.8353 39.9309 19.5467 38.813C19.2531 37.7043 19.0135 36.8933 19.006 36.8958C19.0466 36.89 16.8201 38.0932 16.7214 41.3473C16.6799 42.9602 17.3052 44.6519 17.9769 45.8461C18.6428 47.0551 19.3551 47.7658 19.3435 47.7708H19.3444ZM21.7476 50.0679C22.3985 51.5523 23.7461 52.8169 24.9452 53.6039C26.141 54.4099 27.1884 54.7375 27.176 54.7483C27.2091 54.7259 27.1478 52.3227 25.6758 49.8523C24.9361 48.6059 24.0131 47.464 23.2809 46.5684C22.5561 45.6918 22.0179 45.0558 21.9988 45.0475C21.9905 45.0889 20.473 47.1148 21.7476 50.0679ZM34.5415 53.8394C33.0729 53.069 31.5495 52.4578 30.3769 51.9744C29.2267 51.51 28.4165 51.17 28.3809 51.1658C28.4058 51.2073 27.8916 53.6868 30.702 55.7575C32.1292 56.7932 34.2181 57.3132 35.9413 57.4666C37.6654 57.6383 39.0229 57.4442 39.0104 57.46C39.0461 57.4226 37.4622 55.3636 34.5415 53.8394ZM103.091 10.1253C104.506 10.6469 106.289 11.317 108.12 11.8767C109.963 12.4232 111.64 12.7773 112.916 13.0228C114.183 13.2641 115.048 13.396 115.047 13.3868C115.031 13.391 114.69 12.6057 113.757 11.6089C112.509 10.2791 110.93 9.30513 109.181 8.78689C107.056 8.13592 104.847 8.23709 103.259 8.5124C101.657 8.78523 100.676 9.23221 100.676 9.21894C100.66 9.22723 101.692 9.60123 103.091 10.1253ZM118.804 16.3249C119.771 17.3325 120.457 18.0813 120.484 18.0929C120.483 18.044 121.767 15.7428 119.848 12.4954C118.866 10.8601 117.122 9.49509 115.602 8.65918C114.086 7.80338 112.794 7.47582 112.808 7.46338C112.767 7.49489 113.269 9.9404 115.462 12.6322C116.561 13.9914 117.827 15.2908 118.804 16.3249ZM124.025 25.4709C124.462 26.7878 124.782 27.7581 124.797 27.7722C124.819 27.7324 126.881 26.17 126.575 22.44C126.41 20.56 125.519 18.6237 124.625 17.2637C123.738 15.8871 122.849 15.086 122.863 15.0785C122.825 15.0935 122.042 17.4652 122.706 20.7698C123.036 22.4358 123.59 24.1308 124.025 25.4709ZM125.135 35.9886C125.035 37.3809 124.965 38.4059 124.972 38.4241C125.008 38.3992 127.483 37.8337 128.626 34.2894C129.194 32.5006 129.136 30.3586 128.87 28.7474C128.616 27.122 128.153 26.0274 128.167 26.0266C128.131 26.0249 126.434 27.846 125.739 31.1373C125.385 32.7959 125.245 34.5788 125.135 35.9886ZM124.564 41.9079C123.611 43.2786 122.795 44.8543 122.135 46.0973C121.496 47.328 121.011 48.2335 121.011 48.2534C121.054 48.2451 123.574 48.7734 126 46.0144C127.216 44.6138 127.974 42.6252 128.339 41.0355C128.72 39.4383 128.708 38.2392 128.722 38.2442C128.688 38.2276 126.449 39.1812 124.564 41.9079ZM119.176 51.2537C117.708 52.0963 116.234 53.1743 115.024 54.0127C113.84 54.8503 112.916 55.4506 112.912 55.4681C112.956 55.4846 115.163 57.0404 118.695 55.5842C120.474 54.8362 122.029 53.3509 123.03 52.0573C124.049 50.7628 124.511 49.6607 124.525 49.6723C124.494 49.6416 122.082 49.5728 119.177 51.2537H119.176ZM109.58 57.3505C107.682 57.46 105.57 57.7593 103.805 57.9534C102.062 58.1599 100.667 58.2602 100.676 58.2727C100.686 58.2718 101.015 58.8324 101.964 59.4834C102.902 60.1244 104.461 60.8567 106.715 60.9711C108.972 61.1021 111.308 60.4611 112.946 59.7396C114.605 59.0265 115.567 58.2328 115.581 58.2503C115.551 58.2063 113.339 57.1216 109.581 57.3505H109.58ZM119.835 18.6013C119.823 18.6121 119.386 17.6982 118.443 16.6666C117.516 15.6358 116.083 14.4873 114.473 14.032C111.268 13.1472 109.366 14.9168 109.33 14.9409C109.33 14.9525 110.137 15.4152 111.177 16.0347C112.237 16.6525 113.533 17.4287 114.863 17.9677C117.494 19.04 119.811 18.6295 119.835 18.6013ZM116.502 20.3734C116.501 20.3875 116.934 21.1165 117.526 22.0875C118.133 23.0677 118.902 24.2926 119.842 25.3258C121.701 27.3791 123.979 27.9778 124.005 27.9612C123.994 27.9662 123.964 26.9528 123.56 25.6293C123.17 24.3125 122.404 22.6863 121.232 21.624C118.891 19.5276 116.541 20.3726 116.502 20.3734ZM124.063 31.2982C122.762 28.4074 120.33 28.1984 120.285 28.1818C120.325 28.2399 120.487 31.4599 121.359 34.0945C122.277 36.7565 124.146 38.2674 124.175 38.2632C124.163 38.2632 124.516 37.3204 124.648 35.9388C124.791 34.568 124.712 32.7577 124.063 31.2982ZM120.139 38.813C119.852 39.9309 119.511 41.3456 119.415 42.7703C119.223 45.5956 120.312 47.7625 120.343 47.7708C120.331 47.7658 121.043 47.0551 121.708 45.8461C122.381 44.6519 123.006 42.9602 122.965 41.3473C122.866 38.0932 120.64 36.8891 120.681 36.8958C120.673 36.8933 120.433 37.7043 120.139 38.813ZM114.741 53.6047C115.94 52.8169 117.288 51.5523 117.939 50.0687C119.213 47.1157 117.695 45.0889 117.686 45.0475C117.668 45.0558 117.13 45.6918 116.404 46.5684C115.673 47.464 114.749 48.6059 114.01 49.8523C112.538 52.3235 112.476 54.7259 112.509 54.7483C112.498 54.7375 113.545 54.4099 114.741 53.6039V53.6047ZM103.746 57.4666C105.468 57.3132 107.557 56.7932 108.985 55.7575C111.795 53.686 111.281 51.2073 111.305 51.1658C111.27 51.1691 110.459 51.51 109.31 51.9744C108.137 52.4578 106.614 53.069 105.145 53.8402C102.225 55.3636 100.641 57.4226 100.676 57.46C100.664 57.445 102.022 57.6383 103.746 57.4666Z" fill="url(#paint0_linear_2013_3281)"/>
<path d="M47.1369 30.4146H45.7764V22.8224H43.0918V21.6501H49.8154V22.8224H47.1369V30.4146ZM49.2219 30.4146V24.025H50.4731V25.1122H50.5035C50.7161 24.3651 51.287 23.9217 52.0402 23.9217C52.2284 23.9217 52.3924 23.9521 52.4896 23.9703V25.1911C52.3864 25.1486 52.1556 25.1182 51.9005 25.1182C51.0562 25.1182 50.5339 25.6831 50.5339 26.5881V30.4146H49.2219ZM58.4254 24.025V30.4146H57.1682V29.3334H57.1378C56.7855 30.0987 56.1356 30.53 55.1577 30.53C53.7669 30.53 52.9165 29.625 52.9165 28.1612V24.025H54.2285V27.9061C54.2285 28.8779 54.6901 29.4002 55.5951 29.4002C56.5426 29.4002 57.1135 28.7443 57.1135 27.7482V24.025H58.4254ZM59.2532 25.8349C59.2532 24.6931 60.2615 23.9096 61.7556 23.9096C63.1769 23.9096 64.1729 24.7052 64.2155 25.841H62.9825C62.9218 25.264 62.4541 24.9057 61.7192 24.9057C61.0085 24.9057 60.5348 25.2519 60.5348 25.756C60.5348 26.1508 60.8506 26.418 61.5126 26.582L62.5877 26.831C63.8753 27.1408 64.3612 27.6267 64.3612 28.5681C64.3612 29.7343 63.274 30.536 61.707 30.536C60.1946 30.536 59.1925 29.7525 59.0892 28.5803H60.389C60.4923 29.1937 60.966 29.5339 61.7677 29.5339C62.5573 29.5339 63.0432 29.2059 63.0432 28.6896C63.0432 28.2827 62.8003 28.0579 62.1322 27.8879L60.9903 27.6085C59.8363 27.3291 59.2532 26.7278 59.2532 25.8349ZM65.4077 22.5126H66.7257V24.025H67.9404V25.0636H66.7257V28.5864C66.7257 29.1391 66.9686 29.3881 67.5031 29.3881C67.6367 29.3881 67.8493 29.3759 67.9344 29.3577V30.3963C67.7886 30.4328 67.497 30.4571 67.2055 30.4571C65.9118 30.4571 65.4077 29.9651 65.4077 28.7321V25.0636H64.4784V24.025H65.4077V22.5126ZM71.1795 24.9664C70.2624 24.9664 69.6185 25.6649 69.5517 26.6306H72.7465C72.7162 25.6527 72.0966 24.9664 71.1795 24.9664ZM72.7405 28.5378H73.9856C73.8034 29.7039 72.6979 30.536 71.2342 30.536C69.3574 30.536 68.2216 29.2666 68.2216 27.2501C68.2216 25.2458 69.3756 23.9096 71.1795 23.9096C72.953 23.9096 74.0585 25.1608 74.0585 27.0983V27.5477H69.5457V27.6267C69.5457 28.7382 70.2138 29.4731 71.2645 29.4731C72.0116 29.4731 72.5643 29.0965 72.7405 28.5378ZM77.1214 30.5239C75.5058 30.5239 74.4368 29.2362 74.4368 27.2198C74.4368 25.2033 75.5058 23.9217 77.1092 23.9217C78.0264 23.9217 78.7552 24.3833 79.1136 25.0879H79.1379V21.6501H80.4559V30.4146H79.1804V29.3274H79.1561C78.7795 30.0562 78.0507 30.5239 77.1214 30.5239ZM77.4676 25.0271C76.429 25.0271 75.7791 25.8775 75.7791 27.2198C75.7791 28.5681 76.429 29.4124 77.4676 29.4124C78.4758 29.4124 79.15 28.556 79.15 27.2198C79.15 25.8957 78.4758 25.0271 77.4676 25.0271ZM87.019 30.5239C86.0837 30.5239 85.3609 30.0683 84.9661 29.3274H84.9418V30.4146H83.6663V21.6501H84.9783V25.1122H85.0086C85.3913 24.3712 86.1201 23.9217 87.0251 23.9217C88.6347 23.9217 89.6854 25.1972 89.6854 27.2198C89.6854 29.2484 88.6407 30.5239 87.019 30.5239ZM86.6668 25.0271C85.6707 25.0271 84.9722 25.9018 84.9722 27.2198C84.9722 28.5499 85.6707 29.4124 86.6668 29.4124C87.6993 29.4124 88.337 28.5742 88.337 27.2198C88.337 25.8775 87.6993 25.0271 86.6668 25.0271ZM90.8169 32.7955C90.7136 32.7955 90.3796 32.7833 90.2824 32.7651V31.7022C90.3796 31.7265 90.5982 31.7265 90.7076 31.7265C91.321 31.7265 91.6429 31.4714 91.8434 30.8154C91.8434 30.8033 91.9588 30.4267 91.9588 30.4206L89.6507 24.025H91.072L92.6937 29.2241H92.7119L94.3336 24.025H95.7184L93.3193 30.7486C92.7726 32.2974 92.147 32.7955 90.8169 32.7955ZM42.8184 46.6089C40.9356 46.6089 39.5811 45.4913 39.5265 43.9061H41.2211C41.3243 44.6471 41.9803 45.1573 42.8306 45.1573C43.7902 45.1573 44.4523 44.4892 44.4523 43.5356C44.4523 42.5638 43.7902 41.8835 42.8427 41.8835C42.1807 41.8835 41.6098 42.1872 41.3061 42.6913H39.6662L40.0974 37.6501H45.6731V39.1078H41.5369L41.3365 41.507H41.3729C41.7312 40.9178 42.4297 40.5473 43.3226 40.5473C44.9989 40.5473 46.2015 41.7803 46.2015 43.487C46.2015 45.3456 44.8289 46.6089 42.8184 46.6089ZM50.297 46.6089C48.0922 46.6089 46.7499 44.8536 46.7499 42.0172C46.7499 39.1868 48.1044 37.4497 50.297 37.4497C52.4896 37.4497 53.838 39.1807 53.838 42.0111C53.838 44.8415 52.5018 46.6089 50.297 46.6089ZM50.297 45.1391C51.3417 45.1391 51.9733 44.0154 51.9733 42.0172C51.9733 40.0371 51.3356 38.9196 50.297 38.9196C49.2645 38.9196 48.6146 40.0432 48.6146 42.0172C48.6146 44.0093 49.2523 45.1391 50.297 45.1391ZM58.0428 46.6089C55.838 46.6089 54.4957 44.8536 54.4957 42.0172C54.4957 39.1868 55.8502 37.4497 58.0428 37.4497C60.2354 37.4497 61.5838 39.1807 61.5838 42.0111C61.5838 44.8415 60.2475 46.6089 58.0428 46.6089ZM58.0428 45.1391C59.0875 45.1391 59.7191 44.0154 59.7191 42.0172C59.7191 40.0371 59.0814 38.9196 58.0428 38.9196C57.0102 38.9196 56.3603 40.0432 56.3603 42.0172C56.3603 44.0093 56.9981 45.1391 58.0428 45.1391ZM64.3005 46.4146H62.4662V37.6501H64.3005V41.6467H64.3552L67.6471 37.6501H69.6879L66.4445 41.5373L69.9126 46.4146H67.72L65.1204 42.7521L64.3005 43.736V46.4146ZM77.9031 40.025V46.4146H76.6459V45.3334H76.6155C76.2632 46.0987 75.6133 46.53 74.6355 46.53C73.2446 46.53 72.3942 45.625 72.3942 44.1612V40.025H73.7062V43.9061C73.7062 44.8779 74.1678 45.4002 75.0728 45.4002C76.0203 45.4002 76.5912 44.7443 76.5912 43.7482V40.025H77.9031ZM78.7309 41.8349C78.7309 40.6931 79.7392 39.9096 81.2333 39.9096C82.6546 39.9096 83.6507 40.7052 83.6932 41.841H82.4602C82.3995 41.264 81.9318 40.9057 81.1969 40.9057C80.4862 40.9057 80.0125 41.2519 80.0125 41.756C80.0125 42.1508 80.3283 42.418 80.9904 42.582L82.0654 42.831C83.353 43.1408 83.8389 43.6267 83.8389 44.5681C83.8389 45.7343 82.7517 46.536 81.1847 46.536C79.6724 46.536 78.6702 45.7525 78.5669 44.5803H79.8667C79.97 45.1937 80.4437 45.5339 81.2455 45.5339C82.035 45.5339 82.5209 45.2059 82.5209 44.6896C82.5209 44.2827 82.278 44.0579 81.6099 43.8879L80.468 43.6085C79.314 43.3291 78.7309 42.7278 78.7309 41.8349ZM87.1752 40.9664C86.2581 40.9664 85.6142 41.6649 85.5474 42.6306H88.7422C88.7119 41.6527 88.0923 40.9664 87.1752 40.9664ZM88.7361 44.5378H89.9813C89.7991 45.7039 88.6936 46.536 87.2299 46.536C85.3531 46.536 84.2173 45.2666 84.2173 43.2501C84.2173 41.2458 85.3713 39.9096 87.1752 39.9096C88.9487 39.9096 90.0542 41.1608 90.0542 43.0983V43.5477H85.5414V43.6267C85.5414 44.7382 86.2095 45.4731 87.2602 45.4731C88.0073 45.4731 88.56 45.0965 88.7361 44.5378ZM90.718 46.4146V40.025H91.9691V41.1122H91.9995C92.2121 40.3651 92.783 39.9217 93.5362 39.9217C93.7245 39.9217 93.8884 39.9521 93.9856 39.9703V41.1911C93.8824 41.1486 93.6516 41.1182 93.3965 41.1182C92.5522 41.1182 92.0299 41.6831 92.0299 42.5881V46.4146H90.718ZM94.3275 41.8349C94.3275 40.6931 95.3358 39.9096 96.8299 39.9096C98.2512 39.9096 99.2473 40.7052 99.2898 41.841H98.0568C97.9961 41.264 97.5284 40.9057 96.7935 40.9057C96.0828 40.9057 95.6091 41.2519 95.6091 41.756C95.6091 42.1508 95.9249 42.418 96.587 42.582L97.662 42.831C98.9496 43.1408 99.4355 43.6267 99.4355 44.5681C99.4355 45.7343 98.3483 46.536 96.7813 46.536C95.2689 46.536 94.2668 45.7525 94.1635 44.5803H95.4633C95.5666 45.1937 96.0403 45.5339 96.842 45.5339C97.6316 45.5339 98.1175 45.2059 98.1175 44.6896C98.1175 44.2827 97.8746 44.0579 97.2065 43.8879L96.0646 43.6085C94.9106 43.3291 94.3275 42.7278 94.3275 41.8349Z" fill="#110D38"/>
<defs>
<linearGradient id="paint0_linear_2013_3281" x1="69.8434" y1="7.46338" x2="69.8434" y2="60.9882" gradientUnits="userSpaceOnUse">
<stop stop-color="#FFC227"/>
<stop offset="1" stop-color="#FF9900"/>
</linearGradient>
</defs>
</svg>
