<svg width="139" height="69" viewBox="0 0 139 69" fill="none" xmlns="http://www.w3.org/2000/svg">
<path d="M25.9289 12.3696C24.9968 13.3664 24.6559 14.1517 24.6402 14.1476C24.6402 14.1567 25.5043 14.0249 26.7714 13.7835C28.0468 13.5381 29.7244 13.184 31.5671 12.6375C33.3981 12.0777 35.1818 11.4077 36.5957 10.8861C37.9964 10.362 39.0263 9.98715 39.0114 9.97968C39.0106 9.99295 38.0295 9.54597 36.4274 9.27315C34.8402 8.99783 32.6302 8.89666 30.5048 9.5468C28.7562 10.0655 27.177 11.0397 25.9289 12.3696ZM20.8819 17.0857C21.8588 16.0516 23.1243 14.7521 24.2239 13.393C26.4165 10.7011 26.919 8.25563 26.8775 8.22412C26.8925 8.23656 25.6005 8.56412 24.0846 9.41993C22.5654 10.2558 20.8206 11.6208 19.8387 13.2553C17.919 16.5044 19.2035 18.8056 19.2018 18.8537C19.2292 18.8421 19.915 18.0932 20.8811 17.0857H20.8819ZM14.8896 28.5329C14.9046 28.518 15.2247 27.5486 15.6609 26.2317C16.0962 24.8916 16.6494 23.1974 16.9802 21.5314C17.6445 18.2268 16.8616 15.855 16.8227 15.8401C16.8368 15.8476 15.9478 16.6487 15.0613 18.0252C14.1673 19.3852 13.2751 21.3208 13.1109 23.2015C12.8049 26.9316 14.8673 28.4931 14.8896 28.5329ZM14.7147 39.184C14.723 39.1666 14.6516 38.1408 14.5521 36.7493C14.441 35.3395 14.3009 33.5566 13.9476 31.8981C13.2527 28.6059 11.556 26.7856 11.5195 26.7873C11.5336 26.7873 11.0717 27.8836 10.8163 29.5073C10.5509 31.1194 10.4929 33.2606 11.0609 35.0501C12.2053 38.5944 14.679 39.1591 14.7138 39.1849L14.7147 39.184ZM18.6769 49.0142C18.6769 48.9943 18.1918 48.0887 17.5516 46.8581C16.8932 45.6142 16.0772 44.0394 15.1243 42.6686C13.2386 39.942 10.9995 38.9883 10.9655 39.0049C10.9788 38.9999 10.9672 40.1991 11.3487 41.7962C11.7144 43.3859 12.4723 45.3745 13.6872 46.7743C16.1128 49.535 18.633 49.0067 18.6769 49.0142ZM24.6601 54.7734C23.4502 53.9351 21.9774 52.8578 20.5096 52.0145C17.603 50.3335 15.1915 50.4024 15.1608 50.4331C15.1741 50.4223 15.6368 51.5235 16.656 52.8172C17.6561 54.1109 19.2126 55.5969 20.9914 56.3441C24.5233 57.8011 26.7299 56.2454 26.7747 56.228C26.7697 56.2114 25.8443 55.6102 24.6601 54.7734ZM35.8801 58.7141C34.1162 58.5209 32.0041 58.2207 30.1051 58.1112C26.3476 57.8815 24.1343 58.9671 24.1061 59.011C24.1194 58.9944 25.0814 59.7872 26.7415 60.5004C28.3785 61.2218 30.7146 61.8629 32.971 61.7318C35.2258 61.6166 36.784 60.8851 37.7227 60.2441C38.6714 59.5931 38.9998 59.0326 39.0114 59.0334C39.0197 59.0201 37.6232 58.9206 35.8801 58.7141ZM30.3572 15.7025C30.3215 15.6776 28.4192 13.9079 25.214 14.7928C23.6028 15.248 22.1706 16.3966 21.2435 17.4273C20.3006 18.459 19.8636 19.3728 19.852 19.362C19.8769 19.3902 22.193 19.8007 24.8243 18.7285C26.1536 18.1894 27.4497 17.4132 28.5104 16.7954C29.5503 16.176 30.3563 15.7141 30.3572 15.7025ZM15.6816 28.7228C15.7081 28.7394 17.9861 28.1407 19.8454 26.0874C20.7849 25.0533 21.5536 23.8293 22.1615 22.8491C22.7528 21.8789 23.1856 21.1491 23.1848 21.1342C23.145 21.1325 20.7957 20.2883 18.4547 22.3864C17.2829 23.4478 16.5175 25.074 16.1269 26.3909C15.7231 27.7144 15.6932 28.7286 15.6816 28.7228ZM18.3286 34.8552C19.2002 32.2207 19.3619 29.0006 19.4017 28.9426C19.3569 28.9591 16.9255 29.1681 15.6244 32.059C14.9751 33.5185 14.8963 35.3288 15.0381 36.6995C15.1708 38.0819 15.5232 39.024 15.5116 39.024C15.5406 39.0281 17.4114 37.5164 18.3286 34.8552ZM19.3445 48.5315C19.3743 48.5232 20.464 46.3564 20.2716 43.5311C20.1762 42.1064 19.8354 40.6916 19.5468 39.5738C19.2533 38.465 19.0136 37.654 19.0061 37.6565C19.0468 37.6507 16.8202 38.854 16.7215 42.108C16.68 43.721 17.3053 45.4127 17.977 46.6068C18.6429 47.8159 19.3553 48.5266 19.3436 48.5315H19.3445ZM21.7477 50.8286C22.3987 52.313 23.7462 53.5776 24.9454 54.3646C26.1412 55.1707 27.1885 55.4982 27.1761 55.509C27.2093 55.4866 27.1479 53.0834 25.6759 50.613C24.9362 49.3666 24.0133 48.2247 23.281 47.3291C22.5562 46.4526 22.018 45.8165 21.999 45.8082C21.9907 45.8497 20.4731 47.8756 21.7477 50.8286ZM34.5416 54.6001C33.073 53.8297 31.5496 53.2186 30.3771 52.7351C29.2269 52.2707 28.4167 51.9307 28.381 51.9266C28.4059 51.968 27.8917 54.4475 30.7021 56.5182C32.1293 57.554 34.2182 58.0739 35.9414 58.2273C37.6655 58.399 39.023 58.205 39.0106 58.2207C39.0462 58.1834 37.4623 56.1243 34.5416 54.6001ZM103.091 10.8861C104.506 11.4077 106.289 12.0777 108.12 12.6375C109.963 13.184 111.64 13.5381 112.917 13.7835C114.183 14.0249 115.048 14.1567 115.047 14.1476C115.031 14.1517 114.69 13.3664 113.757 12.3696C112.509 11.0398 110.93 10.0659 109.182 9.54763C107.056 8.89666 104.847 8.99783 103.259 9.27315C101.657 9.54597 100.677 9.99295 100.676 9.97968C100.66 9.98797 101.692 10.362 103.091 10.8861ZM118.804 17.0857C119.771 18.0932 120.457 18.8421 120.485 18.8537C120.483 18.8048 121.767 16.5035 119.848 13.2561C118.866 11.6208 117.122 10.2558 115.602 9.41993C114.086 8.56412 112.794 8.23656 112.808 8.22412C112.767 8.25563 113.269 10.7011 115.462 13.393C116.561 14.7521 117.828 16.0516 118.804 17.0857ZM124.025 26.2317C124.462 27.5486 124.782 28.5188 124.797 28.5329C124.819 28.4931 126.882 26.9308 126.576 23.2007C126.41 21.3208 125.519 19.3844 124.625 18.0244C123.738 16.6478 122.849 15.8468 122.863 15.8393C122.825 15.8542 122.042 18.2259 122.706 21.5306C123.036 23.1966 123.59 24.8916 124.025 26.2317ZM125.135 36.7493C125.036 38.1416 124.965 39.1666 124.973 39.1849C125.008 39.16 127.483 38.5944 128.626 35.0501C129.194 33.2614 129.136 31.1194 128.87 29.5081C128.616 27.8828 128.154 26.7881 128.167 26.7873C128.131 26.7856 126.435 28.6067 125.74 31.8981C125.386 33.5566 125.245 35.3395 125.135 36.7493ZM124.564 42.6686C123.611 44.0394 122.795 45.615 122.136 46.8581C121.496 48.0887 121.011 48.9943 121.011 49.0142C121.054 49.0059 123.574 49.5341 126 46.7751C127.216 45.3745 127.974 43.3859 128.339 41.7962C128.72 40.1991 128.708 38.9999 128.722 39.0049C128.688 38.9883 126.449 39.942 124.564 42.6686ZM119.176 52.0145C117.708 52.857 116.235 53.9351 115.025 54.7734C113.84 55.611 112.917 56.2114 112.912 56.2288C112.956 56.2454 115.163 57.8011 118.695 56.3449C120.474 55.5969 122.029 54.1117 123.03 52.818C124.049 51.5235 124.511 50.4214 124.526 50.4331C124.494 50.4024 122.083 50.3335 119.177 52.0145H119.176ZM109.58 58.1112C107.682 58.2207 105.57 58.5201 103.805 58.7141C102.062 58.9206 100.667 59.021 100.676 59.0334C100.686 59.0326 101.015 59.5931 101.964 60.2441C102.902 60.8851 104.461 61.6174 106.715 61.7318C108.972 61.8629 111.308 61.2218 112.946 60.5004C114.605 59.7872 115.567 58.9936 115.581 59.011C115.551 58.9671 113.339 57.8824 109.581 58.1112H109.58ZM119.835 19.362C119.824 19.3728 119.387 18.459 118.443 17.4273C117.517 16.3966 116.084 15.248 114.473 14.7928C111.268 13.9079 109.366 15.6776 109.33 15.7016C109.33 15.7132 110.137 16.176 111.177 16.7954C112.237 17.4132 113.534 18.1894 114.863 18.7285C117.494 19.8007 119.811 19.3902 119.835 19.362ZM116.502 21.1342C116.502 21.1483 116.934 21.8772 117.526 22.8483C118.134 23.8285 118.902 25.0533 119.842 26.0866C121.701 28.1398 123.979 28.7386 124.006 28.722C123.994 28.727 123.964 27.7136 123.56 26.3901C123.17 25.0732 122.404 23.447 121.233 22.3847C118.891 20.2883 116.541 21.1333 116.502 21.1342ZM124.063 32.059C122.762 29.1681 120.33 28.9591 120.285 28.9426C120.325 29.0006 120.487 32.2207 121.359 34.8552C122.277 37.5172 124.146 39.0281 124.175 39.024C124.163 39.024 124.516 38.0811 124.648 36.6995C124.791 35.3288 124.712 33.5185 124.063 32.059ZM120.14 39.5738C119.852 40.6916 119.511 42.1064 119.415 43.5311C119.223 46.3564 120.312 48.5232 120.343 48.5315C120.331 48.5266 121.043 47.8159 121.709 46.6068C122.381 45.4127 123.006 43.721 122.965 42.108C122.866 38.854 120.64 37.6499 120.681 37.6565C120.674 37.654 120.433 38.465 120.14 39.5738ZM114.741 54.3654C115.94 53.5776 117.288 52.313 117.939 50.8294C119.213 47.8764 117.695 45.8497 117.687 45.8082C117.668 45.8165 117.13 46.4526 116.405 47.3291C115.673 48.2247 114.749 49.3666 114.01 50.613C112.538 53.0842 112.476 55.4866 112.509 55.509C112.498 55.4982 113.545 55.1707 114.741 54.3646V54.3654ZM103.746 58.2273C105.468 58.0739 107.557 57.554 108.985 56.5182C111.795 54.4467 111.281 51.968 111.305 51.9266C111.271 51.9299 110.459 52.2707 109.31 52.7351C108.138 53.2186 106.614 53.8297 105.145 54.601C102.225 56.1243 100.641 58.1834 100.676 58.2207C100.664 58.2058 102.022 58.399 103.746 58.2273Z" fill="url(#paint0_linear_2104_7204)"/>
<path d="M47.1372 31.1753H45.7767V23.5831H43.0921V22.4109H49.8158V23.5831H47.1372V31.1753ZM49.2223 31.1753V24.7857H50.4735V25.8729H50.5039C50.7164 25.1258 51.2874 24.6825 52.0405 24.6825C52.2288 24.6825 52.3928 24.7128 52.49 24.7311V25.9519C52.3867 25.9094 52.1559 25.879 51.9008 25.879C51.0566 25.879 50.5342 26.4438 50.5342 27.3488V31.1753H49.2223ZM58.4258 24.7857V31.1753H57.1685V30.0942H57.1382C56.7859 30.8595 56.136 31.2907 55.1581 31.2907C53.7672 31.2907 52.9169 30.3857 52.9169 28.9219V24.7857H54.2288V28.6668C54.2288 29.6386 54.6904 30.161 55.5954 30.161C56.5429 30.161 57.1139 29.505 57.1139 28.5089V24.7857H58.4258ZM59.2536 26.5957C59.2536 25.4538 60.2618 24.6703 61.756 24.6703C63.1772 24.6703 64.1733 25.466 64.2158 26.6018H62.9829C62.9221 26.0248 62.4544 25.6664 61.7195 25.6664C61.0089 25.6664 60.5351 26.0126 60.5351 26.5167C60.5351 26.9115 60.851 27.1788 61.513 27.3428L62.5881 27.5918C63.8757 27.9015 64.3616 28.3874 64.3616 29.3289C64.3616 30.495 63.2744 31.2968 61.7074 31.2968C60.195 31.2968 59.1928 30.5133 59.0896 29.341H60.3894C60.4926 29.9545 60.9664 30.2946 61.7681 30.2946C62.5577 30.2946 63.0436 29.9666 63.0436 29.4504C63.0436 29.0434 62.8006 28.8187 62.1325 28.6486L60.9907 28.3692C59.8367 28.0898 59.2536 27.4885 59.2536 26.5957ZM65.408 23.2734H66.726V24.7857H67.9408V25.8243H66.726V29.3471C66.726 29.8998 66.969 30.1488 67.5035 30.1488C67.6371 30.1488 67.8497 30.1367 67.9347 30.1185V31.1571C67.789 31.1935 67.4974 31.2178 67.2059 31.2178C65.9122 31.2178 65.408 30.7258 65.408 29.4929V25.8243H64.4788V24.7857H65.408V23.2734ZM71.1799 25.7271C70.2627 25.7271 69.6189 26.4256 69.5521 27.3914H72.7469C72.7165 26.4135 72.097 25.7271 71.1799 25.7271ZM72.7408 29.2985H73.9859C73.8037 30.4647 72.6983 31.2968 71.2345 31.2968C69.3577 31.2968 68.222 30.0274 68.222 28.0109C68.222 26.0065 69.376 24.6703 71.1799 24.6703C72.9534 24.6703 74.0588 25.9215 74.0588 27.859V28.3085H69.546V28.3874C69.546 29.4989 70.2141 30.2339 71.2649 30.2339C72.012 30.2339 72.5647 29.8573 72.7408 29.2985ZM77.1217 31.2846C75.5061 31.2846 74.4372 29.997 74.4372 27.9805C74.4372 25.964 75.5061 24.6825 77.1096 24.6825C78.0267 24.6825 78.7556 25.1441 79.1139 25.8486H79.1382V22.4109H80.4562V31.1753H79.1807V30.0881H79.1565C78.7799 30.8169 78.051 31.2846 77.1217 31.2846ZM77.468 25.7879C76.4293 25.7879 75.7795 26.6382 75.7795 27.9805C75.7795 29.3289 76.4293 30.1731 77.468 30.1731C78.4762 30.1731 79.1504 29.3167 79.1504 27.9805C79.1504 26.6564 78.4762 25.7879 77.468 25.7879ZM87.0194 31.2846C86.0841 31.2846 85.3613 30.8291 84.9665 30.0881H84.9422V31.1753H83.6667V22.4109H84.9786V25.8729H85.009C85.3916 25.1319 86.1205 24.6825 87.0255 24.6825C88.635 24.6825 89.6858 25.9579 89.6858 27.9805C89.6858 30.0091 88.6411 31.2846 87.0194 31.2846ZM86.6671 25.7879C85.671 25.7879 84.9726 26.6625 84.9726 27.9805C84.9726 29.3107 85.671 30.1731 86.6671 30.1731C87.6997 30.1731 88.3374 29.3349 88.3374 27.9805C88.3374 26.6382 87.6997 25.7879 86.6671 25.7879ZM90.8173 33.5562C90.714 33.5562 90.38 33.5441 90.2828 33.5258V32.4629C90.38 32.4872 90.5986 32.4872 90.7079 32.4872C91.3214 32.4872 91.6433 32.2321 91.8437 31.5762C91.8437 31.564 91.9591 31.1874 91.9591 31.1814L89.6511 24.7857H91.0724L92.6941 29.9848H92.7123L94.334 24.7857H95.7188L93.3196 31.5093C92.773 33.0582 92.1474 33.5562 90.8173 33.5562ZM42.8188 47.3697C40.936 47.3697 39.5815 46.2521 39.5268 44.6668H41.2214C41.3247 45.4078 41.9806 45.918 42.831 45.918C43.7906 45.918 44.4526 45.2499 44.4526 44.2963C44.4526 43.3245 43.7906 42.6443 42.8431 42.6443C42.1811 42.6443 41.6101 42.948 41.3065 43.4521H39.6665L40.0978 38.4109H45.6735V39.8686H41.5373L41.3368 42.2677H41.3733C41.7316 41.6786 42.4301 41.3081 43.3229 41.3081C44.9993 41.3081 46.2019 42.541 46.2019 44.2477C46.2019 46.1063 44.8292 47.3697 42.8188 47.3697ZM50.2974 47.3697C48.0926 47.3697 46.7503 45.6143 46.7503 42.7779C46.7503 39.9475 48.1047 38.2104 50.2974 38.2104C52.49 38.2104 53.8383 39.9415 53.8383 42.7718C53.8383 45.6022 52.5021 47.3697 50.2974 47.3697ZM50.2974 45.8998C51.342 45.8998 51.9737 44.7762 51.9737 42.7779C51.9737 40.7979 51.336 39.6803 50.2974 39.6803C49.2648 39.6803 48.6149 40.8039 48.6149 42.7779C48.6149 44.7701 49.2527 45.8998 50.2974 45.8998ZM58.0431 47.3697C55.8384 47.3697 54.4961 45.6143 54.4961 42.7779C54.4961 39.9475 55.8505 38.2104 58.0431 38.2104C60.2358 38.2104 61.5841 39.9415 61.5841 42.7718C61.5841 45.6022 60.2479 47.3697 58.0431 47.3697ZM58.0431 45.8998C59.0878 45.8998 59.7195 44.7762 59.7195 42.7779C59.7195 40.7979 59.0818 39.6803 58.0431 39.6803C57.0106 39.6803 56.3607 40.8039 56.3607 42.7779C56.3607 44.7701 56.9985 45.8998 58.0431 45.8998ZM64.3009 47.1753H62.4666V38.4109H64.3009V42.4074H64.3555L67.6475 38.4109H69.6883L66.4449 42.2981L69.913 47.1753H67.7204L65.1208 43.5128L64.3009 44.4968V47.1753ZM77.9035 40.7857V47.1753H76.6462V46.0942H76.6159C76.2636 46.8595 75.6137 47.2907 74.6358 47.2907C73.2449 47.2907 72.3946 46.3857 72.3946 44.9219V40.7857H73.7065V44.6668C73.7065 45.6386 74.1681 46.161 75.0731 46.161C76.0206 46.161 76.5916 45.505 76.5916 44.5089V40.7857H77.9035ZM78.7313 42.5957C78.7313 41.4538 79.7395 40.6703 81.2337 40.6703C82.6549 40.6703 83.651 41.466 83.6935 42.6018H82.4606C82.3998 42.0248 81.9322 41.6664 81.1972 41.6664C80.4866 41.6664 80.0129 42.0126 80.0129 42.5167C80.0129 42.9115 80.3287 43.1788 80.9907 43.3428L82.0658 43.5918C83.3534 43.9015 83.8393 44.3874 83.8393 45.3289C83.8393 46.495 82.7521 47.2968 81.1851 47.2968C79.6727 47.2968 78.6706 46.5133 78.5673 45.341H79.8671C79.9703 45.9545 80.4441 46.2946 81.2458 46.2946C82.0354 46.2946 82.5213 45.9666 82.5213 45.4504C82.5213 45.0434 82.2784 44.8187 81.6103 44.6486L80.4684 44.3692C79.3144 44.0898 78.7313 43.4885 78.7313 42.5957ZM87.1756 41.7271C86.2584 41.7271 85.6146 42.4256 85.5478 43.3914H88.7426C88.7122 42.4135 88.0927 41.7271 87.1756 41.7271ZM88.7365 45.2985H89.9816C89.7994 46.4647 88.694 47.2968 87.2302 47.2968C85.3534 47.2968 84.2177 46.0274 84.2177 44.0109C84.2177 42.0065 85.3717 40.6703 87.1756 40.6703C88.9491 40.6703 90.0545 41.9215 90.0545 43.859V44.3085H85.5417V44.3874C85.5417 45.4989 86.2098 46.2339 87.2606 46.2339C88.0077 46.2339 88.5604 45.8573 88.7365 45.2985ZM90.7183 47.1753V40.7857H91.9695V41.8729H91.9999C92.2125 41.1258 92.7834 40.6825 93.5365 40.6825C93.7248 40.6825 93.8888 40.7128 93.986 40.7311V41.9519C93.8827 41.9094 93.6519 41.879 93.3968 41.879C92.5526 41.879 92.0302 42.4438 92.0302 43.3488V47.1753H90.7183ZM94.3279 42.5957C94.3279 41.4538 95.3361 40.6703 96.8303 40.6703C98.2515 40.6703 99.2476 41.466 99.2901 42.6018H98.0572C97.9964 42.0248 97.5287 41.6664 96.7938 41.6664C96.0832 41.6664 95.6094 42.0126 95.6094 42.5167C95.6094 42.9115 95.9253 43.1788 96.5873 43.3428L97.6624 43.5918C98.95 43.9015 99.4359 44.3874 99.4359 45.3289C99.4359 46.495 98.3487 47.2968 96.7817 47.2968C95.2693 47.2968 94.2671 46.5133 94.1639 45.341H95.4637C95.5669 45.9545 96.0407 46.2946 96.8424 46.2946C97.632 46.2946 98.1179 45.9666 98.1179 45.4504C98.1179 45.0434 97.875 44.8187 97.2068 44.6486L96.065 44.3692C94.911 44.0898 94.3279 43.4885 94.3279 42.5957Z" fill="#110D38"/>
<defs>
<linearGradient id="paint0_linear_2104_7204" x1="120.136" y1="53.1468" x2="55.5106" y2="-17.8099" gradientUnits="userSpaceOnUse">
<stop stop-color="#B4ADFF"/>
<stop offset="1" stop-color="#5F44F8"/>
</linearGradient>
</defs>
</svg>
