<svg width="327" height="62" viewBox="0 0 327 62" fill="none" xmlns="http://www.w3.org/2000/svg">
<g clip-path="url(#clip0_2445_9602)">
<rect width="327" height="62" fill="#2E2E2E"/>
<g clip-path="url(#clip1_2445_9602)">
<path d="M22.6095 3.3338C24.1373 3.33258 25.6174 2.8017 26.7976 1.83161C27.9779 0.861519 28.7853 -0.487779 29.0824 -1.98641C29.3794 -3.48505 29.1477 -5.04031 28.4266 -6.38724C27.7056 -7.73418 26.5398 -8.78946 25.128 -9.37331C23.7162 -9.95716 22.1456 -10.0335 20.6838 -9.58921C19.2221 -9.14496 17.9595 -8.20764 17.1113 -6.93694C16.2631 -5.66624 15.8817 -4.14077 16.0321 -2.6204C16.1824 -1.10003 16.8553 0.321181 17.936 1.40111C18.5493 2.01513 19.2779 2.50195 20.0799 2.83362C20.8819 3.16529 21.7416 3.33527 22.6095 3.3338ZM20.7643 -5.11758C21.1912 -5.54442 21.7529 -5.81005 22.3537 -5.86921C22.9544 -5.92836 23.5571 -5.77737 24.0591 -5.44198C24.561 -5.10658 24.9311 -4.60752 25.1063 -4.02984C25.2815 -3.45216 25.251 -2.83159 25.02 -2.27387C24.789 -1.71615 24.3717 -1.25579 23.8393 -0.971226C23.3069 -0.686663 22.6923 -0.595504 22.1003 -0.71328C21.5082 -0.831056 20.9753 -1.15048 20.5923 -1.61713C20.2093 -2.08378 20 -2.66878 20 -3.27245C19.9991 -3.61526 20.0661 -3.95486 20.1973 -4.27158C20.3285 -4.5883 20.5213 -4.87585 20.7643 -5.11758ZM41.3907 4.6633C39.8615 4.66327 38.3797 5.19346 37.1976 6.16352C36.0155 7.13358 35.2064 8.4835 34.908 9.98326C34.6097 11.483 34.8406 13.0398 35.5614 14.3884C36.2823 15.737 37.4484 16.794 38.8611 17.3792C40.2739 17.9644 41.8458 18.0416 43.3091 17.5977C44.7724 17.1538 46.0366 16.2163 46.8861 14.9449C47.7357 13.6734 48.1181 12.1468 47.9682 10.625C47.8183 9.10318 47.1454 7.68044 46.0642 6.59917C45.4519 5.98349 44.7235 5.49538 43.9213 5.16309C43.1191 4.83079 42.259 4.66092 41.3907 4.6633ZM43.2357 13.1178C42.7457 13.6041 42.083 13.8764 41.3926 13.8751C40.7023 13.8739 40.0406 13.599 39.5524 13.1109C39.0643 12.6227 38.7895 11.961 38.7882 11.2707C38.7869 10.5803 39.0592 9.91759 39.5455 9.42761C39.7875 9.18382 40.0752 8.9902 40.3922 8.85787C40.7092 8.72553 41.0492 8.65708 41.3927 8.65644C41.7362 8.6558 42.0764 8.72298 42.3939 8.85414C42.7113 8.9853 42.9998 9.17785 43.2427 9.42073C43.4855 9.66362 43.6781 9.95208 43.8092 10.2695C43.9404 10.587 44.0075 10.9273 44.0069 11.2708C44.0062 11.6142 43.9378 11.9542 43.8054 12.2712C43.6731 12.5882 43.4795 12.8759 43.2357 13.1179L43.2357 13.1178ZM45.2962 -9.29608C45.4819 -9.11036 45.6293 -8.88988 45.7298 -8.64723C45.8303 -8.40457 45.882 -8.1445 45.882 -7.88186C45.882 -7.61921 45.8303 -7.35914 45.7298 -7.11649C45.6293 -6.87383 45.4819 -6.65336 45.2962 -6.46764L21.5323 17.2963C21.1568 17.669 20.6488 17.8777 20.1197 17.8766C19.5906 17.8756 19.0835 17.665 18.7094 17.2908C18.3352 16.9167 18.1246 16.4096 18.1236 15.8805C18.1226 15.3514 18.3313 14.8434 18.704 14.4679L42.4678 -9.29608C42.8429 -9.67113 43.3516 -9.88184 43.882 -9.88184C44.4124 -9.88184 44.9211 -9.67113 45.2962 -9.29608Z" fill="white" fill-opacity="0.3"/>
</g>
<g clip-path="url(#clip2_2445_9602)">
<path d="M97.9797 50.7922C100.749 50.79 103.431 49.8278 105.571 48.0695C107.71 46.3112 109.173 43.8656 109.712 41.1493C110.25 38.433 109.83 35.6141 108.523 33.1728C107.216 30.7315 105.103 28.8188 102.545 27.7606C99.9856 26.7023 97.1389 26.5641 94.4894 27.3693C91.84 28.1745 89.5516 29.8733 88.0143 32.1765C86.4769 34.4796 85.7856 37.2446 86.0581 40.0002C86.3307 42.7559 87.5502 45.3318 89.5089 47.2892C90.6206 48.4021 91.9412 49.2845 93.3949 49.8856C94.8485 50.4868 96.4066 50.7949 97.9797 50.7922ZM94.6354 35.4741C95.4091 34.7004 96.4271 34.219 97.516 34.1118C98.6049 34.0045 99.6973 34.2782 100.607 34.8861C101.517 35.494 102.188 36.3986 102.505 37.4456C102.823 38.4927 102.768 39.6174 102.349 40.6283C101.93 41.6392 101.174 42.4736 100.209 42.9893C99.2438 43.5051 98.1299 43.6703 97.0567 43.4569C95.9836 43.2434 95.0177 42.6644 94.3236 41.8186C93.6294 40.9728 93.25 39.9125 93.25 38.8184C93.2483 38.197 93.3699 37.5815 93.6077 37.0075C93.8455 36.4334 94.1948 35.9122 94.6354 35.4741ZM132.021 53.2019C129.249 53.2019 126.563 54.1628 124.421 55.9211C122.278 57.6793 120.812 60.126 120.271 62.8444C119.73 65.5627 120.149 68.3844 121.455 70.8287C122.762 73.2731 124.875 75.1888 127.436 76.2494C129.996 77.3101 132.846 77.4501 135.498 76.6455C138.15 75.841 140.441 74.1417 141.981 71.8373C143.521 69.5328 144.214 66.7657 143.942 64.0075C143.671 61.2492 142.451 58.6705 140.491 56.7107C139.382 55.5948 138.061 54.7101 136.607 54.1078C135.153 53.5055 133.594 53.1976 132.021 53.2019ZM135.365 68.5257C134.477 69.4072 133.275 69.9008 132.024 69.8984C130.773 69.8961 129.574 69.398 128.689 68.5132C127.804 67.6284 127.306 66.4291 127.304 65.1778C127.301 63.9265 127.795 62.7253 128.676 61.8372C129.115 61.3954 129.636 61.0444 130.211 60.8046C130.785 60.5647 131.402 60.4406 132.024 60.4395C132.647 60.4383 133.263 60.5601 133.839 60.7978C134.414 61.0355 134.937 61.3845 135.377 61.8248C135.818 62.265 136.167 62.7878 136.404 63.3633C136.642 63.9387 136.764 64.5554 136.762 65.1779C136.761 65.8005 136.637 66.4167 136.397 66.9912C136.157 67.5658 135.807 68.0873 135.365 68.5258L135.365 68.5257ZM139.099 27.9006C139.436 28.2372 139.703 28.6368 139.885 29.0766C140.067 29.5164 140.161 29.9878 140.161 30.4638C140.161 30.9399 140.067 31.4113 139.885 31.8511C139.703 32.2909 139.436 32.6905 139.099 33.0271L96.0274 76.0992C95.3466 76.7747 94.426 77.153 93.467 77.1511C92.508 77.1493 91.5888 76.7675 90.9107 76.0894C90.2326 75.4112 89.8508 74.492 89.849 73.533C89.8472 72.574 90.2254 71.6534 90.9009 70.9727L133.973 27.9006C134.653 27.2208 135.575 26.8389 136.536 26.8389C137.498 26.8389 138.42 27.2208 139.099 27.9006Z" fill="white" fill-opacity="0.3"/>
</g>
<g clip-path="url(#clip3_2445_9602)">
<path d="M185.37 5.45841C186.612 5.45742 187.814 5.02608 188.773 4.23788C189.732 3.44968 190.388 2.35337 190.629 1.13573C190.871 -0.0819068 190.682 -1.34556 190.097 -2.43994C189.511 -3.53433 188.564 -4.39174 187.417 -4.86612C186.269 -5.3405 184.993 -5.40249 183.806 -5.04154C182.618 -4.68058 181.592 -3.91901 180.903 -2.88657C180.214 -1.85413 179.904 -0.614677 180.026 0.620622C180.148 1.85592 180.695 3.01065 181.573 3.8881C182.071 4.38699 182.663 4.78253 183.315 5.05201C183.967 5.32149 184.665 5.4596 185.37 5.45841ZM183.871 -1.40834C184.218 -1.75515 184.674 -1.97097 185.162 -2.01904C185.65 -2.0671 186.14 -1.94442 186.548 -1.67191C186.956 -1.3994 187.257 -0.993919 187.399 -0.524551C187.541 -0.0551825 187.516 0.44903 187.329 0.902176C187.141 1.35532 186.802 1.72937 186.369 1.96057C185.937 2.19178 185.438 2.26585 184.956 2.17016C184.475 2.07446 184.042 1.81493 183.731 1.43578C183.42 1.05663 183.25 0.581315 183.25 0.0908294C183.249 -0.187707 183.304 -0.46363 183.41 -0.720963C183.517 -0.978297 183.674 -1.21193 183.871 -1.40834ZM200.63 6.53863C199.387 6.5386 198.183 6.96938 197.223 7.75756C196.263 8.54573 195.605 9.64254 195.363 10.8611C195.12 12.0797 195.308 13.3446 195.894 14.4403C196.479 15.536 197.427 16.3948 198.575 16.8703C199.723 17.3457 201 17.4085 202.189 17.0478C203.378 16.6872 204.405 15.9254 205.095 14.8924C205.785 13.8594 206.096 12.6189 205.974 11.3825C205.852 10.146 205.306 8.99006 204.427 8.11152C203.93 7.61128 203.338 7.21469 202.686 6.9447C202.034 6.67471 201.335 6.53669 200.63 6.53863ZM202.129 13.4079C201.731 13.803 201.192 14.0243 200.632 14.0233C200.071 14.0222 199.533 13.7989 199.136 13.4023C198.74 13.0057 198.516 12.468 198.515 11.9071C198.514 11.3462 198.736 10.8077 199.131 10.4096C199.327 10.2115 199.561 10.0542 199.819 9.94671C200.076 9.83919 200.352 9.78357 200.632 9.78305C200.911 9.78253 201.187 9.83712 201.445 9.94368C201.703 10.0502 201.937 10.2067 202.135 10.404C202.332 10.6014 202.488 10.8358 202.595 11.0937C202.702 11.3516 202.756 11.6281 202.756 11.9072C202.755 12.1863 202.699 12.4625 202.592 12.72C202.484 12.9776 202.327 13.2114 202.129 13.408L202.129 13.4079ZM203.803 -4.80337C203.954 -4.65247 204.074 -4.47333 204.155 -4.27618C204.237 -4.07902 204.279 -3.86771 204.279 -3.65431C204.279 -3.44091 204.237 -3.22961 204.155 -3.03245C204.074 -2.8353 203.954 -2.65616 203.803 -2.50526L184.495 16.8029C184.19 17.1057 183.777 17.2753 183.347 17.2745C182.917 17.2736 182.505 17.1025 182.201 16.7985C181.897 16.4945 181.726 16.0825 181.725 15.6526C181.725 15.2227 181.894 14.81 182.197 14.5048L201.505 -4.80337C201.81 -5.1081 202.223 -5.2793 202.654 -5.2793C203.085 -5.2793 203.498 -5.1081 203.803 -4.80337Z" fill="white" fill-opacity="0.3"/>
</g>
</g>
<defs>
<clipPath id="clip0_2445_9602">
<rect width="327" height="62" fill="white"/>
</clipPath>
<clipPath id="clip1_2445_9602">
<rect width="32" height="32" fill="white" transform="translate(16 -12)"/>
</clipPath>
<clipPath id="clip2_2445_9602">
<rect width="58" height="58" fill="white" transform="translate(86 23)"/>
</clipPath>
<clipPath id="clip3_2445_9602">
<rect width="26" height="26" fill="white" transform="translate(180 -7)"/>
</clipPath>
</defs>
</svg>
