<svg width="20" height="21" viewBox="0 0 20 21" fill="none" xmlns="http://www.w3.org/2000/svg">
<g clip-path="url(#clip0_2183_12251)">
<path d="M0.625326 10.9364C0.625326 16.114 4.82266 20.3114 10.0003 20.3114V19.478C5.28289 19.478 1.45866 15.6538 1.45866 10.9364H0.625326ZM10.0003 1.56136C4.82266 1.56136 0.625326 5.75869 0.625326 10.9364H1.45866C1.45866 6.21893 5.28289 2.39469 10.0003 2.39469V1.56136ZM19.3753 10.9364C19.3753 5.75869 15.178 1.56136 10.0003 1.56136V2.39469C14.7178 2.39469 18.542 6.21893 18.542 10.9364H19.3753ZM10.0003 20.3114C15.178 20.3114 19.3753 16.114 19.3753 10.9364H18.542C18.542 15.6538 14.7178 19.478 10.0003 19.478V20.3114Z" fill="url(#paint0_linear_2183_12251)"/>
</g>
<defs>
<linearGradient id="paint0_linear_2183_12251" x1="17.608" y1="17.0152" x2="0.306622" y2="8.43072" gradientUnits="userSpaceOnUse">
<stop stop-color="#B4ADFF"/>
<stop offset="1" stop-color="#5F44F8"/>
</linearGradient>
<clipPath id="clip0_2183_12251">
<rect width="20" height="20" fill="white" transform="translate(0 0.936523)"/>
</clipPath>
</defs>
</svg>
