<svg width="40" height="40" viewBox="0 0 40 40" fill="none" xmlns="http://www.w3.org/2000/svg">
<mask id="path-1-inside-1_2013_3275" fill="white">
<path d="M40 20C40 31.0457 31.0457 40 20 40C8.9543 40 0 31.0457 0 20C0 8.9543 8.9543 0 20 0C31.0457 0 40 8.9543 40 20ZM2 20C2 29.9411 10.0589 38 20 38C29.9411 38 38 29.9411 38 20C38 10.0589 29.9411 2 20 2C10.0589 2 2 10.0589 2 20Z"/>
</mask>
<path d="M40 20C40 31.0457 31.0457 40 20 40C8.9543 40 0 31.0457 0 20C0 8.9543 8.9543 0 20 0C31.0457 0 40 8.9543 40 20ZM2 20C2 29.9411 10.0589 38 20 38C29.9411 38 38 29.9411 38 20C38 10.0589 29.9411 2 20 2C10.0589 2 2 10.0589 2 20Z" stroke="url(#paint0_linear_2013_3275)" stroke-width="2.28571" mask="url(#path-1-inside-1_2013_3275)"/>
<path d="M20 5.5C11.9916 5.5 5.5 11.9918 5.5 20C5.5 28.0082 11.9918 34.5 20 34.5C28.008 34.5 34.5 28.0082 34.5 20C34.4998 11.992 28.008 5.5 20 5.5ZM27.8793 20.3167C27.8793 27.9647 20 29.1325 20 29.1325C20 29.1325 12.1205 27.9647 12.1205 20.3167V16.4627C14.1033 15.9306 15.4819 14.1334 15.4819 12.0802L20 10.8675L24.5179 12.0802C24.5179 14.1332 25.8965 15.9304 27.8793 16.4627V20.3167Z" fill="url(#paint1_linear_2013_3275)"/>
<path d="M19.9673 24.7515C17.8906 24.7515 16.5525 23.8009 16.4495 22.1903L16.4435 22.0935H18.1691L18.1812 22.1601C18.2962 22.8382 19.0167 23.262 20.0157 23.262C21.0269 23.262 21.6626 22.82 21.6626 22.154V22.1479C21.6626 21.5546 21.2327 21.2579 20.149 21.0339L19.2286 20.8522C17.5031 20.5071 16.6312 19.6837 16.6312 18.3698V18.3638C16.6312 16.7653 18.0238 15.7118 19.9613 15.7118C21.9835 15.7118 23.2247 16.7229 23.3095 18.2548L23.3156 18.3698H21.59L21.5839 18.2972C21.4931 17.613 20.8634 17.1952 19.9613 17.1952C19.0228 17.2013 18.4597 17.6312 18.4597 18.2548V18.2608C18.4597 18.8118 18.9077 19.1327 19.9128 19.3325L20.8392 19.5202C22.6677 19.8835 23.4911 20.6282 23.4911 22.0026V22.0087C23.4911 23.6858 22.1712 24.7515 19.9673 24.7515Z" fill="url(#paint2_linear_2013_3275)"/>
<defs>
<linearGradient id="paint0_linear_2013_3275" x1="8.10256" y1="5.40659" x2="15.6438" y2="40.9249" gradientUnits="userSpaceOnUse">
<stop stop-color="#B4ADFF"/>
<stop offset="1" stop-color="#5F44F8"/>
</linearGradient>
<linearGradient id="paint1_linear_2013_3275" x1="11.3744" y1="9.41978" x2="16.8417" y2="35.1706" gradientUnits="userSpaceOnUse">
<stop stop-color="#B4ADFF"/>
<stop offset="1" stop-color="#5F44F8"/>
</linearGradient>
<linearGradient id="paint2_linear_2013_3275" x1="17.6704" y1="14.6276" x2="31.9307" y2="17.6884" gradientUnits="userSpaceOnUse">
<stop stop-color="#B4ADFF"/>
<stop offset="1" stop-color="#5F44F8"/>
</linearGradient>
</defs>
</svg>
