<svg width="38" height="38" viewBox="0 0 38 38" fill="none" xmlns="http://www.w3.org/2000/svg">
<path d="M26.9167 15.8332V14.2498C26.9167 9.02484 26.9167 6.41234 25.2938 4.78942C23.6708 3.1665 21.0583 3.1665 15.8333 3.1665C10.6083 3.1665 7.99583 3.1665 6.37292 4.78942C4.75 6.41234 4.75 9.02484 4.75 14.2498V23.7498C4.75 28.9748 4.75 31.5873 6.37292 33.2103C7.99583 34.8332 10.6083 34.8332 15.8333 34.8332L17.4167 34.8316M24.5417 26.1248V23.7498C24.5417 22.91 24.8753 22.1045 25.4692 21.5107C26.063 20.9168 26.8685 20.5832 27.7083 20.5832C28.5482 20.5832 29.3536 20.9168 29.9475 21.5107C30.5414 22.1045 30.875 22.91 30.875 23.7498V26.1248M15.8333 30.0832V30.099M26.5208 34.8332H28.8958C30.7531 34.8332 31.6825 34.8332 32.3206 34.3423C32.4853 34.2159 32.6328 34.0685 32.7592 33.9038C33.25 33.2641 33.25 32.3363 33.25 30.479C33.25 28.6218 33.25 27.6923 32.7592 27.0543C32.6328 26.8895 32.4853 26.7421 32.3206 26.6157C31.6809 26.1248 30.7531 26.1248 28.8958 26.1248H26.5208C24.6636 26.1248 23.7342 26.1248 23.0961 26.6157C22.9313 26.7421 22.7839 26.8895 22.6575 27.0543C22.1667 27.6939 22.1667 28.6218 22.1667 30.479C22.1667 32.3363 22.1667 33.2657 22.6575 33.9038C22.7839 34.0685 22.9313 34.2159 23.0961 34.3423C23.7358 34.8332 24.6636 34.8332 26.5208 34.8332Z" stroke="url(#paint0_linear_2106_11267)" stroke-width="3" stroke-linecap="round" stroke-linejoin="round"/>
<defs>
<linearGradient id="paint0_linear_2106_11267" x1="31.1015" y1="29.7439" x2="2.50694" y2="16.9748" gradientUnits="userSpaceOnUse">
<stop stop-color="#B4ADFF"/>
<stop offset="1" stop-color="#5F44F8"/>
</linearGradient>
</defs>
</svg>
