<svg width="38" height="38" viewBox="0 0 38 38" fill="none" xmlns="http://www.w3.org/2000/svg">
<path d="M19.0003 28.8168V28.5002H6.33366V12.6668L19.0003 20.5835L31.667 12.6668V18.1135C32.9495 18.6835 34.042 19.5702 34.8337 20.6785V9.50016C34.8337 7.7585 33.4087 6.3335 31.667 6.3335H6.33366C4.59199 6.3335 3.16699 7.7585 3.16699 9.50016V28.5002C3.16699 30.2418 4.59199 31.6668 6.33366 31.6668H19.0003V28.8168ZM31.667 9.50016L19.0003 17.4168L6.33366 9.50016H31.667ZM32.9337 26.9168V24.5418C32.9337 22.3252 30.717 20.5835 28.5003 20.5835C26.2837 20.5835 24.067 22.3252 24.067 24.5418V26.9168C23.117 26.9168 22.167 27.8668 22.167 28.8168V34.3585C22.167 35.4668 23.117 36.4168 24.067 36.4168H32.7753C33.8837 36.4168 34.8337 35.4668 34.8337 34.5168V28.9752C34.8337 27.8668 33.8837 26.9168 32.9337 26.9168ZM30.8753 26.9168H26.1253V24.5418C26.1253 23.2752 27.2337 22.4835 28.5003 22.4835C29.767 22.4835 30.8753 23.2752 30.8753 24.5418V26.9168Z" fill="url(#paint0_linear_2106_11252)"/>
<defs>
<linearGradient id="paint0_linear_2106_11252" x1="32.4465" y1="31.582" x2="2.50626" y2="15.9446" gradientUnits="userSpaceOnUse">
<stop stop-color="#B4ADFF"/>
<stop offset="1" stop-color="#5F44F8"/>
</linearGradient>
</defs>
</svg>
