<svg width="38" height="38" viewBox="0 0 38 38" fill="none" xmlns="http://www.w3.org/2000/svg">
<path d="M9.50033 28.4998L5.85866 32.1415C5.35727 32.6429 4.78305 32.7553 4.13599 32.4788C3.48894 32.2022 3.16594 31.7071 3.16699 30.9936V6.33317C3.16699 5.46234 3.47733 4.71712 4.09799 4.0975C4.71866 3.47789 5.46388 3.16756 6.33366 3.1665H31.667C32.5378 3.1665 33.2836 3.47684 33.9042 4.0975C34.5249 4.71817 34.8347 5.46339 34.8337 6.33317V25.3332C34.8337 26.204 34.5239 26.9498 33.9042 27.5704C33.2846 28.1911 32.5389 28.5009 31.667 28.4998H9.50033ZM8.15449 25.3332H31.667V6.33317H6.33366V27.1144L8.15449 25.3332ZM12.667 17.4165C13.1156 17.4165 13.4919 17.2645 13.7959 16.9605C14.0999 16.6565 14.2514 16.2807 14.2503 15.8332C14.2493 15.3856 14.0973 15.0098 13.7943 14.7058C13.4914 14.4018 13.1156 14.2498 12.667 14.2498C12.2184 14.2498 11.8426 14.4018 11.5397 14.7058C11.2367 15.0098 11.0847 15.3856 11.0837 15.8332C11.0826 16.2807 11.2346 16.657 11.5397 16.9621C11.8447 17.2671 12.2205 17.4186 12.667 17.4165ZM19.0003 17.4165C19.4489 17.4165 19.8252 17.2645 20.1292 16.9605C20.4332 16.6565 20.5847 16.2807 20.5837 15.8332C20.5826 15.3856 20.4306 15.0098 20.1277 14.7058C19.8247 14.4018 19.4489 14.2498 19.0003 14.2498C18.5517 14.2498 18.1759 14.4018 17.873 14.7058C17.5701 15.0098 17.418 15.3856 17.417 15.8332C17.4159 16.2807 17.5679 16.657 17.873 16.9621C18.1781 17.2671 18.5538 17.4186 19.0003 17.4165ZM25.3337 17.4165C25.7823 17.4165 26.1586 17.2645 26.4626 16.9605C26.7666 16.6565 26.918 16.2807 26.917 15.8332C26.9159 15.3856 26.7639 15.0098 26.461 14.7058C26.158 14.4018 25.7823 14.2498 25.3337 14.2498C24.885 14.2498 24.5093 14.4018 24.2063 14.7058C23.9034 15.0098 23.7514 15.3856 23.7503 15.8332C23.7493 16.2807 23.9013 16.657 24.2063 16.9621C24.5114 17.2671 24.8872 17.4186 25.3337 17.4165Z" fill="url(#paint0_linear_2106_11261)"/>
<defs>
<linearGradient id="paint0_linear_2106_11261" x1="32.4465" y1="27.8916" x2="2.77831" y2="12.0683" gradientUnits="userSpaceOnUse">
<stop stop-color="#B4ADFF"/>
<stop offset="1" stop-color="#5F44F8"/>
</linearGradient>
</defs>
</svg>
