<svg width="38" height="38" viewBox="0 0 38 38" fill="none" xmlns="http://www.w3.org/2000/svg">
<g opacity="0.7">
<path d="M19.0001 28.8166V28.5H6.33341V12.6666L19.0001 20.5833L31.6667 12.6666V18.1133C32.9492 18.6833 34.0417 19.57 34.8334 20.6783V9.49998C34.8334 7.75831 33.4084 6.33331 31.6667 6.33331H6.33341C4.59175 6.33331 3.16675 7.75831 3.16675 9.49998V28.5C3.16675 30.2416 4.59175 31.6666 6.33341 31.6666H19.0001V28.8166ZM31.6667 9.49998L19.0001 17.4166L6.33341 9.49998H31.6667ZM32.9334 26.9166V24.5416C32.9334 22.325 30.7167 20.5833 28.5001 20.5833C26.2834 20.5833 24.0667 22.325 24.0667 24.5416V26.9166C23.1167 26.9166 22.1667 27.8666 22.1667 28.8166V34.3583C22.1667 35.4666 23.1167 36.4166 24.0667 36.4166H32.7751C33.8834 36.4166 34.8334 35.4666 34.8334 34.5166V28.975C34.8334 27.8666 33.8834 26.9166 32.9334 26.9166ZM30.8751 26.9166H26.1251V24.5416C26.1251 23.275 27.2334 22.4833 28.5001 22.4833C29.7667 22.4833 30.8751 23.275 30.8751 24.5416V26.9166Z" fill="url(#paint0_linear_2285_19778)"/>
</g>
<defs>
<linearGradient id="paint0_linear_2285_19778" x1="32.4462" y1="31.5818" x2="2.50602" y2="15.9444" gradientUnits="userSpaceOnUse">
<stop stop-color="#B4ADFF"/>
<stop offset="1" stop-color="#5F44F8"/>
</linearGradient>
</defs>
</svg>
