<svg width="38" height="38" viewBox="0 0 38 38" fill="none" xmlns="http://www.w3.org/2000/svg">
<g opacity="0.7">
<path d="M9.50008 28.5L5.85842 32.1416C5.35703 32.643 4.78281 32.7554 4.13575 32.4789C3.48869 32.2023 3.1657 31.7073 3.16675 30.9937V6.33329C3.16675 5.46246 3.47708 4.71724 4.09775 4.09763C4.71842 3.47801 5.46364 3.16768 6.33342 3.16663H31.6667C32.5376 3.16663 33.2833 3.47696 33.904 4.09763C34.5247 4.71829 34.8345 5.46351 34.8334 6.33329V25.3333C34.8334 26.2041 34.5236 26.9499 33.904 27.5705C33.2844 28.1912 32.5386 28.501 31.6667 28.5H9.50008ZM8.15425 25.3333H31.6667V6.33329H6.33342V27.1145L8.15425 25.3333ZM12.6667 17.4166C13.1154 17.4166 13.4917 17.2646 13.7957 16.9606C14.0997 16.6566 14.2511 16.2808 14.2501 15.8333C14.249 15.3857 14.097 15.01 13.7941 14.706C13.4911 14.402 13.1154 14.25 12.6667 14.25C12.2181 14.25 11.8424 14.402 11.5394 14.706C11.2365 15.01 11.0845 15.3857 11.0834 15.8333C11.0824 16.2808 11.2344 16.6572 11.5394 16.9622C11.8445 17.2673 12.2203 17.4187 12.6667 17.4166ZM19.0001 17.4166C19.4487 17.4166 19.825 17.2646 20.129 16.9606C20.433 16.6566 20.5845 16.2808 20.5834 15.8333C20.5824 15.3857 20.4304 15.01 20.1274 14.706C19.8245 14.402 19.4487 14.25 19.0001 14.25C18.5515 14.25 18.1757 14.402 17.8728 14.706C17.5698 15.01 17.4178 15.3857 17.4167 15.8333C17.4157 16.2808 17.5677 16.6572 17.8728 16.9622C18.1778 17.2673 18.5536 17.4187 19.0001 17.4166ZM25.3334 17.4166C25.782 17.4166 26.1583 17.2646 26.4623 16.9606C26.7663 16.6566 26.9178 16.2808 26.9167 15.8333C26.9157 15.3857 26.7637 15.01 26.4608 14.706C26.1578 14.402 25.782 14.25 25.3334 14.25C24.8848 14.25 24.509 14.402 24.2061 14.706C23.9031 15.01 23.7511 15.3857 23.7501 15.8333C23.749 16.2808 23.901 16.6572 24.2061 16.9622C24.5111 17.2673 24.8869 17.4187 25.3334 17.4166Z" fill="url(#paint0_linear_2285_19801)"/>
</g>
<defs>
<linearGradient id="paint0_linear_2285_19801" x1="32.4462" y1="27.8918" x2="2.77807" y2="12.0684" gradientUnits="userSpaceOnUse">
<stop stop-color="#B4ADFF"/>
<stop offset="1" stop-color="#5F44F8"/>
</linearGradient>
</defs>
</svg>
