<svg width="38" height="38" viewBox="0 0 38 38" fill="none" xmlns="http://www.w3.org/2000/svg">
<g opacity="0.7">
<path d="M26.9167 15.8333V14.25C26.9167 9.02496 26.9167 6.41246 25.2938 4.78954C23.6708 3.16663 21.0583 3.16663 15.8333 3.16663C10.6083 3.16663 7.99583 3.16663 6.37292 4.78954C4.75 6.41246 4.75 9.02496 4.75 14.25V23.75C4.75 28.975 4.75 31.5875 6.37292 33.2104C7.99583 34.8333 10.6083 34.8333 15.8333 34.8333L17.4167 34.8317M24.5417 26.125V23.75C24.5417 22.9101 24.8753 22.1047 25.4692 21.5108C26.063 20.9169 26.8685 20.5833 27.7083 20.5833C28.5482 20.5833 29.3536 20.9169 29.9475 21.5108C30.5414 22.1047 30.875 22.9101 30.875 23.75V26.125M15.8333 30.0833V30.0991M26.5208 34.8333H28.8958C30.7531 34.8333 31.6825 34.8333 32.3206 34.3425C32.4853 34.2161 32.6328 34.0686 32.7592 33.9039C33.25 33.2642 33.25 32.3364 33.25 30.4791C33.25 28.6219 33.25 27.6925 32.7592 27.0544C32.6328 26.8896 32.4853 26.7422 32.3206 26.6158C31.6809 26.125 30.7531 26.125 28.8958 26.125H26.5208C24.6636 26.125 23.7342 26.125 23.0961 26.6158C22.9313 26.7422 22.7839 26.8896 22.6575 27.0544C22.1667 27.694 22.1667 28.6219 22.1667 30.4791C22.1667 32.3364 22.1667 33.2658 22.6575 33.9039C22.7839 34.0686 22.9313 34.2161 23.0961 34.3425C23.7358 34.8333 24.6636 34.8333 26.5208 34.8333Z" stroke="url(#paint0_linear_2285_19824)" stroke-width="3" stroke-linecap="round" stroke-linejoin="round"/>
</g>
<defs>
<linearGradient id="paint0_linear_2285_19824" x1="31.1015" y1="29.744" x2="2.50694" y2="16.9749" gradientUnits="userSpaceOnUse">
<stop stop-color="#B4ADFF"/>
<stop offset="1" stop-color="#5F44F8"/>
</linearGradient>
</defs>
</svg>
