<svg width="38" height="38" viewBox="0 0 38 38" fill="none" xmlns="http://www.w3.org/2000/svg">
<path d="M24.7422 0C28.5422 0 30.4422 0 32.5111 0.633333C34.7489 1.43556 36.5222 3.20889 37.3244 5.44667C38 7.51556 38 9.45778 38 13.2578V24.7422C38 28.5422 38 30.4422 37.3667 32.5111C36.5644 34.7489 34.7911 36.5222 32.5533 37.3244C30.4422 38 28.5422 38 24.7422 38H13.2578C9.45778 38 7.55778 38 5.48889 37.3667C3.20889 36.5222 1.47778 34.7911 0.633333 32.5111C0 30.4844 0 28.5844 0 24.7422V13.2578C0 9.45778 0 7.55778 0.633333 5.48889C1.47778 3.25111 3.20889 1.47778 5.48889 0.675556C7.51556 -5.03328e-08 9.41556 0 13.2578 0H24.7422Z" fill="url(#paint0_linear_2812_15058)"/>
<path d="M19.0004 35.4656C28.0946 35.4656 35.467 28.0932 35.467 18.9989C35.467 9.9046 28.0946 2.53223 19.0004 2.53223C9.90607 2.53223 2.53369 9.9046 2.53369 18.9989C2.53369 28.0932 9.90607 35.4656 19.0004 35.4656Z" fill="#2E2E30"/>
<path d="M20.239 10.1184C20.2802 10.1237 20.3214 10.129 20.3626 10.1343C20.445 10.1449 20.5686 10.1608 20.6509 10.1715L21.1212 9.022C21.262 8.6512 21.3379 8.7042 21.3271 9.04854L21.2688 10.2511C21.3924 10.267 21.5507 10.3306 21.6743 10.3466L22.2616 9.25541C22.4371 8.9323 22.5195 8.94292 22.461 9.32433L22.238 10.5056C22.3551 10.5639 22.5133 10.6276 22.6369 10.6435L23.3348 9.65302C23.5515 9.33522 23.6274 9.38822 23.5278 9.76432L23.1812 10.9297C23.2982 10.988 23.4565 11.0516 23.5671 11.1523L24.3409 10.2148C24.5923 9.94473 24.6682 9.99773 24.5339 10.3261L24.0636 11.4756C24.1742 11.5763 24.2913 11.6346 24.4019 11.7353L25.2863 10.8985C25.5789 10.6337 25.6548 10.6867 25.4727 11.0522L24.8919 12.1009C25.0025 12.2016 25.1131 12.3023 25.1825 12.3977L26.171 11.704C26.4571 11.4815 26.533 11.5345 26.3163 11.8523L25.5642 12.9223C25.6748 13.0229 25.7442 13.1183 25.8483 13.2614L26.8996 12.7054C27.2205 12.5307 27.2964 12.5837 27.0384 12.8962L26.23 13.7859C26.2994 13.8813 26.4034 14.0244 26.4663 14.1621L27.5871 13.7016C27.9426 13.5745 27.9708 13.6646 27.6847 13.887L26.7656 14.6761C26.8285 14.8138 26.8914 14.9516 26.9543 15.0894L28.0968 14.7612C28.4458 14.6765 28.474 14.7666 28.1944 14.9467L27.2059 15.6404C27.2688 15.7781 27.2906 15.9106 27.3535 16.0483L28.5176 15.8526C28.8602 15.8103 28.9296 15.9057 28.5675 16.0751L27.5162 16.6311C27.5379 16.7636 27.6008 16.9013 27.616 17.0761L28.7542 17.05C29.1314 17.0554 29.1184 17.1401 28.8041 17.2725L27.731 17.696C27.7527 17.8284 27.768 18.0033 27.7897 18.1357L28.9496 18.242C29.3203 18.2898 29.3073 18.3745 28.9583 18.4592L27.8223 18.7449C27.844 18.8774 27.818 19.0469 27.7986 19.174L28.8913 19.4445C29.2555 19.5347 29.2425 19.6194 28.8588 19.6564L27.7011 19.8097C27.6816 19.9369 27.6557 20.1064 27.6362 20.2335C27.6362 20.2335 27.6362 20.2335 27.6297 20.2759L28.7094 20.6311C29.0672 20.7637 29.0542 20.8484 28.677 20.843L27.5388 20.8692C27.5128 21.0387 27.4521 21.1605 27.4261 21.3301L28.4387 21.8495C28.7487 22.0191 28.7358 22.1039 28.365 22.0561L27.2528 21.9127C27.1921 22.0346 27.1661 22.2041 27.1055 22.3259L28.0574 22.9672C28.3609 23.1792 28.3067 23.2586 27.9837 23.1738L26.891 22.9033C26.8303 23.0251 26.7631 23.1893 26.7024 23.3112L27.5524 24.069C27.8083 24.318 27.7953 24.4028 27.4376 24.2702L26.4055 23.8779C26.3037 23.9944 26.2365 24.1587 26.1346 24.2752L26.8893 25.1071C27.1451 25.3562 27.0845 25.478 26.7332 25.3031L25.7054 24.6088C25.6036 24.7253 25.5017 24.8418 25.3998 24.9584L26.0591 25.8644C26.2673 26.1506 26.2131 26.23 25.9095 26.018L24.9988 25.3821C24.897 25.4986 24.7951 25.6151 24.6585 25.6839L25.2224 26.6641C25.3829 26.9873 25.3287 27.0668 25.0317 26.8124L24.1816 26.0546C24.0386 26.1658 23.9432 26.24 23.8066 26.3088L24.2339 27.3579C24.388 27.7234 24.2991 27.7552 24.0497 27.4638L23.2951 26.6318C23.1585 26.7007 23.0219 26.7695 22.8853 26.8383L23.1761 27.9562C23.2889 28.3165 23.2 28.3482 22.9918 28.0621L22.3803 27.119C22.2437 27.1878 22.1071 27.2566 21.9294 27.3201L22.09 28.4645C22.1617 28.8194 22.0728 28.8512 21.8711 28.5227L21.3549 27.5054C21.2248 27.5319 21.047 27.5954 20.917 27.6218L20.9541 28.7502C20.978 29.1423 20.8544 29.1263 20.7351 28.8084L20.336 27.8495C20.2059 27.8759 20.0347 27.8971 19.9046 27.9235L19.8116 29.0784C19.7943 29.4651 19.6708 29.4492 19.5991 29.0942L19.3084 27.9763C19.1783 28.0028 19.0136 27.9816 18.8423 28.0027L18.5845 29.1363C18.5261 29.5177 18.4025 29.5018 18.3721 29.1521L18.3003 27.9761C18.1355 27.9548 18.0119 27.9389 17.8407 27.96L17.4593 29.0777C17.3185 29.4485 17.2361 29.4379 17.2534 29.0512L17.264 27.8857C17.0992 27.8645 16.9756 27.8486 16.8173 27.7849L16.3189 28.8443C16.1846 29.1727 16.061 29.1568 16.1194 28.7754L16.2536 27.6259C16.0953 27.5622 15.9718 27.5463 15.8547 27.488L15.198 28.4838C15.0225 28.8069 14.8989 28.791 14.9985 28.4149L15.2563 27.2812C15.1392 27.2229 14.9809 27.1593 14.8638 27.101L14.1312 28.0438C13.9145 28.3616 13.7974 28.3033 13.9383 27.9325L14.3196 26.8148C14.2025 26.7565 14.0919 26.6558 13.9336 26.5922L13.0905 27.4343C12.839 27.7044 12.7632 27.6514 12.8975 27.323L13.4371 26.2689C13.3265 26.1682 13.2159 26.0675 13.0988 26.0092L12.1863 26.7559C11.9002 26.9784 11.8243 26.9254 12.041 26.6076L12.6977 25.6118C12.5871 25.5111 12.4765 25.4104 12.4136 25.2727L11.4511 25.7969C11.1238 26.014 11.0544 25.9186 11.3058 25.6485L12.0384 24.7057C11.9278 24.605 11.8649 24.4673 11.7955 24.3719L10.7507 24.8855C10.4298 25.0602 10.3605 24.9649 10.6119 24.6947L11.4551 23.8527C11.3922 23.7149 11.3228 23.6195 11.2599 23.4818L10.1521 23.8576C9.79656 23.9846 9.76836 23.8946 10.0545 23.6721L11.0082 22.9307C10.9453 22.793 10.8824 22.6552 10.8607 22.5228L9.73127 22.7662C9.38224 22.8508 9.35403 22.7608 9.68135 22.5437L10.698 21.94C10.6351 21.8023 10.6134 21.6698 10.5917 21.5374L9.35813 21.6377C8.9744 21.6747 8.9462 21.5846 9.30822 21.4152L10.3878 20.9493C10.3661 20.8168 10.3509 20.642 10.3292 20.5096L9.15626 20.488C8.77903 20.4826 8.79202 20.3979 9.14755 20.2708L10.2553 19.895C10.2336 19.7626 10.2596 19.5931 10.2379 19.4606L9.09097 19.2696C8.72023 19.2218 8.73971 19.0947 9.08225 19.0524L10.2529 18.8143C10.2724 18.6872 10.2572 18.5123 10.2767 18.3852L9.14925 18.067C8.785 17.9769 8.80449 17.8497 9.18172 17.8551L10.3676 17.7919C10.3871 17.6648 10.4131 17.4952 10.4326 17.3681L9.3658 16.9281C9.04925 16.8009 9.06874 16.6737 9.43947 16.7215L10.6059 16.7854C10.6254 16.6583 10.6925 16.4941 10.7532 16.3722L9.74713 15.8104C9.43707 15.6408 9.45006 15.5561 9.8208 15.6038L10.9677 15.7949C11.0284 15.673 11.0956 15.5088 11.1562 15.387L10.2108 14.7033C9.90729 14.4914 9.96147 14.4119 10.3257 14.5021L11.4466 14.8626C11.5073 14.7408 11.6092 14.6243 11.6699 14.5024L10.8263 13.7023C10.5705 13.4532 10.6247 13.3738 10.9412 13.501L12.0015 13.9834C12.1033 13.8668 12.164 13.745 12.2659 13.6285L11.5242 12.7118C11.2748 12.4204 11.3702 12.3462 11.6738 12.5582L12.6734 13.1624C12.7752 13.0459 12.8706 12.9718 12.9725 12.8552L12.3327 11.822C12.131 11.4935 12.2199 11.4618 12.4823 11.6684L13.4212 12.3945C13.523 12.2779 13.6596 12.2091 13.7615 12.0926L13.2712 10.9058C13.1107 10.5826 13.2061 10.5085 13.462 10.7575L14.299 11.6001C14.3944 11.5259 14.531 11.4571 14.6675 11.3883L14.2944 10.2598C14.1816 9.8995 14.2705 9.86774 14.4787 10.1539L15.2138 11.1129C15.3504 11.0441 15.487 10.9753 15.5823 10.9011L15.3458 9.70381C15.2741 9.34885 15.363 9.31709 15.5712 9.60322L16.1698 10.6311C16.3064 10.5623 16.4364 10.5358 16.5665 10.5094L16.46 9.2856C16.4361 8.89358 16.525 8.86181 16.679 9.22739L17.141 10.3241C17.2711 10.2977 17.4011 10.2712 17.5312 10.2448L17.5895 9.04222C17.6068 8.6555 17.6891 8.66612 17.802 9.02639L18.1274 10.192C18.2575 10.1655 18.4287 10.1444 18.5523 10.1603L18.7407 8.93129C18.7991 8.54988 18.8815 8.5605 18.9531 8.91545L19.1897 10.1128C19.3133 10.1287 19.4845 10.1076 19.6081 10.1235L19.9136 8.9528C20.0132 8.5767 20.0956 8.58731 20.1195 8.97934L20.239 10.1184ZM17.8815 26.3231C21.7948 26.8274 25.4668 23.973 26.0838 19.947C26.7009 15.921 24.0291 12.249 20.1158 11.7447C16.2024 11.2404 12.4958 14.0471 11.8788 18.0731C11.2617 22.0991 13.9682 25.8188 17.8815 26.3231Z" fill="black"/>
<path d="M20.239 10.1184C20.2802 10.1237 20.3214 10.129 20.3626 10.1343C20.445 10.1449 20.5686 10.1608 20.6509 10.1715L21.1212 9.022C21.262 8.6512 21.3379 8.7042 21.3271 9.04854L21.2688 10.2511C21.3924 10.267 21.5507 10.3306 21.6743 10.3466L22.2616 9.25541C22.4371 8.9323 22.5195 8.94292 22.461 9.32433L22.238 10.5056C22.3551 10.5639 22.5133 10.6276 22.6369 10.6435L23.3348 9.65302C23.5515 9.33522 23.6274 9.38822 23.5278 9.76432L23.1812 10.9297C23.2982 10.988 23.4565 11.0516 23.5671 11.1523L24.3409 10.2148C24.5923 9.94473 24.6682 9.99773 24.5339 10.3261L24.0636 11.4756C24.1742 11.5763 24.2913 11.6346 24.4019 11.7353L25.2863 10.8985C25.5789 10.6337 25.6548 10.6867 25.4727 11.0522L24.8919 12.1009C25.0025 12.2016 25.1131 12.3023 25.1825 12.3977L26.171 11.704C26.4571 11.4815 26.533 11.5345 26.3163 11.8523L25.5642 12.9223C25.6748 13.0229 25.7442 13.1183 25.8483 13.2614L26.8996 12.7054C27.2205 12.5307 27.2964 12.5837 27.0384 12.8962L26.23 13.7859C26.2994 13.8813 26.4034 14.0244 26.4663 14.1621L27.5871 13.7016C27.9426 13.5745 27.9708 13.6646 27.6847 13.887L26.7656 14.6761C26.8285 14.8138 26.8914 14.9516 26.9543 15.0894L28.0968 14.7612C28.4458 14.6765 28.474 14.7666 28.1944 14.9467L27.2059 15.6404C27.2688 15.7781 27.2906 15.9106 27.3535 16.0483L28.5176 15.8526C28.8602 15.8103 28.9296 15.9057 28.5675 16.0751L27.5162 16.6311C27.5379 16.7636 27.6008 16.9013 27.616 17.0761L28.7542 17.05C29.1314 17.0554 29.1184 17.1401 28.8041 17.2725L27.731 17.696C27.7527 17.8284 27.768 18.0033 27.7897 18.1357L28.9496 18.242C29.3203 18.2898 29.3073 18.3745 28.9583 18.4592L27.8223 18.7449C27.844 18.8774 27.818 19.0469 27.7986 19.174L28.8913 19.4445C29.2555 19.5347 29.2425 19.6194 28.8588 19.6564L27.7011 19.8097C27.6816 19.9369 27.6557 20.1064 27.6362 20.2335C27.6362 20.2335 27.6362 20.2335 27.6297 20.2759L28.7094 20.6311C29.0672 20.7637 29.0542 20.8484 28.677 20.843L27.5388 20.8692C27.5128 21.0387 27.4521 21.1605 27.4261 21.3301L28.4387 21.8495C28.7487 22.0191 28.7358 22.1039 28.365 22.0561L27.2528 21.9127C27.1921 22.0346 27.1661 22.2041 27.1055 22.3259L28.0574 22.9672C28.3609 23.1792 28.3067 23.2586 27.9837 23.1738L26.891 22.9033C26.8303 23.0251 26.7631 23.1893 26.7024 23.3112L27.5524 24.069C27.8083 24.318 27.7953 24.4028 27.4376 24.2702L26.4055 23.8779C26.3037 23.9944 26.2365 24.1587 26.1346 24.2752L26.8893 25.1071C27.1451 25.3562 27.0845 25.478 26.7332 25.3031L25.7054 24.6088C25.6036 24.7253 25.5017 24.8418 25.3998 24.9584L26.0591 25.8644C26.2673 26.1506 26.2131 26.23 25.9095 26.018L24.9988 25.3821C24.897 25.4986 24.7951 25.6151 24.6585 25.6839L25.2224 26.6641C25.3829 26.9873 25.3287 27.0668 25.0317 26.8124L24.1816 26.0546C24.0386 26.1658 23.9432 26.24 23.8066 26.3088L24.2339 27.3579C24.388 27.7234 24.2991 27.7552 24.0497 27.4638L23.2951 26.6318C23.1585 26.7007 23.0219 26.7695 22.8853 26.8383L23.1761 27.9562C23.2889 28.3165 23.2 28.3482 22.9918 28.0621L22.3803 27.119C22.2437 27.1878 22.1071 27.2566 21.9294 27.3201L22.09 28.4645C22.1617 28.8194 22.0728 28.8512 21.8711 28.5227L21.3549 27.5054C21.2248 27.5319 21.047 27.5954 20.917 27.6218L20.9541 28.7502C20.978 29.1423 20.8544 29.1263 20.7351 28.8084L20.336 27.8495C20.2059 27.8759 20.0347 27.8971 19.9046 27.9235L19.8116 29.0784C19.7943 29.4651 19.6708 29.4492 19.5991 29.0942L19.3084 27.9763C19.1783 28.0028 19.0136 27.9816 18.8423 28.0027L18.5845 29.1363C18.5261 29.5177 18.4025 29.5018 18.3721 29.1521L18.3003 27.9761C18.1355 27.9548 18.0119 27.9389 17.8407 27.96L17.4593 29.0777C17.3185 29.4485 17.2361 29.4379 17.2534 29.0512L17.264 27.8857C17.0992 27.8645 16.9756 27.8486 16.8173 27.7849L16.3189 28.8443C16.1846 29.1727 16.061 29.1568 16.1194 28.7754L16.2536 27.6259C16.0953 27.5622 15.9718 27.5463 15.8547 27.488L15.198 28.4838C15.0225 28.8069 14.8989 28.791 14.9985 28.4149L15.2563 27.2812C15.1392 27.2229 14.9809 27.1593 14.8638 27.101L14.1312 28.0438C13.9145 28.3616 13.7974 28.3033 13.9383 27.9325L14.3196 26.8148C14.2025 26.7565 14.0919 26.6558 13.9336 26.5922L13.0905 27.4343C12.839 27.7044 12.7632 27.6514 12.8975 27.323L13.4371 26.2689C13.3265 26.1682 13.2159 26.0675 13.0988 26.0092L12.1863 26.7559C11.9002 26.9784 11.8243 26.9254 12.041 26.6076L12.6977 25.6118C12.5871 25.5111 12.4765 25.4104 12.4136 25.2727L11.4511 25.7969C11.1238 26.014 11.0544 25.9186 11.3058 25.6485L12.0384 24.7057C11.9278 24.605 11.8649 24.4673 11.7955 24.3719L10.7507 24.8855C10.4298 25.0602 10.3605 24.9649 10.6119 24.6947L11.4551 23.8527C11.3922 23.7149 11.3228 23.6195 11.2599 23.4818L10.1521 23.8576C9.79656 23.9846 9.76836 23.8946 10.0545 23.6721L11.0082 22.9307C10.9453 22.793 10.8824 22.6552 10.8607 22.5228L9.73127 22.7662C9.38224 22.8508 9.35403 22.7608 9.68135 22.5437L10.698 21.94C10.6351 21.8023 10.6134 21.6698 10.5917 21.5374L9.35813 21.6377C8.9744 21.6747 8.9462 21.5846 9.30822 21.4152L10.3878 20.9493C10.3661 20.8168 10.3509 20.642 10.3292 20.5096L9.15626 20.488C8.77903 20.4826 8.79202 20.3979 9.14755 20.2708L10.2553 19.895C10.2336 19.7626 10.2596 19.5931 10.2379 19.4606L9.09097 19.2696C8.72023 19.2218 8.73971 19.0947 9.08225 19.0524L10.2529 18.8143C10.2724 18.6872 10.2572 18.5123 10.2767 18.3852L9.14925 18.067C8.785 17.9769 8.80449 17.8497 9.18172 17.8551L10.3676 17.7919C10.3871 17.6648 10.4131 17.4952 10.4326 17.3681L9.3658 16.9281C9.04925 16.8009 9.06874 16.6737 9.43947 16.7215L10.6059 16.7854C10.6254 16.6583 10.6925 16.4941 10.7532 16.3722L9.74713 15.8104C9.43707 15.6408 9.45006 15.5561 9.8208 15.6038L10.9677 15.7949C11.0284 15.673 11.0956 15.5088 11.1562 15.387L10.2108 14.7033C9.90729 14.4914 9.96147 14.4119 10.3257 14.5021L11.4466 14.8626C11.5073 14.7408 11.6092 14.6243 11.6699 14.5024L10.8263 13.7023C10.5705 13.4532 10.6247 13.3738 10.9412 13.501L12.0015 13.9834C12.1033 13.8668 12.164 13.745 12.2659 13.6285L11.5242 12.7118C11.2748 12.4204 11.3702 12.3462 11.6738 12.5582L12.6734 13.1624C12.7752 13.0459 12.8706 12.9718 12.9725 12.8552L12.3327 11.822C12.131 11.4935 12.2199 11.4618 12.4823 11.6684L13.4212 12.3945C13.523 12.2779 13.6596 12.2091 13.7615 12.0926L13.2712 10.9058C13.1107 10.5826 13.2061 10.5085 13.462 10.7575L14.299 11.6001C14.3944 11.5259 14.531 11.4571 14.6675 11.3883L14.2944 10.2598C14.1816 9.8995 14.2705 9.86774 14.4787 10.1539L15.2138 11.1129C15.3504 11.0441 15.487 10.9753 15.5823 10.9011L15.3458 9.70381C15.2741 9.34885 15.363 9.31709 15.5712 9.60322L16.1698 10.6311C16.3064 10.5623 16.4364 10.5358 16.5665 10.5094L16.46 9.2856C16.4361 8.89358 16.525 8.86181 16.679 9.22739L17.141 10.3241C17.2711 10.2977 17.4011 10.2712 17.5312 10.2448L17.5895 9.04222C17.6068 8.6555 17.6891 8.66612 17.802 9.02639L18.1274 10.192C18.2575 10.1655 18.4287 10.1444 18.5523 10.1603L18.7407 8.93129C18.7991 8.54988 18.8815 8.5605 18.9531 8.91545L19.1897 10.1128C19.3133 10.1287 19.4845 10.1076 19.6081 10.1235L19.9136 8.9528C20.0132 8.5767 20.0956 8.58731 20.1195 8.97934L20.239 10.1184ZM17.8815 26.3231C21.7948 26.8274 25.4668 23.973 26.0838 19.947C26.7009 15.921 24.0291 12.249 20.1158 11.7447C16.2024 11.2404 12.4958 14.0471 11.8788 18.0731C11.2617 22.0991 13.9682 25.8188 17.8815 26.3231Z" fill="#7F7F7F"/>
<path d="M20.239 10.1184C20.2802 10.1237 20.3214 10.129 20.3626 10.1343C20.445 10.1449 20.5686 10.1608 20.6509 10.1715L21.1212 9.022C21.262 8.6512 21.3379 8.7042 21.3271 9.04854L21.2688 10.2511C21.3924 10.267 21.5507 10.3306 21.6743 10.3466L22.2616 9.25541C22.4371 8.9323 22.5195 8.94292 22.461 9.32433L22.238 10.5056C22.3551 10.5639 22.5133 10.6276 22.6369 10.6435L23.3348 9.65302C23.5515 9.33522 23.6274 9.38822 23.5278 9.76432L23.1812 10.9297C23.2982 10.988 23.4565 11.0516 23.5671 11.1523L24.3409 10.2148C24.5923 9.94473 24.6682 9.99773 24.5339 10.3261L24.0636 11.4756C24.1742 11.5763 24.2913 11.6346 24.4019 11.7353L25.2863 10.8985C25.5789 10.6337 25.6548 10.6867 25.4727 11.0522L24.8919 12.1009C25.0025 12.2016 25.1131 12.3023 25.1825 12.3977L26.171 11.704C26.4571 11.4815 26.533 11.5345 26.3163 11.8523L25.5642 12.9223C25.6748 13.0229 25.7442 13.1183 25.8483 13.2614L26.8996 12.7054C27.2205 12.5307 27.2964 12.5837 27.0384 12.8962L26.23 13.7859C26.2994 13.8813 26.4034 14.0244 26.4663 14.1621L27.5871 13.7016C27.9426 13.5745 27.9708 13.6646 27.6847 13.887L26.7656 14.6761C26.8285 14.8138 26.8914 14.9516 26.9543 15.0894L28.0968 14.7612C28.4458 14.6765 28.474 14.7666 28.1944 14.9467L27.2059 15.6404C27.2688 15.7781 27.2906 15.9106 27.3535 16.0483L28.5176 15.8526C28.8602 15.8103 28.9296 15.9057 28.5675 16.0751L27.5162 16.6311C27.5379 16.7636 27.6008 16.9013 27.616 17.0761L28.7542 17.05C29.1314 17.0554 29.1184 17.1401 28.8041 17.2725L27.731 17.696C27.7527 17.8284 27.768 18.0033 27.7897 18.1357L28.9496 18.242C29.3203 18.2898 29.3073 18.3745 28.9583 18.4592L27.8223 18.7449C27.844 18.8774 27.818 19.0469 27.7986 19.174L28.8913 19.4445C29.2555 19.5347 29.2425 19.6194 28.8588 19.6564L27.7011 19.8097C27.6816 19.9369 27.6557 20.1064 27.6362 20.2335C27.6362 20.2335 27.6362 20.2335 27.6297 20.2759L28.7094 20.6311C29.0672 20.7637 29.0542 20.8484 28.677 20.843L27.5388 20.8692C27.5128 21.0387 27.4521 21.1605 27.4261 21.3301L28.4387 21.8495C28.7487 22.0191 28.7358 22.1039 28.365 22.0561L27.2528 21.9127C27.1921 22.0346 27.1661 22.2041 27.1055 22.3259L28.0574 22.9672C28.3609 23.1792 28.3067 23.2586 27.9837 23.1738L26.891 22.9033C26.8303 23.0251 26.7631 23.1893 26.7024 23.3112L27.5524 24.069C27.8083 24.318 27.7953 24.4028 27.4376 24.2702L26.4055 23.8779C26.3037 23.9944 26.2365 24.1587 26.1346 24.2752L26.8893 25.1071C27.1451 25.3562 27.0845 25.478 26.7332 25.3031L25.7054 24.6088C25.6036 24.7253 25.5017 24.8418 25.3998 24.9584L26.0591 25.8644C26.2673 26.1506 26.2131 26.23 25.9095 26.018L24.9988 25.3821C24.897 25.4986 24.7951 25.6151 24.6585 25.6839L25.2224 26.6641C25.3829 26.9873 25.3287 27.0668 25.0317 26.8124L24.1816 26.0546C24.0386 26.1658 23.9432 26.24 23.8066 26.3088L24.2339 27.3579C24.388 27.7234 24.2991 27.7552 24.0497 27.4638L23.2951 26.6318C23.1585 26.7007 23.0219 26.7695 22.8853 26.8383L23.1761 27.9562C23.2889 28.3165 23.2 28.3482 22.9918 28.0621L22.3803 27.119C22.2437 27.1878 22.1071 27.2566 21.9294 27.3201L22.09 28.4645C22.1617 28.8194 22.0728 28.8512 21.8711 28.5227L21.3549 27.5054C21.2248 27.5319 21.047 27.5954 20.917 27.6218L20.9541 28.7502C20.978 29.1423 20.8544 29.1263 20.7351 28.8084L20.336 27.8495C20.2059 27.8759 20.0347 27.8971 19.9046 27.9235L19.8116 29.0784C19.7943 29.4651 19.6708 29.4492 19.5991 29.0942L19.3084 27.9763C19.1783 28.0028 19.0136 27.9816 18.8423 28.0027L18.5845 29.1363C18.5261 29.5177 18.4025 29.5018 18.3721 29.1521L18.3003 27.9761C18.1355 27.9548 18.0119 27.9389 17.8407 27.96L17.4593 29.0777C17.3185 29.4485 17.2361 29.4379 17.2534 29.0512L17.264 27.8857C17.0992 27.8645 16.9756 27.8486 16.8173 27.7849L16.3189 28.8443C16.1846 29.1727 16.061 29.1568 16.1194 28.7754L16.2536 27.6259C16.0953 27.5622 15.9718 27.5463 15.8547 27.488L15.198 28.4838C15.0225 28.8069 14.8989 28.791 14.9985 28.4149L15.2563 27.2812C15.1392 27.2229 14.9809 27.1593 14.8638 27.101L14.1312 28.0438C13.9145 28.3616 13.7974 28.3033 13.9383 27.9325L14.3196 26.8148C14.2025 26.7565 14.0919 26.6558 13.9336 26.5922L13.0905 27.4343C12.839 27.7044 12.7632 27.6514 12.8975 27.323L13.4371 26.2689C13.3265 26.1682 13.2159 26.0675 13.0988 26.0092L12.1863 26.7559C11.9002 26.9784 11.8243 26.9254 12.041 26.6076L12.6977 25.6118C12.5871 25.5111 12.4765 25.4104 12.4136 25.2727L11.4511 25.7969C11.1238 26.014 11.0544 25.9186 11.3058 25.6485L12.0384 24.7057C11.9278 24.605 11.8649 24.4673 11.7955 24.3719L10.7507 24.8855C10.4298 25.0602 10.3605 24.9649 10.6119 24.6947L11.4551 23.8527C11.3922 23.7149 11.3228 23.6195 11.2599 23.4818L10.1521 23.8576C9.79656 23.9846 9.76836 23.8946 10.0545 23.6721L11.0082 22.9307C10.9453 22.793 10.8824 22.6552 10.8607 22.5228L9.73127 22.7662C9.38224 22.8508 9.35403 22.7608 9.68135 22.5437L10.698 21.94C10.6351 21.8023 10.6134 21.6698 10.5917 21.5374L9.35813 21.6377C8.9744 21.6747 8.9462 21.5846 9.30822 21.4152L10.3878 20.9493C10.3661 20.8168 10.3509 20.642 10.3292 20.5096L9.15626 20.488C8.77903 20.4826 8.79202 20.3979 9.14755 20.2708L10.2553 19.895C10.2336 19.7626 10.2596 19.5931 10.2379 19.4606L9.09097 19.2696C8.72023 19.2218 8.73971 19.0947 9.08225 19.0524L10.2529 18.8143C10.2724 18.6872 10.2572 18.5123 10.2767 18.3852L9.14925 18.067C8.785 17.9769 8.80449 17.8497 9.18172 17.8551L10.3676 17.7919C10.3871 17.6648 10.4131 17.4952 10.4326 17.3681L9.3658 16.9281C9.04925 16.8009 9.06874 16.6737 9.43947 16.7215L10.6059 16.7854C10.6254 16.6583 10.6925 16.4941 10.7532 16.3722L9.74713 15.8104C9.43707 15.6408 9.45006 15.5561 9.8208 15.6038L10.9677 15.7949C11.0284 15.673 11.0956 15.5088 11.1562 15.387L10.2108 14.7033C9.90729 14.4914 9.96147 14.4119 10.3257 14.5021L11.4466 14.8626C11.5073 14.7408 11.6092 14.6243 11.6699 14.5024L10.8263 13.7023C10.5705 13.4532 10.6247 13.3738 10.9412 13.501L12.0015 13.9834C12.1033 13.8668 12.164 13.745 12.2659 13.6285L11.5242 12.7118C11.2748 12.4204 11.3702 12.3462 11.6738 12.5582L12.6734 13.1624C12.7752 13.0459 12.8706 12.9718 12.9725 12.8552L12.3327 11.822C12.131 11.4935 12.2199 11.4618 12.4823 11.6684L13.4212 12.3945C13.523 12.2779 13.6596 12.2091 13.7615 12.0926L13.2712 10.9058C13.1107 10.5826 13.2061 10.5085 13.462 10.7575L14.299 11.6001C14.3944 11.5259 14.531 11.4571 14.6675 11.3883L14.2944 10.2598C14.1816 9.8995 14.2705 9.86774 14.4787 10.1539L15.2138 11.1129C15.3504 11.0441 15.487 10.9753 15.5823 10.9011L15.3458 9.70381C15.2741 9.34885 15.363 9.31709 15.5712 9.60322L16.1698 10.6311C16.3064 10.5623 16.4364 10.5358 16.5665 10.5094L16.46 9.2856C16.4361 8.89358 16.525 8.86181 16.679 9.22739L17.141 10.3241C17.2711 10.2977 17.4011 10.2712 17.5312 10.2448L17.5895 9.04222C17.6068 8.6555 17.6891 8.66612 17.802 9.02639L18.1274 10.192C18.2575 10.1655 18.4287 10.1444 18.5523 10.1603L18.7407 8.93129C18.7991 8.54988 18.8815 8.5605 18.9531 8.91545L19.1897 10.1128C19.3133 10.1287 19.4845 10.1076 19.6081 10.1235L19.9136 8.9528C20.0132 8.5767 20.0956 8.58731 20.1195 8.97934L20.239 10.1184ZM17.8815 26.3231C21.7948 26.8274 25.4668 23.973 26.0838 19.947C26.7009 15.921 24.0291 12.249 20.1158 11.7447C16.2024 11.2404 12.4958 14.0471 11.8788 18.0731C11.2617 22.0991 13.9682 25.8188 17.8815 26.3231Z" fill="#777777"/>
<path d="M33.8202 19.7595C34.3691 19.675 34.3691 19.5484 33.8202 19.4217L32.258 19.1261C32.258 19.0839 32.258 19.0417 32.258 18.9995C32.258 18.7884 32.258 18.5773 32.258 18.3661L33.778 17.9861C34.3269 17.8595 34.2846 17.6906 33.7358 17.6484L32.1735 17.5217C32.1313 17.2684 32.1313 17.0573 32.0891 16.8039L33.5669 16.255C34.0735 16.0439 34.0735 15.9173 33.5246 15.9173L31.9624 15.9595C31.9202 15.7061 31.8358 15.495 31.7935 15.2417L33.1869 14.5239C33.6935 14.2706 33.6091 14.1439 33.1024 14.2284L31.5402 14.4817C31.4557 14.2706 31.3713 14.0173 31.2869 13.8061L32.5957 12.9195C33.0602 12.5817 32.9757 12.455 32.4691 12.6239L30.9491 13.0461C30.8224 12.835 30.738 12.6239 30.6113 12.4128L31.7935 11.3573C32.2158 10.9773 32.1313 10.8506 31.6246 11.0617L30.1891 11.6528C30.0624 11.4417 29.8935 11.2306 29.7669 11.0617L30.8224 9.87947C31.2024 9.45725 31.118 9.37281 30.6113 9.62614L29.1335 10.3861C28.9646 10.2173 28.838 10.0061 28.6691 9.83725L29.598 8.52836C29.9357 8.06392 29.8091 7.97948 29.3446 8.27503L28.078 9.20392C27.9091 9.03503 27.7402 8.86614 27.5291 8.73947L28.2891 7.34614C28.5424 6.83947 28.4158 6.75503 28.0357 7.13503L26.8957 8.19059C26.6846 8.06392 26.5158 7.89503 26.3046 7.76836L26.8957 6.29059C27.1069 5.78392 26.9802 5.69947 26.6002 6.1217L25.5869 7.30392C25.3757 7.17725 25.1646 7.09281 24.9535 6.96614L25.3335 5.44614C25.4602 4.89725 25.3335 4.85503 25.038 5.31947L24.1935 6.62836C23.9824 6.54392 23.7291 6.45947 23.518 6.37503L23.7291 4.81281C23.8135 4.26392 23.6869 4.2217 23.4335 4.72836L22.7157 6.1217C22.5046 6.03725 22.2513 5.99503 21.998 5.95281L22.0402 4.39059C22.0402 3.8417 21.9135 3.79947 21.7024 4.34836L21.1535 5.82614C20.9002 5.78392 20.6891 5.7417 20.4358 5.7417L20.1824 4.2217C20.1402 3.67281 19.9713 3.67281 19.8446 4.17947L19.4646 5.69947C19.2957 5.69947 19.1269 5.69947 18.958 5.69947C18.8735 5.69947 18.7891 5.69947 18.7469 5.69947L18.4091 4.13725C18.2824 3.58836 18.1557 3.58836 18.0713 4.13725L17.9024 5.69947C17.6491 5.69947 17.438 5.7417 17.1846 5.78392L16.6357 4.30614C16.4669 3.79947 16.298 3.79947 16.298 4.34836L16.3402 5.91059C16.0869 5.95281 15.8757 5.99503 15.6224 6.07947L14.9469 4.64392C14.6935 4.13725 14.5669 4.17948 14.6091 4.72836L14.778 6.29059C14.5669 6.37503 14.3135 6.45947 14.1024 6.54392L13.258 5.23503C12.9624 4.77059 12.8357 4.81281 12.9624 5.3617L13.3424 6.8817C13.1313 6.96614 12.9202 7.09281 12.7091 7.21947L11.6957 5.99503C11.358 5.57281 11.2313 5.65725 11.4002 6.16392L11.9491 7.6417C11.738 7.76836 11.5269 7.89503 11.358 8.0217L10.218 6.92392C9.79575 6.54392 9.7113 6.62836 9.96464 7.13503L10.6824 8.52836C10.5135 8.69725 10.3024 8.82392 10.1335 8.99281L8.86686 8.06392C8.40242 7.72614 8.31797 7.85281 8.61353 8.27503L9.50019 9.58392C9.3313 9.75281 9.16242 9.9217 8.99353 10.1328L7.64242 9.33059C7.17797 9.03503 7.0513 9.1617 7.4313 9.58392L8.44464 10.7661C8.31797 10.935 8.14908 11.1461 8.02242 11.3573L6.58686 10.7239C6.08019 10.5128 5.99575 10.6395 6.41797 11.0195L7.60019 12.075C7.47353 12.2861 7.34686 12.4973 7.26242 12.7084L5.74242 12.2861C5.19353 12.1173 5.1513 12.2861 5.61575 12.5817L6.88242 13.4684C6.79797 13.6795 6.6713 13.8906 6.58686 14.1439L5.02464 13.8906C4.47575 13.8061 4.43353 13.9328 4.89797 14.1861L6.2913 14.9461C6.20686 15.1573 6.16464 15.4106 6.08019 15.6217L4.51797 15.5795C3.96908 15.5795 3.92686 15.7061 4.43353 15.9173L5.9113 16.4661C5.86908 16.7195 5.82686 16.9306 5.78464 17.1839L4.22242 17.395C3.67353 17.4373 3.67353 17.5639 4.18019 17.7328L5.70019 18.155C5.70019 18.4084 5.65797 18.6195 5.65797 18.8728L4.09575 19.1684C3.54686 19.2528 3.54686 19.4217 4.09575 19.5061L5.65797 19.7173C5.65797 19.9706 5.70019 20.1817 5.70019 20.435L4.18019 20.8995C3.6313 21.0684 3.67353 21.195 4.22242 21.2373L5.78464 21.2795C5.82686 21.5328 5.86908 21.7439 5.9113 21.9972L4.47575 22.6728C3.96908 22.9261 4.0113 23.0528 4.56019 23.0106L6.12242 22.8417C6.20686 23.095 6.24908 23.3061 6.33353 23.5595L4.98242 24.3617C4.51797 24.6573 4.56019 24.7839 5.10908 24.6573L6.6713 24.3195C6.75575 24.5306 6.88242 24.7417 6.96686 24.995L5.74242 25.9661C5.32019 26.3039 5.36242 26.4306 5.9113 26.2617L7.38908 25.755C7.51575 25.9661 7.64242 26.1773 7.76908 26.3884L6.75575 27.4017C6.37575 27.7817 6.46019 27.9084 6.92464 27.655L8.36019 26.9795C8.48686 27.1906 8.65575 27.3595 8.82464 27.5284L7.85353 28.7528C7.51575 29.175 7.60019 29.3017 8.06464 29.0061L9.37353 28.1617C9.54242 28.3306 9.7113 28.4995 9.88019 28.6684L9.07797 30.0195C8.78242 30.4839 8.90908 30.5684 9.3313 30.2306L10.5557 29.2172C10.7246 29.3861 10.9357 29.5128 11.1469 29.6817L10.4713 31.1173C10.218 31.6239 10.3446 31.7084 10.7246 31.2861L11.8224 30.1461C12.0335 30.2728 12.2446 30.3995 12.4557 30.5261L11.9491 32.0039C11.7802 32.5106 11.9069 32.595 12.2446 32.1728L13.2157 30.9061C13.4269 30.9906 13.638 31.1173 13.8913 31.2017L13.5957 32.7639C13.4691 33.3128 13.638 33.355 13.8913 32.8906L14.6935 31.5395C14.9046 31.6239 15.158 31.7084 15.3691 31.7506L15.2002 33.355C15.158 33.9039 15.2846 33.9461 15.538 33.4395L16.1713 32.0039C16.4246 32.0461 16.6357 32.0884 16.8891 32.1306L16.9735 33.6928C17.0157 34.2417 17.1424 34.2417 17.3113 33.735L17.7335 32.215C17.9869 32.2573 18.2402 32.2573 18.4513 32.2573L18.7046 33.8195C18.7891 34.3684 18.9157 34.3684 19.0424 33.8195L19.338 32.2573C19.5913 32.2573 19.8024 32.2573 20.0557 32.215L20.478 33.735C20.6469 34.2839 20.7735 34.2417 20.8158 33.6928L20.9002 32.1306C21.1535 32.0884 21.3646 32.0461 21.618 32.0039L22.2091 33.4395C22.4202 33.9461 22.5469 33.9039 22.5469 33.355L22.378 31.8773C22.6313 31.835 22.8424 31.7506 23.0535 31.6661L23.8557 33.0173C24.1513 33.4817 24.278 33.4395 24.1513 32.8906L23.8557 31.3284C24.0669 31.2439 24.3202 31.1595 24.5313 31.0328L25.4602 32.2995C25.798 32.7639 25.9246 32.6795 25.7557 32.1306L25.3335 30.695C25.5446 30.5684 25.7557 30.4417 25.9669 30.315L27.0224 31.455C27.4024 31.8773 27.5291 31.7928 27.318 31.2861L26.6846 29.8506C26.8957 29.7239 27.0646 29.555 27.2757 29.4284L28.5002 30.4417C28.9224 30.7795 29.0491 30.695 28.7535 30.2306L27.9513 28.8795C28.1202 28.7106 28.2891 28.5417 28.458 28.3728L29.7669 29.2172C30.2313 29.5128 30.3158 29.4284 29.978 28.9639L29.0069 27.7395C29.1757 27.5706 29.3024 27.3595 29.4713 27.1906L30.9069 27.9084C31.4135 28.1617 31.498 28.035 31.118 27.655L29.978 26.515C30.1046 26.3039 30.2313 26.135 30.358 25.9239L31.8358 26.4306C32.3424 26.5995 32.4269 26.4728 32.0046 26.135L30.7802 25.1639C30.9069 24.9528 30.9913 24.7417 31.118 24.4884L32.638 24.8261C33.1869 24.9528 33.2291 24.8261 32.7646 24.5306L31.4135 23.6861C31.498 23.475 31.5824 23.2217 31.6669 23.0106L33.2291 23.1795C33.778 23.2217 33.8202 23.095 33.3135 22.8417L31.878 22.1661C31.9202 21.9128 32.0046 21.7017 32.0469 21.4484L33.6091 21.4061C34.158 21.4061 34.2002 21.2373 33.6513 21.0684L32.1735 20.6884C32.2157 20.435 32.2157 20.2239 32.258 19.9706L33.8202 19.7595ZM13.4691 27.1906C13.0469 27.9506 11.9491 28.035 11.2735 27.655C10.8091 27.4017 9.7113 26.3461 8.69797 24.6995C7.76908 23.0106 7.26242 21.1106 7.26242 19.0417C7.26242 15.5795 8.74019 12.4973 11.1469 10.3439C11.9069 9.9217 12.9624 10.0061 13.3846 10.7239L17.5646 17.9017C17.9024 18.4928 17.9024 19.6328 17.5224 20.2239L13.4691 27.1906ZM28.0357 26.4306C26.6846 28.035 24.9535 29.3017 22.9269 30.0195C20.3091 30.7795 16.8891 30.8217 15.5802 30.1039C14.6935 29.6817 14.3557 28.7528 14.778 27.9928L18.9157 20.815C19.2535 20.2239 20.1402 19.7173 20.8158 19.7173H28.8802C29.7669 19.7173 30.358 20.4773 30.358 21.2373C30.358 21.9128 29.8091 24.235 28.0357 26.4306ZM18.3669 18.9995C18.3669 18.6617 18.6624 18.3661 19.0002 18.3661C19.338 18.3661 19.6335 18.6617 19.6335 18.9995C19.6335 19.3373 19.338 19.6328 19.0002 19.6328C18.6624 19.6328 18.3669 19.3373 18.3669 18.9995ZM29.0491 18.2395H20.6046C19.8869 18.1973 19.0424 17.6061 18.7046 16.9728L14.6935 10.0061C14.2713 9.24614 14.7357 8.4017 15.4113 8.0217C15.8757 7.76836 17.3535 7.30392 19.2957 7.30392C24.8269 7.43059 29.3869 11.4417 30.4424 16.6773C30.5691 17.5639 29.8091 18.2395 29.0491 18.2395Z" fill="url(#paint1_linear_2812_15058)"/>
<defs>
<linearGradient id="paint0_linear_2812_15058" x1="18.9941" y1="0.0118222" x2="18.9941" y2="37.9992" gradientUnits="userSpaceOnUse">
<stop stop-color="#D3D7DD"/>
<stop offset="1" stop-color="#888C90"/>
</linearGradient>
<linearGradient id="paint1_linear_2812_15058" x1="18.9919" y1="3.77678" x2="18.9919" y2="34.2643" gradientUnits="userSpaceOnUse">
<stop stop-color="#D9DADB"/>
<stop offset="1" stop-color="#7D8082"/>
</linearGradient>
</defs>
</svg>
